<?xml version="1.0" encoding="UTF-8" standalone="no"?>
<!DOCTYPE svg PUBLIC "-//W3C//DTD SVG 1.1//EN"
 "http://www.w3.org/Graphics/SVG/1.1/DTD/svg11.dtd">
<!-- Generated by graphviz version 2.30.1 (20180420.1509)
 -->
<!-- Title: fast Pages: 1 -->
<svg width="393pt" height="477pt"
 viewBox="0.00 0.00 393.00 477.00" xmlns="http://www.w3.org/2000/svg" xmlns:xlink="http://www.w3.org/1999/xlink">
<g id="graph0" class="graph" transform="scale(1 1) rotate(0) translate(4 473)">
<title>fast</title>
<polygon fill="white" stroke="white" points="-4,5 -4,-473 390,-473 390,5 -4,5"/>
<text text-anchor="middle" x="192.5" y="-7.8" font-family="Times,serif" font-size="14.00">fast&#45;4.5_amd64 (2020&#45;11&#45;25)</text>
<!-- 1 -->
<g id="node1" class="node"><title>1</title>
<polygon fill="yellowgreen" stroke="yellowgreen" points="131.5,-468.5 80.5,-468.5 80.5,-417.5 131.5,-417.5 131.5,-468.5"/>
<text text-anchor="middle" x="106" y="-439.3" font-family="Times,serif" font-size="14.00">4.5.20</text>
</g>
<!-- 16 -->
<g id="node2" class="node"><title>16</title>
<polygon fill="yellowgreen" stroke="yellowgreen" points="50.5,-292.5 -0.5,-292.5 -0.5,-241.5 50.5,-241.5 50.5,-292.5"/>
<text text-anchor="middle" x="25" y="-263.3" font-family="Times,serif" font-size="14.00">4.5.18</text>
</g>
<!-- 23 -->
<g id="node4" class="node"><title>23</title>
<polygon fill="yellowgreen" stroke="yellowgreen" points="158.5,-380.5 107.5,-380.5 107.5,-329.5 158.5,-329.5 158.5,-380.5"/>
<text text-anchor="middle" x="133" y="-351.3" font-family="Times,serif" font-size="14.00">4.5.19</text>
</g>
<!-- 16&#45;&gt;23 -->
<g id="edge6" class="edge"><title>16&#45;&gt;23</title>
<path fill="none" stroke="blue" stroke-dasharray="5,2" d="M50.3212,-288.163C64.9746,-299.832 83.5972,-314.661 99.457,-327.29"/>
<polygon fill="blue" stroke="blue" points="97.4602,-330.174 107.463,-333.665 101.821,-324.698 97.4602,-330.174"/>
</g>
<!-- 16&#45;&gt;1 -->
<g id="edge9" class="edge"><title>16&#45;&gt;1</title>
<path fill="none" stroke="blue" stroke-dasharray="5,2" d="M31.733,-292.531C38.601,-315.923 50.3195,-351.811 65,-381 69.73,-390.405 75.6694,-400.083 81.5475,-408.882"/>
<polygon fill="blue" stroke="blue" points="78.8124,-411.082 87.3581,-417.344 84.5832,-407.119 78.8124,-411.082"/>
</g>
<!-- 22 -->
<g id="node3" class="node"><title>22</title>
<polygon fill="yellowgreen" stroke="yellowgreen" points="142.5,-204.5 91.5,-204.5 91.5,-153.5 142.5,-153.5 142.5,-204.5"/>
<text text-anchor="middle" x="117" y="-175.3" font-family="Times,serif" font-size="14.00">4.5.16</text>
</g>
<!-- 22&#45;&gt;23 -->
<g id="edge2" class="edge"><title>22&#45;&gt;23</title>
<path fill="none" stroke="blue" stroke-dasharray="5,2" d="M119.258,-204.561C122.002,-234.4 126.651,-284.95 129.772,-318.893"/>
<polygon fill="blue" stroke="blue" points="126.326,-319.645 130.727,-329.283 133.297,-319.004 126.326,-319.645"/>
</g>
<!-- 22&#45;&gt;1 -->
<g id="edge3" class="edge"><title>22&#45;&gt;1</title>
<path fill="none" stroke="blue" stroke-dasharray="5,2" d="M112.113,-204.718C105.2,-242.606 93.8435,-317.342 98,-381 98.5591,-389.562 99.5551,-398.758 100.659,-407.346"/>
<polygon fill="blue" stroke="blue" points="97.2158,-408.003 102.036,-417.437 104.151,-407.056 97.2158,-408.003"/>
</g>
<!-- 22&#45;&gt;16 -->
<g id="edge10" class="edge"><title>22&#45;&gt;16</title>
<path fill="none" stroke="blue" stroke-dasharray="5,2" d="M91.3729,-203.956C81.0051,-213.647 68.907,-224.956 57.9005,-235.245"/>
<polygon fill="blue" stroke="blue" points="55.4049,-232.787 50.4897,-242.173 60.1851,-237.901 55.4049,-232.787"/>
</g>
<!-- 31 -->
<g id="node6" class="node"><title>31</title>
<polygon fill="yellowgreen" stroke="yellowgreen" points="196.5,-292.5 145.5,-292.5 145.5,-241.5 196.5,-241.5 196.5,-292.5"/>
<text text-anchor="middle" x="171" y="-263.3" font-family="Times,serif" font-size="14.00">4.5.17</text>
</g>
<!-- 22&#45;&gt;31 -->
<g id="edge11" class="edge"><title>22&#45;&gt;31</title>
<path fill="none" stroke="blue" stroke-dasharray="5,2" d="M132.619,-204.875C138.095,-213.596 144.336,-223.536 150.171,-232.828"/>
<polygon fill="blue" stroke="blue" points="147.321,-234.87 155.603,-241.478 153.249,-231.148 147.321,-234.87"/>
</g>
<!-- 23&#45;&gt;1 -->
<g id="edge7" class="edge"><title>23&#45;&gt;1</title>
<path fill="none" stroke="blue" stroke-dasharray="5,2" d="M125.19,-380.875C122.565,-389.237 119.589,-398.718 116.776,-407.675"/>
<polygon fill="blue" stroke="blue" points="113.355,-406.889 113.699,-417.478 120.033,-408.986 113.355,-406.889"/>
</g>
<!-- 24 -->
<g id="node5" class="node"><title>24</title>
<polygon fill="salmon" stroke="salmon" points="212.146,-75.6079 171,-88.1475 129.854,-75.6079 145.571,-55.3184 196.429,-55.3184 212.146,-75.6079"/>
<polygon fill="none" stroke="salmon" points="218.904,-77.7628 171,-92.362 123.096,-77.7628 143.606,-51.2856 198.394,-51.2856 218.904,-77.7628"/>
<text text-anchor="middle" x="171" y="-66.3" font-family="Times,serif" font-size="14.00">4.4.30</text>
</g>
<!-- 24&#45;&gt;16 -->
<g id="edge1" class="edge"><title>24&#45;&gt;16</title>
<path fill="none" stroke="red" stroke-width="2" d="M150.652,-86.2032C131.217,-101.482 102.003,-126.508 82,-153 63.695,-177.242 48.5372,-208.257 38.4659,-231.659"/>
<polygon fill="red" stroke="red" points="35.1124,-230.605 34.4667,-241.18 41.5662,-233.316 35.1124,-230.605"/>
</g>
<!-- 24&#45;&gt;1 -->
<g id="edge4" class="edge"><title>24&#45;&gt;1</title>
<path fill="none" stroke="red" stroke-width="2" d="M185.951,-87.7756C198.821,-103.408 216.471,-128.005 224,-153 241.947,-212.579 242.875,-233.399 225,-293 210.072,-342.776 168.709,-387.531 138.942,-414.707"/>
<polygon fill="red" stroke="red" points="136.393,-412.291 131.267,-421.563 141.057,-417.511 136.393,-412.291"/>
</g>
<!-- 24&#45;&gt;23 -->
<g id="edge5" class="edge"><title>24&#45;&gt;23</title>
<path fill="none" stroke="red" stroke-width="2" d="M180.587,-89.5343C199.562,-128.936 237.379,-223.131 205,-293 196.996,-310.272 181.425,-324.432 166.805,-334.746"/>
<polygon fill="red" stroke="red" points="164.749,-331.91 158.371,-340.369 168.633,-337.734 164.749,-331.91"/>
</g>
<!-- 24&#45;&gt;22 -->
<g id="edge8" class="edge"><title>24&#45;&gt;22</title>
<path fill="none" stroke="red" stroke-width="2" d="M161.594,-89.638C154.029,-104.628 143.199,-126.086 134.107,-144.103"/>
<polygon fill="red" stroke="red" points="130.918,-142.653 129.537,-153.158 137.167,-145.807 130.918,-142.653"/>
</g>
<!-- Key -->
<g id="node7" class="node"><title>Key</title>
<text text-anchor="start" x="299" y="-81.3" font-family="Times,serif" font-weight="bold" font-size="14.00">Key</text>
<text text-anchor="start" x="261" y="-65.8" font-family="Times,serif" font-size="14.00">Direct Path</text>
<text text-anchor="start" x="336.5" y="-65.8" font-family="Times,serif" font-size="14.00" fill="red">⟶</text>
<text text-anchor="start" x="261" y="-50.8" font-family="Times,serif" font-size="14.00">Indirect Path</text>
<text text-anchor="start" x="333" y="-50.8" font-family="Times,serif" font-size="14.00" fill="blue">→ ⤏</text>
<polygon fill="none" stroke="black" stroke-dasharray="1,5" points="259,-45.5 259,-94.5 363,-94.5 363,-45.5 259,-45.5"/>
</g>
</g>
</svg>
