<?xml version="1.0" encoding="UTF-8" standalone="no"?>
<!DOCTYPE svg PUBLIC "-//W3C//DTD SVG 1.1//EN"
 "http://www.w3.org/Graphics/SVG/1.1/DTD/svg11.dtd">
<!-- Generated by graphviz version 2.30.1 (20180420.1509)
 -->
<!-- Title: fast Pages: 1 -->
<svg width="2439pt" height="709pt"
 viewBox="0.00 0.00 2439.49 709.00" xmlns="http://www.w3.org/2000/svg" xmlns:xlink="http://www.w3.org/1999/xlink">
<g id="graph0" class="graph" transform="scale(1 1) rotate(0) translate(4 705)">
<title>fast</title>
<polygon fill="white" stroke="white" points="-4,5 -4,-705 2436.49,-705 2436.49,5 -4,5"/>
<text text-anchor="middle" x="1215.74" y="-7.8" font-family="Times,serif" font-size="14.00">fast&#45;4.4_amd64 (2020&#45;11&#45;26)</text>
<!-- 0 -->
<g id="node1" class="node"><title>0</title>
<polygon fill="yellowgreen" stroke="yellowgreen" points="1010.5,-612.5 959.5,-612.5 959.5,-561.5 1010.5,-561.5 1010.5,-612.5"/>
<text text-anchor="middle" x="985" y="-583.3" font-family="Times,serif" font-size="14.00">4.4.12</text>
</g>
<!-- 2 -->
<g id="node2" class="node"><title>2</title>
<polygon fill="yellowgreen" stroke="yellowgreen" points="2010.5,-612.5 1959.5,-612.5 1959.5,-561.5 2010.5,-561.5 2010.5,-612.5"/>
<text text-anchor="middle" x="1985" y="-583.3" font-family="Times,serif" font-size="14.00">4.4.21</text>
</g>
<!-- 4 -->
<g id="node3" class="node"><title>4</title>
<polygon fill="yellowgreen" stroke="yellowgreen" points="1574.5,-612.5 1523.5,-612.5 1523.5,-561.5 1574.5,-561.5 1574.5,-612.5"/>
<text text-anchor="middle" x="1549" y="-583.3" font-family="Times,serif" font-size="14.00">4.4.11</text>
</g>
<!-- 5 -->
<g id="node4" class="node"><title>5</title>
<ellipse fill="lightgrey" stroke="lightgrey" cx="555" cy="-499" rx="33.2948" ry="18"/>
<text text-anchor="middle" x="555" y="-495.3" font-family="Times,serif" font-size="14.00">4.3.28</text>
</g>
<!-- 7 -->
<g id="node5" class="node"><title>7</title>
<polygon fill="yellowgreen" stroke="yellowgreen" points="1318.5,-700.5 1267.5,-700.5 1267.5,-649.5 1318.5,-649.5 1318.5,-700.5"/>
<text text-anchor="middle" x="1293" y="-671.3" font-family="Times,serif" font-size="14.00">4.4.29</text>
</g>
<!-- 5&#45;&gt;7 -->
<g id="edge11" class="edge"><title>5&#45;&gt;7</title>
<path fill="none" stroke="blue" stroke-dasharray="5,2" d="M565.545,-516.195C583.246,-541.827 621.592,-591.076 668,-613 773.748,-662.958 1141.24,-672.024 1257.47,-673.649"/>
<polygon fill="blue" stroke="blue" points="1257.56,-677.151 1267.61,-673.781 1257.65,-670.151 1257.56,-677.151"/>
</g>
<!-- 47 -->
<g id="node32" class="node"><title>47</title>
<polygon fill="yellowgreen" stroke="yellowgreen" points="2103.5,-612.5 2052.5,-612.5 2052.5,-561.5 2103.5,-561.5 2103.5,-612.5"/>
<text text-anchor="middle" x="2078" y="-583.3" font-family="Times,serif" font-size="14.00">4.4.23</text>
</g>
<!-- 5&#45;&gt;47 -->
<g id="edge37" class="edge"><title>5&#45;&gt;47</title>
<path fill="none" stroke="blue" stroke-dasharray="5,2" d="M573.699,-513.914C580.655,-518.316 588.847,-522.646 597,-525 900.694,-612.694 1710.05,-494.162 2019,-561 2027.12,-562.756 2035.52,-565.613 2043.34,-568.781"/>
<polygon fill="blue" stroke="blue" points="2041.98,-572.005 2052.55,-572.745 2044.75,-565.576 2041.98,-572.005"/>
</g>
<!-- 9 -->
<g id="node7" class="node"><title>9</title>
<polygon fill="yellowgreen" stroke="yellowgreen" points="313.5,-612.5 262.5,-612.5 262.5,-561.5 313.5,-561.5 313.5,-612.5"/>
<text text-anchor="middle" x="288" y="-583.3" font-family="Times,serif" font-size="14.00">4.4.14</text>
</g>
<!-- 5&#45;&gt;9 -->
<g id="edge58" class="edge"><title>5&#45;&gt;9</title>
<path fill="none" stroke="blue" stroke-dasharray="5,2" d="M523.165,-504.43C478.933,-511.4 396.838,-527.311 322.798,-561.349"/>
<polygon fill="blue" stroke="blue" points="320.891,-558.379 313.346,-565.817 323.882,-564.708 320.891,-558.379"/>
</g>
<!-- 5&#45;&gt;4 -->
<g id="edge63" class="edge"><title>5&#45;&gt;4</title>
<path fill="none" stroke="blue" stroke-dasharray="5,2" d="M574.167,-514.012C581.037,-518.309 589.054,-522.548 597,-525 720.818,-563.212 1049.69,-552.632 1179,-561 1301.63,-568.936 1447.09,-578.936 1513.16,-583.51"/>
<polygon fill="blue" stroke="blue" points="1513.22,-587.023 1523.43,-584.222 1513.7,-580.039 1513.22,-587.023"/>
</g>
<!-- 10 -->
<g id="node8" class="node"><title>10</title>
<polygon fill="yellowgreen" stroke="yellowgreen" points="782.5,-612.5 731.5,-612.5 731.5,-561.5 782.5,-561.5 782.5,-612.5"/>
<text text-anchor="middle" x="757" y="-583.3" font-family="Times,serif" font-size="14.00">4.4.13</text>
</g>
<!-- 5&#45;&gt;10 -->
<g id="edge74" class="edge"><title>5&#45;&gt;10</title>
<path fill="none" stroke="blue" stroke-dasharray="5,2" d="M575.544,-513.19C582.25,-517.233 589.82,-521.526 597,-525 638.714,-545.18 688.949,-563.4 721.863,-574.566"/>
<polygon fill="blue" stroke="blue" points="720.899,-577.935 731.493,-577.799 723.127,-571.299 720.899,-577.935"/>
</g>
<!-- 5&#45;&gt;0 -->
<g id="edge84" class="edge"><title>5&#45;&gt;0</title>
<path fill="none" stroke="blue" stroke-dasharray="5,2" d="M574.732,-513.848C581.516,-518.027 589.338,-522.234 597,-525 629.968,-536.901 860.265,-569.034 949.65,-581.223"/>
<polygon fill="blue" stroke="blue" points="949.203,-584.695 959.584,-582.575 950.147,-577.759 949.203,-584.695"/>
</g>
<!-- 21 -->
<g id="node15" class="node"><title>21</title>
<polygon fill="yellowgreen" stroke="yellowgreen" points="382.5,-612.5 331.5,-612.5 331.5,-561.5 382.5,-561.5 382.5,-612.5"/>
<text text-anchor="middle" x="357" y="-583.3" font-family="Times,serif" font-size="14.00">4.4.15</text>
</g>
<!-- 5&#45;&gt;21 -->
<g id="edge92" class="edge"><title>5&#45;&gt;21</title>
<path fill="none" stroke="blue" stroke-dasharray="5,2" d="M529.923,-510.892C495.004,-526.059 431.579,-553.607 392.012,-570.793"/>
<polygon fill="blue" stroke="blue" points="390.276,-567.731 382.499,-574.925 393.065,-574.151 390.276,-567.731"/>
</g>
<!-- 38 -->
<g id="node26" class="node"><title>38</title>
<polygon fill="yellowgreen" stroke="yellowgreen" points="542.5,-612.5 491.5,-612.5 491.5,-561.5 542.5,-561.5 542.5,-612.5"/>
<text text-anchor="middle" x="517" y="-583.3" font-family="Times,serif" font-size="14.00">4.4.16</text>
</g>
<!-- 5&#45;&gt;38 -->
<g id="edge107" class="edge"><title>5&#45;&gt;38</title>
<path fill="none" stroke="blue" stroke-dasharray="5,2" d="M547.673,-516.582C543.249,-526.595 537.445,-539.73 532.078,-551.876"/>
<polygon fill="blue" stroke="blue" points="528.742,-550.766 527.902,-561.327 535.145,-553.595 528.742,-550.766"/>
</g>
<!-- 8 -->
<g id="node6" class="node"><title>8</title>
<polygon fill="yellowgreen" stroke="yellowgreen" points="1170.5,-612.5 1119.5,-612.5 1119.5,-561.5 1170.5,-561.5 1170.5,-612.5"/>
<text text-anchor="middle" x="1145" y="-583.3" font-family="Times,serif" font-size="14.00">4.4.17</text>
</g>
<!-- 12 -->
<g id="node9" class="node"><title>12</title>
<polygon fill="yellowgreen" stroke="yellowgreen" points="2126.5,-700.5 2075.5,-700.5 2075.5,-649.5 2126.5,-649.5 2126.5,-700.5"/>
<text text-anchor="middle" x="2101" y="-671.3" font-family="Times,serif" font-size="14.00">4.4.30</text>
</g>
<!-- 16 -->
<g id="node10" class="node"><title>16</title>
<polygon fill="yellowgreen" stroke="yellowgreen" points="1723.5,-612.5 1672.5,-612.5 1672.5,-561.5 1723.5,-561.5 1723.5,-612.5"/>
<text text-anchor="middle" x="1698" y="-583.3" font-family="Times,serif" font-size="14.00">4.4.19</text>
</g>
<!-- 17 -->
<g id="node11" class="node"><title>17</title>
<ellipse fill="lightgrey" stroke="lightgrey" cx="2193" cy="-587" rx="33.2948" ry="18"/>
<text text-anchor="middle" x="2193" y="-583.3" font-family="Times,serif" font-size="14.00">4.3.38</text>
</g>
<!-- 17&#45;&gt;7 -->
<g id="edge1" class="edge"><title>17&#45;&gt;7</title>
<path fill="none" stroke="blue" stroke-dasharray="5,2" d="M2172.27,-601.427C2164.36,-605.895 2155.06,-610.394 2146,-613 1988.69,-658.256 1469.52,-670.807 1328.57,-673.417"/>
<polygon fill="blue" stroke="blue" points="1328.28,-669.922 1318.34,-673.601 1328.4,-676.921 1328.28,-669.922"/>
</g>
<!-- 44 -->
<g id="node29" class="node"><title>44</title>
<polygon fill="yellowgreen" stroke="yellowgreen" points="2218.5,-700.5 2167.5,-700.5 2167.5,-649.5 2218.5,-649.5 2218.5,-700.5"/>
<text text-anchor="middle" x="2193" y="-671.3" font-family="Times,serif" font-size="14.00">4.4.27</text>
</g>
<!-- 17&#45;&gt;44 -->
<g id="edge8" class="edge"><title>17&#45;&gt;44</title>
<path fill="none" stroke="blue" stroke-dasharray="5,2" d="M2193,-605.403C2193,-615.098 2193,-627.523 2193,-639.128"/>
<polygon fill="blue" stroke="blue" points="2189.5,-639.453 2193,-649.453 2196.5,-639.453 2189.5,-639.453"/>
</g>
<!-- 17&#45;&gt;12 -->
<g id="edge25" class="edge"><title>17&#45;&gt;12</title>
<path fill="none" stroke="blue" stroke-dasharray="5,2" d="M2176.97,-602.98C2165.14,-614.045 2148.61,-629.494 2133.99,-643.158"/>
<polygon fill="blue" stroke="blue" points="2131.47,-640.723 2126.56,-650.108 2136.25,-645.836 2131.47,-640.723"/>
</g>
<!-- 46 -->
<g id="node31" class="node"><title>46</title>
<polygon fill="yellowgreen" stroke="yellowgreen" points="2302.5,-700.5 2251.5,-700.5 2251.5,-649.5 2302.5,-649.5 2302.5,-700.5"/>
<text text-anchor="middle" x="2277" y="-671.3" font-family="Times,serif" font-size="14.00">4.4.26</text>
</g>
<!-- 17&#45;&gt;46 -->
<g id="edge97" class="edge"><title>17&#45;&gt;46</title>
<path fill="none" stroke="blue" stroke-dasharray="5,2" d="M2208.02,-603.375C2218.53,-614.137 2232.95,-628.902 2245.89,-642.151"/>
<polygon fill="blue" stroke="blue" points="2243.4,-644.612 2252.89,-649.32 2248.41,-639.72 2243.4,-644.612"/>
</g>
<!-- 18 -->
<g id="node12" class="node"><title>18</title>
<polygon fill="yellowgreen" stroke="yellowgreen" points="1104,-437 1060,-437 1060,-393 1104,-393 1104,-437"/>
<text text-anchor="middle" x="1082" y="-411.3" font-family="Times,serif" font-size="14.00">4.4.9</text>
</g>
<!-- 39 -->
<g id="node27" class="node"><title>39</title>
<polygon fill="yellowgreen" stroke="yellowgreen" points="1349.5,-524.5 1298.5,-524.5 1298.5,-473.5 1349.5,-473.5 1349.5,-524.5"/>
<text text-anchor="middle" x="1324" y="-495.3" font-family="Times,serif" font-size="14.00">4.4.10</text>
</g>
<!-- 18&#45;&gt;39 -->
<g id="edge13" class="edge"><title>18&#45;&gt;39</title>
<path fill="none" stroke="blue" stroke-dasharray="5,2" d="M1104.33,-423.567C1146.57,-437.878 1238.42,-469.002 1288.95,-486.122"/>
<polygon fill="blue" stroke="blue" points="1287.88,-489.456 1298.47,-489.351 1290.13,-482.826 1287.88,-489.456"/>
</g>
<!-- 18&#45;&gt;47 -->
<g id="edge18" class="edge"><title>18&#45;&gt;47</title>
<path fill="none" stroke="blue" stroke-dasharray="5,2" d="M1104.2,-417.126C1240.91,-424.097 1963.46,-461.44 1983,-473 2006.56,-486.938 1998.8,-503.708 2016,-525 2024.77,-535.858 2035.29,-546.828 2045.16,-556.413"/>
<polygon fill="blue" stroke="blue" points="2042.88,-559.078 2052.53,-563.449 2047.71,-554.013 2042.88,-559.078"/>
</g>
<!-- 18&#45;&gt;38 -->
<g id="edge26" class="edge"><title>18&#45;&gt;38</title>
<path fill="none" stroke="blue" stroke-dasharray="5,2" d="M1059.75,-417.821C955.769,-426.381 522.377,-462.636 513,-473 494.131,-493.853 497.634,-526.755 504.378,-551.69"/>
<polygon fill="blue" stroke="blue" points="501.089,-552.907 507.3,-561.49 507.797,-550.907 501.089,-552.907"/>
</g>
<!-- 36 -->
<g id="node24" class="node"><title>36</title>
<polygon fill="yellowgreen" stroke="yellowgreen" points="1902.5,-612.5 1851.5,-612.5 1851.5,-561.5 1902.5,-561.5 1902.5,-612.5"/>
<text text-anchor="middle" x="1877" y="-583.3" font-family="Times,serif" font-size="14.00">4.4.20</text>
</g>
<!-- 18&#45;&gt;36 -->
<g id="edge28" class="edge"><title>18&#45;&gt;36</title>
<path fill="none" stroke="blue" stroke-dasharray="5,2" d="M1104.4,-416.852C1229.05,-421.691 1832.58,-446.438 1861,-473 1881.87,-492.501 1884.31,-525.865 1882.46,-551.3"/>
<polygon fill="blue" stroke="blue" points="1878.97,-551.012 1881.48,-561.304 1885.94,-551.689 1878.97,-551.012"/>
</g>
<!-- 18&#45;&gt;0 -->
<g id="edge29" class="edge"><title>18&#45;&gt;0</title>
<path fill="none" stroke="blue" stroke-dasharray="5,2" d="M1069.91,-437.187C1053.41,-466.111 1023.65,-518.266 1004.11,-552.511"/>
<polygon fill="blue" stroke="blue" points="1001.05,-550.813 999.131,-561.234 1007.13,-554.283 1001.05,-550.813"/>
</g>
<!-- 18&#45;&gt;16 -->
<g id="edge34" class="edge"><title>18&#45;&gt;16</title>
<path fill="none" stroke="blue" stroke-dasharray="5,2" d="M1104.21,-426.893C1127.09,-438.186 1163.72,-456.469 1195,-473 1237.21,-495.311 1243.58,-510.273 1289,-525 1414.22,-565.606 1453.21,-538.994 1583,-561 1609.9,-565.561 1640.03,-572.167 1662.7,-577.443"/>
<polygon fill="blue" stroke="blue" points="1662.02,-580.877 1672.55,-579.761 1663.62,-574.064 1662.02,-580.877"/>
</g>
<!-- 18&#45;&gt;4 -->
<g id="edge43" class="edge"><title>18&#45;&gt;4</title>
<path fill="none" stroke="blue" stroke-dasharray="5,2" d="M1101.89,-437.395C1126.6,-462.559 1171.22,-503.606 1218,-525 1318.47,-570.947 1451.07,-582.299 1513.55,-585.094"/>
<polygon fill="blue" stroke="blue" points="1513.54,-588.596 1523.67,-585.498 1513.82,-581.601 1513.54,-588.596"/>
</g>
<!-- 18&#45;&gt;7 -->
<g id="edge65" class="edge"><title>18&#45;&gt;7</title>
<path fill="none" stroke="blue" stroke-dasharray="5,2" d="M1078.41,-437.23C1073.01,-476.719 1067.52,-562.063 1110,-613 1146.58,-656.863 1215.64,-669.356 1257.67,-672.809"/>
<polygon fill="blue" stroke="blue" points="1257.52,-676.307 1267.74,-673.506 1258,-669.324 1257.52,-676.307"/>
</g>
<!-- 18&#45;&gt;10 -->
<g id="edge68" class="edge"><title>18&#45;&gt;10</title>
<path fill="none" stroke="blue" stroke-dasharray="5,2" d="M1059.92,-427.551C1004.38,-456.6 858.57,-532.871 791.571,-567.917"/>
<polygon fill="blue" stroke="blue" points="789.896,-564.843 782.658,-572.579 793.141,-571.045 789.896,-564.843"/>
</g>
<!-- 18&#45;&gt;9 -->
<g id="edge72" class="edge"><title>18&#45;&gt;9</title>
<path fill="none" stroke="blue" stroke-dasharray="5,2" d="M1059.97,-416.034C958.388,-416.468 534.976,-421.397 415,-473 374.038,-490.618 337.191,-526.8 313.868,-553.497"/>
<polygon fill="blue" stroke="blue" points="311.206,-551.224 307.366,-561.098 316.526,-555.774 311.206,-551.224"/>
</g>
<!-- 18&#45;&gt;8 -->
<g id="edge102" class="edge"><title>18&#45;&gt;8</title>
<path fill="none" stroke="blue" stroke-dasharray="5,2" d="M1089.85,-437.187C1100.48,-465.864 1119.57,-517.38 1132.26,-551.633"/>
<polygon fill="blue" stroke="blue" points="1129.06,-553.073 1135.82,-561.234 1135.63,-550.641 1129.06,-553.073"/>
</g>
<!-- 18&#45;&gt;21 -->
<g id="edge141" class="edge"><title>18&#45;&gt;21</title>
<path fill="none" stroke="blue" stroke-dasharray="5,2" d="M1059.88,-416.44C965.98,-418.567 600.291,-429.54 495,-473 451.754,-490.85 411.487,-526.99 385.746,-553.614"/>
<polygon fill="blue" stroke="blue" points="382.9,-551.528 378.558,-561.193 387.979,-556.345 382.9,-551.528"/>
</g>
<!-- 19 -->
<g id="node13" class="node"><title>19</title>
<ellipse fill="lightgrey" stroke="lightgrey" cx="1360" cy="-255" rx="33.2948" ry="18"/>
<text text-anchor="middle" x="1360" y="-251.3" font-family="Times,serif" font-size="14.00">4.3.25</text>
</g>
<!-- 19&#45;&gt;18 -->
<g id="edge10" class="edge"><title>19&#45;&gt;18</title>
<path fill="none" stroke="blue" stroke-dasharray="5,2" d="M1348.23,-272.02C1331.16,-294.178 1297.44,-334.037 1260,-357 1213.68,-385.41 1151.79,-401.043 1114.52,-408.457"/>
<polygon fill="blue" stroke="blue" points="1113.41,-405.106 1104.24,-410.417 1114.72,-411.982 1113.41,-405.106"/>
</g>
<!-- 19&#45;&gt;47 -->
<g id="edge12" class="edge"><title>19&#45;&gt;47</title>
<path fill="none" stroke="blue" stroke-dasharray="5,2" d="M1393.03,-257.314C1487.69,-261.488 1758.25,-276.393 1838,-313 1864.3,-325.073 1859.75,-344.819 1886,-357 1943.31,-383.592 2126.25,-345.584 2168,-393 2206.77,-437.032 2196.9,-473.948 2168,-525 2154.17,-549.419 2137.09,-544.419 2111.82,-558.973"/>
<polygon fill="blue" stroke="blue" points="2109.83,-556.09 2103.32,-564.448 2113.62,-561.975 2109.83,-556.09"/>
</g>
<!-- 19&#45;&gt;0 -->
<g id="edge48" class="edge"><title>19&#45;&gt;0</title>
<path fill="none" stroke="blue" stroke-dasharray="5,2" d="M1336.86,-268.171C1298.7,-288.016 1219.92,-328.036 1151,-357 1107.45,-375.302 1085.16,-360.37 1051,-393 1006.77,-435.259 992.176,-508.374 987.366,-551.455"/>
<polygon fill="blue" stroke="blue" points="983.877,-551.166 986.364,-561.465 990.842,-551.863 983.877,-551.166"/>
</g>
<!-- 29 -->
<g id="node20" class="node"><title>29</title>
<polygon fill="yellowgreen" stroke="yellowgreen" points="1142,-357 1098,-357 1098,-313 1142,-313 1142,-357"/>
<text text-anchor="middle" x="1120" y="-331.3" font-family="Times,serif" font-size="14.00">4.4.8</text>
</g>
<!-- 19&#45;&gt;29 -->
<g id="edge82" class="edge"><title>19&#45;&gt;29</title>
<path fill="none" stroke="blue" stroke-dasharray="5,2" d="M1332,-265.1C1287.07,-279.702 1199.15,-308.277 1151.88,-323.64"/>
<polygon fill="blue" stroke="blue" points="1150.59,-320.378 1142.16,-326.798 1152.75,-327.036 1150.59,-320.378"/>
</g>
<!-- 19&#45;&gt;39 -->
<g id="edge96" class="edge"><title>19&#45;&gt;39</title>
<path fill="none" stroke="blue" stroke-dasharray="5,2" d="M1358.1,-273.021C1354.44,-305.16 1345.88,-376.946 1336,-437 1334.58,-445.65 1332.85,-454.951 1331.15,-463.62"/>
<polygon fill="blue" stroke="blue" points="1327.72,-462.937 1329.2,-473.429 1334.59,-464.306 1327.72,-462.937"/>
</g>
<!-- 19&#45;&gt;4 -->
<g id="edge111" class="edge"><title>19&#45;&gt;4</title>
<path fill="none" stroke="blue" stroke-dasharray="5,2" d="M1392.85,-258.47C1456.19,-263.952 1591.67,-279.396 1622,-313 1685.25,-383.072 1655.17,-442.662 1609,-525 1602.05,-537.39 1591.92,-549.035 1581.96,-558.763"/>
<polygon fill="blue" stroke="blue" points="1579.34,-556.421 1574.43,-565.809 1584.12,-561.533 1579.34,-556.421"/>
</g>
<!-- 20 -->
<g id="node14" class="node"><title>20</title>
<ellipse fill="lightgrey" stroke="lightgrey" cx="639" cy="-499" rx="33.2948" ry="18"/>
<text text-anchor="middle" x="639" y="-495.3" font-family="Times,serif" font-size="14.00">4.3.29</text>
</g>
<!-- 20&#45;&gt;47 -->
<g id="edge56" class="edge"><title>20&#45;&gt;47</title>
<path fill="none" stroke="blue" stroke-dasharray="5,2" d="M671.884,-501.292C878.07,-509.415 1985.07,-553.323 2019,-561 2027.1,-562.832 2035.49,-565.722 2043.32,-568.896"/>
<polygon fill="blue" stroke="blue" points="2041.96,-572.12 2052.53,-572.857 2044.72,-565.69 2041.96,-572.12"/>
</g>
<!-- 20&#45;&gt;9 -->
<g id="edge59" class="edge"><title>20&#45;&gt;9</title>
<path fill="none" stroke="blue" stroke-dasharray="5,2" d="M619.732,-513.703C612.854,-517.976 604.858,-522.277 597,-525 483.599,-564.292 438.754,-517.629 323.122,-561.441"/>
<polygon fill="blue" stroke="blue" points="321.591,-558.282 313.569,-565.203 324.156,-564.796 321.591,-558.282"/>
</g>
<!-- 20&#45;&gt;10 -->
<g id="edge75" class="edge"><title>20&#45;&gt;10</title>
<path fill="none" stroke="blue" stroke-dasharray="5,2" d="M657.959,-513.817C675.558,-526.644 702.157,-546.03 723.36,-561.482"/>
<polygon fill="blue" stroke="blue" points="721.341,-564.342 731.484,-567.404 725.464,-558.685 721.341,-564.342"/>
</g>
<!-- 20&#45;&gt;38 -->
<g id="edge87" class="edge"><title>20&#45;&gt;38</title>
<path fill="none" stroke="blue" stroke-dasharray="5,2" d="M619.669,-513.627C601.2,-526.646 572.969,-546.547 550.781,-562.187"/>
<polygon fill="blue" stroke="blue" points="548.763,-559.327 542.607,-567.949 552.797,-565.049 548.763,-559.327"/>
</g>
<!-- 20&#45;&gt;21 -->
<g id="edge95" class="edge"><title>20&#45;&gt;21</title>
<path fill="none" stroke="blue" stroke-dasharray="5,2" d="M619.108,-513.435C612.313,-517.586 604.526,-521.881 597,-525 559.985,-540.341 449.635,-565.681 392.367,-578.327"/>
<polygon fill="blue" stroke="blue" points="391.337,-574.969 382.321,-580.535 392.839,-581.806 391.337,-574.969"/>
</g>
<!-- 20&#45;&gt;0 -->
<g id="edge108" class="edge"><title>20&#45;&gt;0</title>
<path fill="none" stroke="blue" stroke-dasharray="5,2" d="M668.5,-507.332C731.921,-523.096 881.033,-560.158 949.498,-577.176"/>
<polygon fill="blue" stroke="blue" points="948.833,-580.617 959.382,-579.633 950.522,-573.824 948.833,-580.617"/>
</g>
<!-- 20&#45;&gt;8 -->
<g id="edge126" class="edge"><title>20&#45;&gt;8</title>
<path fill="none" stroke="blue" stroke-dasharray="5,2" d="M670.595,-504.671C735.828,-514.403 890.097,-537.874 1019,-561 1049.68,-566.503 1084.41,-573.448 1109.63,-578.621"/>
<polygon fill="blue" stroke="blue" points="1108.97,-582.059 1119.47,-580.649 1110.38,-575.203 1108.97,-582.059"/>
</g>
<!-- 20&#45;&gt;7 -->
<g id="edge135" class="edge"><title>20&#45;&gt;7</title>
<path fill="none" stroke="blue" stroke-dasharray="5,2" d="M645.978,-516.908C657.564,-542.593 683.384,-590.795 722,-613 813.9,-665.845 1147.17,-672.987 1257.36,-673.891"/>
<polygon fill="blue" stroke="blue" points="1257.58,-677.392 1267.61,-673.962 1257.63,-670.392 1257.58,-677.392"/>
</g>
<!-- 22 -->
<g id="node16" class="node"><title>22</title>
<ellipse fill="lightgrey" stroke="lightgrey" cx="1580" cy="-335" rx="33.2948" ry="18"/>
<text text-anchor="middle" x="1580" y="-331.3" font-family="Times,serif" font-size="14.00">4.3.26</text>
</g>
<!-- 22&#45;&gt;4 -->
<g id="edge38" class="edge"><title>22&#45;&gt;4</title>
<path fill="none" stroke="blue" stroke-dasharray="5,2" d="M1593.03,-351.813C1601.1,-362.665 1610.71,-377.802 1615,-393 1620.32,-411.819 1619.05,-417.868 1615,-437 1606.18,-478.711 1584.87,-522.944 1568.84,-552.278"/>
<polygon fill="blue" stroke="blue" points="1565.64,-550.816 1563.84,-561.256 1571.76,-554.221 1565.64,-550.816"/>
</g>
<!-- 22&#45;&gt;18 -->
<g id="edge46" class="edge"><title>22&#45;&gt;18</title>
<path fill="none" stroke="blue" stroke-dasharray="5,2" d="M1548.47,-340.938C1459.01,-354.951 1204.22,-394.858 1114.08,-408.976"/>
<polygon fill="blue" stroke="blue" points="1113.5,-405.523 1104.17,-410.528 1114.59,-412.438 1113.5,-405.523"/>
</g>
<!-- 22&#45;&gt;39 -->
<g id="edge91" class="edge"><title>22&#45;&gt;39</title>
<path fill="none" stroke="blue" stroke-dasharray="5,2" d="M1559.23,-349.316C1542.31,-360.425 1518.04,-376.971 1498,-393 1475.4,-411.078 1474.38,-421.403 1450,-437 1415.1,-459.332 1400.8,-453.957 1364,-473 1362.2,-473.931 1360.37,-474.917 1358.54,-475.936"/>
<polygon fill="blue" stroke="blue" points="1356.34,-473.172 1349.46,-481.233 1359.86,-479.218 1356.34,-473.172"/>
</g>
<!-- 22&#45;&gt;47 -->
<g id="edge93" class="edge"><title>22&#45;&gt;47</title>
<path fill="none" stroke="blue" stroke-dasharray="5,2" d="M1612.62,-339.044C1724.15,-349.529 2083.94,-383.992 2092,-393 2130.76,-436.316 2110.73,-509.242 2093.68,-551.967"/>
<polygon fill="blue" stroke="blue" points="2090.37,-550.795 2089.77,-561.373 2096.84,-553.478 2090.37,-550.795"/>
</g>
<!-- 22&#45;&gt;0 -->
<g id="edge115" class="edge"><title>22&#45;&gt;0</title>
<path fill="none" stroke="blue" stroke-dasharray="5,2" d="M1566.64,-351.818C1545.52,-376.611 1505.07,-423.221 1488,-437 1463.2,-457.012 1452.49,-455.287 1426,-473 1394.37,-494.15 1393.06,-510.237 1358,-525 1255.35,-568.219 1219.76,-542.072 1110,-561 1079.66,-566.233 1045.38,-573.161 1020.4,-578.397"/>
<polygon fill="blue" stroke="blue" points="1019.37,-575.039 1010.3,-580.528 1020.81,-581.888 1019.37,-575.039"/>
</g>
<!-- 24 -->
<g id="node17" class="node"><title>24</title>
<polygon fill="salmon" stroke="salmon" points="1448.15,-75.6079 1407,-88.1475 1365.85,-75.6079 1381.57,-55.3184 1432.43,-55.3184 1448.15,-75.6079"/>
<polygon fill="none" stroke="salmon" points="1454.9,-77.7628 1407,-92.362 1359.1,-77.7628 1379.61,-51.2856 1434.39,-51.2856 1454.9,-77.7628"/>
<text text-anchor="middle" x="1407" y="-66.3" font-family="Times,serif" font-size="14.00">4.3.22</text>
</g>
<!-- 34 -->
<g id="node22" class="node"><title>34</title>
<ellipse fill="lightgrey" stroke="lightgrey" cx="1573" cy="-415" rx="33.2948" ry="18"/>
<text text-anchor="middle" x="1573" y="-411.3" font-family="Times,serif" font-size="14.00">4.3.27</text>
</g>
<!-- 24&#45;&gt;34 -->
<g id="edge2" class="edge"><title>24&#45;&gt;34</title>
<path fill="none" stroke="blue" d="M1424.43,-87.2003C1472.11,-131.984 1602.4,-257.788 1622,-313 1628.54,-331.429 1628.8,-338.664 1622,-357 1617.06,-370.324 1607.46,-382.626 1598.05,-392.364"/>
<polygon fill="blue" stroke="blue" points="1595.36,-390.106 1590.64,-399.596 1600.25,-395.115 1595.36,-390.106"/>
</g>
<!-- 27 -->
<g id="node18" class="node"><title>27</title>
<ellipse fill="lightgrey" stroke="lightgrey" cx="1819" cy="-499" rx="33.2948" ry="18"/>
<text text-anchor="middle" x="1819" y="-495.3" font-family="Times,serif" font-size="14.00">4.3.31</text>
</g>
<!-- 24&#45;&gt;27 -->
<g id="edge4" class="edge"><title>24&#45;&gt;27</title>
<path fill="none" stroke="blue" d="M1425.14,-86.9348C1436.05,-96.1874 1450.42,-107.796 1464,-117 1491.01,-135.311 1501.7,-133.674 1528,-153 1653.41,-245.162 1698.62,-262.223 1783,-393 1798.6,-417.184 1808.25,-448.886 1813.59,-471.104"/>
<polygon fill="blue" stroke="blue" points="1810.18,-471.9 1815.8,-480.879 1817,-470.353 1810.18,-471.9"/>
</g>
<!-- 24&#45;&gt;47 -->
<g id="edge14" class="edge"><title>24&#45;&gt;47</title>
<path fill="none" stroke="red" stroke-width="2" d="M1422.9,-87.6484C1433.55,-97.7719 1448.44,-110.049 1464,-117 1637.08,-194.326 2306,-64.4283 2306,-254 2306,-254 2306,-254 2306,-416 2306,-466.881 2308.62,-490.739 2271,-525 2218.61,-572.712 2178.37,-532.32 2112.74,-559.327"/>
<polygon fill="red" stroke="red" points="2110.97,-556.286 2103.3,-563.601 2113.86,-562.662 2110.97,-556.286"/>
</g>
<!-- 24&#45;&gt;17 -->
<g id="edge24" class="edge"><title>24&#45;&gt;17</title>
<path fill="none" stroke="blue" d="M1422.16,-87.8327C1432.74,-98.309 1447.81,-110.911 1464,-117 1648.43,-186.381 2174.94,-62.5481 2350,-153 2400.39,-179.035 2428,-197.283 2428,-254 2428,-254 2428,-254 2428,-416 2428,-465.175 2441.94,-488.49 2409,-525 2365.13,-573.618 2285.78,-584.692 2236.44,-586.563"/>
<polygon fill="blue" stroke="blue" points="2236.29,-583.065 2226.38,-586.833 2236.47,-590.063 2236.29,-583.065"/>
</g>
<!-- 24&#45;&gt;5 -->
<g id="edge40" class="edge"><title>24&#45;&gt;5</title>
<path fill="none" stroke="blue" d="M1362.59,-73.3193C1243,-80.1748 916.9,-103.067 823,-153 685.419,-226.162 596.054,-404.102 566.128,-471.518"/>
<polygon fill="blue" stroke="blue" points="562.783,-470.432 561.99,-480.997 569.198,-473.232 562.783,-470.432"/>
</g>
<!-- 45 -->
<g id="node30" class="node"><title>45</title>
<ellipse fill="lightgrey" stroke="lightgrey" cx="1941" cy="-499" rx="33.2948" ry="18"/>
<text text-anchor="middle" x="1941" y="-495.3" font-family="Times,serif" font-size="14.00">4.3.33</text>
</g>
<!-- 24&#45;&gt;45 -->
<g id="edge57" class="edge"><title>24&#45;&gt;45</title>
<path fill="none" stroke="blue" d="M1423.79,-87.2683C1434.57,-96.9883 1449.26,-108.967 1464,-117 1508.8,-141.415 1527.76,-129.418 1573,-153 1733.21,-236.507 1874.18,-409.466 1922.89,-473.479"/>
<polygon fill="blue" stroke="blue" points="1920.32,-475.892 1929.14,-481.767 1925.91,-471.676 1920.32,-475.892"/>
</g>
<!-- 33 -->
<g id="node21" class="node"><title>33</title>
<ellipse fill="lightgrey" stroke="lightgrey" cx="2367" cy="-499" rx="33.2948" ry="18"/>
<text text-anchor="middle" x="2367" y="-495.3" font-family="Times,serif" font-size="14.00">4.3.35</text>
</g>
<!-- 24&#45;&gt;33 -->
<g id="edge88" class="edge"><title>24&#45;&gt;33</title>
<path fill="none" stroke="blue" d="M1422.16,-87.8251C1432.74,-98.2982 1447.82,-110.899 1464,-117 1553.08,-150.581 2243.62,-96.1788 2320,-153 2358.12,-181.357 2355,-206.492 2355,-254 2355,-254 2355,-254 2355,-336 2355,-383.635 2360.22,-438.934 2363.78,-471.047"/>
<polygon fill="blue" stroke="blue" points="2360.3,-471.464 2364.91,-481.004 2367.26,-470.673 2360.3,-471.464"/>
</g>
<!-- 24&#45;&gt;18 -->
<g id="edge89" class="edge"><title>24&#45;&gt;18</title>
<path fill="none" stroke="red" stroke-width="2" d="M1364.96,-79.5253C1319.65,-90.3934 1247.28,-112.784 1197,-153 1130,-206.59 1116.92,-231.875 1089,-313 1081.26,-335.503 1079.74,-362.456 1080.04,-382.856"/>
<polygon fill="red" stroke="red" points="1076.54,-382.977 1080.34,-392.869 1083.54,-382.77 1076.54,-382.977"/>
</g>
<!-- 24&#45;&gt;20 -->
<g id="edge94" class="edge"><title>24&#45;&gt;20</title>
<path fill="none" stroke="blue" d="M1362.58,-73.4608C1250.73,-80.3497 960.626,-102.709 880,-153 753.192,-232.097 675.162,-405.065 648.922,-471.387"/>
<polygon fill="blue" stroke="blue" points="645.514,-470.496 645.156,-481.085 652.039,-473.03 645.514,-470.496"/>
</g>
<!-- 24&#45;&gt;19 -->
<g id="edge103" class="edge"><title>24&#45;&gt;19</title>
<path fill="none" stroke="blue" d="M1401.88,-90.9326C1393.41,-123.899 1376.48,-189.818 1366.95,-226.954"/>
<polygon fill="blue" stroke="blue" points="1363.45,-226.495 1364.35,-237.051 1370.23,-228.236 1363.45,-226.495"/>
</g>
<!-- 24&#45;&gt;39 -->
<g id="edge114" class="edge"><title>24&#45;&gt;39</title>
<path fill="none" stroke="red" stroke-width="2" d="M1412.25,-90.875C1420.61,-124.302 1436,-194.008 1436,-254 1436,-254 1436,-254 1436,-336 1436,-365.128 1386.39,-427.243 1353.2,-465.533"/>
<polygon fill="red" stroke="red" points="1350.34,-463.489 1346.4,-473.322 1355.61,-468.096 1350.34,-463.489"/>
</g>
<!-- 28 -->
<g id="node19" class="node"><title>28</title>
<polygon fill="yellowgreen" stroke="yellowgreen" points="933,-277 889,-277 889,-233 933,-233 933,-277"/>
<text text-anchor="middle" x="911" y="-251.3" font-family="Times,serif" font-size="14.00">4.4.6</text>
</g>
<!-- 24&#45;&gt;28 -->
<g id="edge116" class="edge"><title>24&#45;&gt;28</title>
<path fill="none" stroke="red" stroke-width="2" d="M1361.42,-74.8498C1290.26,-82.2387 1149.74,-102.425 1042,-153 1002.89,-171.358 964.51,-203.018 939.505,-226.007"/>
<polygon fill="red" stroke="red" points="937.109,-223.456 932.188,-232.839 941.886,-228.572 937.109,-223.456"/>
</g>
<!-- 24&#45;&gt;29 -->
<g id="edge128" class="edge"><title>24&#45;&gt;29</title>
<path fill="none" stroke="red" stroke-width="2" d="M1374.16,-82.3393C1338.98,-95.5654 1282.71,-119.912 1242,-153 1190.63,-194.754 1152.56,-263.809 1133.56,-303.461"/>
<polygon fill="red" stroke="red" points="1130.22,-302.334 1129.14,-312.873 1136.56,-305.307 1130.22,-302.334"/>
</g>
<!-- 24&#45;&gt;22 -->
<g id="edge132" class="edge"><title>24&#45;&gt;22</title>
<path fill="none" stroke="blue" d="M1418.89,-89.0771C1449.2,-135.154 1529.38,-257.048 1563.86,-309.467"/>
<polygon fill="blue" stroke="blue" points="1560.95,-311.408 1569.37,-317.839 1566.8,-307.561 1560.95,-311.408"/>
</g>
<!-- 37 -->
<g id="node25" class="node"><title>37</title>
<polygon fill="yellowgreen" stroke="yellowgreen" points="933,-197 889,-197 889,-153 933,-153 933,-197"/>
<text text-anchor="middle" x="911" y="-171.3" font-family="Times,serif" font-size="14.00">4.4.5</text>
</g>
<!-- 24&#45;&gt;37 -->
<g id="edge133" class="edge"><title>24&#45;&gt;37</title>
<path fill="none" stroke="red" stroke-width="2" d="M1360.02,-77.9724C1280.36,-90.2314 1114,-117.726 976,-153 965.029,-155.804 953.2,-159.438 942.678,-162.893"/>
<polygon fill="red" stroke="red" points="941.431,-159.619 933.062,-166.117 943.656,-166.256 941.431,-159.619"/>
</g>
<!-- 40 -->
<g id="node28" class="node"><title>40</title>
<ellipse fill="lightgrey" stroke="lightgrey" cx="1284" cy="-175" rx="33.2948" ry="18"/>
<text text-anchor="middle" x="1284" y="-171.3" font-family="Times,serif" font-size="14.00">4.3.23</text>
</g>
<!-- 24&#45;&gt;40 -->
<g id="edge139" class="edge"><title>24&#45;&gt;40</title>
<path fill="none" stroke="blue" d="M1388.32,-86.6435C1367.16,-104.364 1332.57,-133.328 1309.07,-153.004"/>
<polygon fill="blue" stroke="blue" points="1306.68,-150.439 1301.26,-159.543 1311.18,-155.806 1306.68,-150.439"/>
</g>
<!-- 27&#45;&gt;8 -->
<g id="edge20" class="edge"><title>27&#45;&gt;8</title>
<path fill="none" stroke="blue" stroke-dasharray="5,2" d="M1786.95,-504.09C1674.45,-518.445 1298.09,-566.467 1180.45,-581.477"/>
<polygon fill="blue" stroke="blue" points="1180,-578.006 1170.52,-582.744 1180.88,-584.95 1180,-578.006"/>
</g>
<!-- 27&#45;&gt;36 -->
<g id="edge30" class="edge"><title>27&#45;&gt;36</title>
<path fill="none" stroke="blue" stroke-dasharray="5,2" d="M1829.91,-516.176C1836.89,-526.534 1846.21,-540.349 1854.71,-552.956"/>
<polygon fill="blue" stroke="blue" points="1851.94,-555.099 1860.43,-561.433 1857.74,-551.185 1851.94,-555.099"/>
</g>
<!-- 27&#45;&gt;2 -->
<g id="edge54" class="edge"><title>27&#45;&gt;2</title>
<path fill="none" stroke="blue" stroke-dasharray="5,2" d="M1842.08,-511.958C1870.22,-526.534 1918.02,-551.301 1950.53,-568.14"/>
<polygon fill="blue" stroke="blue" points="1949.18,-571.385 1959.67,-572.877 1952.4,-565.169 1949.18,-571.385"/>
</g>
<!-- 35 -->
<g id="node23" class="node"><title>35</title>
<polygon fill="yellowgreen" stroke="yellowgreen" points="1792.5,-612.5 1741.5,-612.5 1741.5,-561.5 1792.5,-561.5 1792.5,-612.5"/>
<text text-anchor="middle" x="1767" y="-583.3" font-family="Times,serif" font-size="14.00">4.4.18</text>
</g>
<!-- 27&#45;&gt;35 -->
<g id="edge81" class="edge"><title>27&#45;&gt;35</title>
<path fill="none" stroke="blue" stroke-dasharray="5,2" d="M1808.97,-516.582C1802.8,-526.794 1794.66,-540.251 1787.2,-552.597"/>
<polygon fill="blue" stroke="blue" points="1784.1,-550.959 1781.92,-561.327 1790.09,-554.581 1784.1,-550.959"/>
</g>
<!-- 27&#45;&gt;16 -->
<g id="edge100" class="edge"><title>27&#45;&gt;16</title>
<path fill="none" stroke="blue" stroke-dasharray="5,2" d="M1799.22,-513.683C1781.52,-525.964 1754.93,-544.538 1732,-561 1731.91,-561.061 1731.83,-561.123 1731.74,-561.185"/>
<polygon fill="blue" stroke="blue" points="1729.62,-558.4 1723.57,-567.1 1733.73,-564.069 1729.62,-558.4"/>
</g>
<!-- 27&#45;&gt;7 -->
<g id="edge137" class="edge"><title>27&#45;&gt;7</title>
<path fill="none" stroke="blue" stroke-dasharray="5,2" d="M1821.94,-516.994C1825.18,-541.904 1826.91,-588.069 1801,-613 1766.97,-645.746 1438.9,-666.183 1328.81,-672.163"/>
<polygon fill="blue" stroke="blue" points="1328.36,-668.682 1318.56,-672.712 1328.73,-675.672 1328.36,-668.682"/>
</g>
<!-- 27&#45;&gt;38 -->
<g id="edge140" class="edge"><title>27&#45;&gt;38</title>
<path fill="none" stroke="blue" stroke-dasharray="5,2" d="M1786.17,-501.796C1606.48,-511.629 749.209,-558.587 722,-561 662.37,-566.288 593.32,-575.313 552.503,-580.95"/>
<polygon fill="blue" stroke="blue" points="551.933,-577.496 542.511,-582.341 552.898,-584.429 551.933,-577.496"/>
</g>
<!-- 27&#45;&gt;47 -->
<g id="edge143" class="edge"><title>27&#45;&gt;47</title>
<path fill="none" stroke="blue" stroke-dasharray="5,2" d="M1847.11,-508.872C1862.44,-513.686 1881.75,-519.717 1899,-525 1952.24,-541.304 1966.62,-542.11 2019,-561 2026.96,-563.871 2035.4,-567.243 2043.33,-570.565"/>
<polygon fill="blue" stroke="blue" points="2042.11,-573.851 2052.69,-574.555 2044.86,-567.413 2042.11,-573.851"/>
</g>
<!-- 28&#45;&gt;0 -->
<g id="edge5" class="edge"><title>28&#45;&gt;0</title>
<path fill="none" stroke="blue" stroke-dasharray="5,2" d="M888.937,-276.888C879.988,-286.858 870.672,-299.541 866,-313 847.926,-365.063 852.383,-383.598 866,-437 877.008,-480.17 885.98,-490.363 914,-525 924.816,-538.37 938.821,-551.109 951.532,-561.455"/>
<polygon fill="blue" stroke="blue" points="949.64,-564.422 959.651,-567.891 953.988,-558.936 949.64,-564.422"/>
</g>
<!-- 28&#45;&gt;39 -->
<g id="edge23" class="edge"><title>28&#45;&gt;39</title>
<path fill="none" stroke="blue" stroke-dasharray="5,2" d="M917.849,-277.147C925.462,-298.626 939.206,-332.173 958,-357 990.908,-400.471 1002.27,-412.546 1051,-437 1129.94,-476.617 1234.51,-490.731 1288.45,-495.583"/>
<polygon fill="blue" stroke="blue" points="1288.28,-499.081 1298.54,-496.435 1288.87,-492.106 1288.28,-499.081"/>
</g>
<!-- 28&#45;&gt;4 -->
<g id="edge33" class="edge"><title>28&#45;&gt;4</title>
<path fill="none" stroke="blue" stroke-dasharray="5,2" d="M933.201,-258.959C976.392,-265.212 1074.22,-281.824 1151,-313 1279.53,-365.189 1306.65,-391.621 1419,-473 1453.9,-498.278 1490.7,-530.9 1516.2,-554.59"/>
<polygon fill="blue" stroke="blue" points="1514.04,-557.365 1523.74,-561.638 1518.82,-552.252 1514.04,-557.365"/>
</g>
<!-- 28&#45;&gt;18 -->
<g id="edge39" class="edge"><title>28&#45;&gt;18</title>
<path fill="none" stroke="blue" stroke-dasharray="5,2" d="M928.424,-277.241C946.336,-298.497 975.552,-331.6 1004,-357 1018.85,-370.26 1036.7,-383.478 1051.57,-393.842"/>
<polygon fill="blue" stroke="blue" points="1049.72,-396.814 1059.94,-399.594 1053.68,-391.045 1049.72,-396.814"/>
</g>
<!-- 28&#45;&gt;47 -->
<g id="edge64" class="edge"><title>28&#45;&gt;47</title>
<path fill="none" stroke="blue" stroke-dasharray="5,2" d="M933.223,-256.802C1021.04,-260.176 1352.25,-274.855 1622,-313 1719.01,-326.717 1741.36,-340.921 1838,-357 1899.45,-367.224 2072.88,-348.047 2116,-393 2156.67,-435.395 2141.36,-469.193 2123,-525 2119.73,-534.938 2114.15,-544.587 2108.01,-553.167"/>
<polygon fill="blue" stroke="blue" points="2105.04,-551.291 2101.75,-561.363 2110.61,-555.54 2105.04,-551.291"/>
</g>
<!-- 28&#45;&gt;9 -->
<g id="edge70" class="edge"><title>28&#45;&gt;9</title>
<path fill="none" stroke="blue" stroke-dasharray="5,2" d="M888.993,-255.35C825.688,-254.241 638.653,-256.336 498,-313 399.025,-352.873 369.192,-378.837 319,-473 305.889,-497.597 297.932,-528.234 293.368,-551.4"/>
<polygon fill="blue" stroke="blue" points="289.883,-550.999 291.504,-561.469 296.766,-552.274 289.883,-550.999"/>
</g>
<!-- 28&#45;&gt;10 -->
<g id="edge78" class="edge"><title>28&#45;&gt;10</title>
<path fill="none" stroke="blue" stroke-dasharray="5,2" d="M888.751,-272.655C876.179,-283.057 861.022,-297.409 851,-313 801.32,-390.282 774.594,-496.838 763.419,-551.138"/>
<polygon fill="blue" stroke="blue" points="759.921,-550.784 761.39,-561.277 766.785,-552.159 759.921,-550.784"/>
</g>
<!-- 28&#45;&gt;8 -->
<g id="edge83" class="edge"><title>28&#45;&gt;8</title>
<path fill="none" stroke="blue" stroke-dasharray="5,2" d="M912.165,-277.228C913.911,-298.184 918.251,-330.8 929,-357 966.847,-449.249 1060.46,-526.321 1111.12,-562.995"/>
<polygon fill="blue" stroke="blue" points="1109.3,-565.99 1119.47,-568.95 1113.36,-560.292 1109.3,-565.99"/>
</g>
<!-- 28&#45;&gt;7 -->
<g id="edge112" class="edge"><title>28&#45;&gt;7</title>
<path fill="none" stroke="blue" stroke-dasharray="5,2" d="M888.71,-256.424C802.691,-258.376 492.875,-268.427 407,-313 273.977,-382.046 150.172,-503.964 253,-613 288.228,-650.355 1079.47,-669.44 1257.6,-673.272"/>
<polygon fill="blue" stroke="blue" points="1257.67,-676.774 1267.74,-673.488 1257.82,-669.776 1257.67,-676.774"/>
</g>
<!-- 28&#45;&gt;29 -->
<g id="edge120" class="edge"><title>28&#45;&gt;29</title>
<path fill="none" stroke="blue" stroke-dasharray="5,2" d="M933.367,-264.347C970.608,-278.246 1045.44,-306.175 1088.17,-322.122"/>
<polygon fill="blue" stroke="blue" points="1087.2,-325.495 1097.79,-325.713 1089.65,-318.937 1087.2,-325.495"/>
</g>
<!-- 28&#45;&gt;38 -->
<g id="edge129" class="edge"><title>28&#45;&gt;38</title>
<path fill="none" stroke="blue" stroke-dasharray="5,2" d="M888.954,-259.093C815.036,-270.785 575.343,-319.714 481,-473 465.88,-497.566 478.092,-529.088 492.248,-552.594"/>
<polygon fill="blue" stroke="blue" points="489.392,-554.625 497.716,-561.18 495.296,-550.865 489.392,-554.625"/>
</g>
<!-- 28&#45;&gt;21 -->
<g id="edge142" class="edge"><title>28&#45;&gt;21</title>
<path fill="none" stroke="blue" stroke-dasharray="5,2" d="M888.994,-257.728C837.404,-262.272 705.152,-276.798 601,-313 529.262,-337.935 509.877,-346.28 450,-393 412.287,-422.426 399.163,-430.101 378,-473 365.905,-497.519 360.741,-528.162 358.554,-551.349"/>
<polygon fill="blue" stroke="blue" points="355.056,-551.182 357.744,-561.43 362.034,-551.742 355.056,-551.182"/>
</g>
<!-- 29&#45;&gt;18 -->
<g id="edge6" class="edge"><title>29&#45;&gt;18</title>
<path fill="none" stroke="blue" stroke-dasharray="5,2" d="M1109.62,-357.314C1105.65,-365.463 1101.04,-374.918 1096.74,-383.744"/>
<polygon fill="blue" stroke="blue" points="1093.47,-382.459 1092.24,-392.982 1099.77,-385.525 1093.47,-382.459"/>
</g>
<!-- 29&#45;&gt;38 -->
<g id="edge19" class="edge"><title>29&#45;&gt;38</title>
<path fill="none" stroke="blue" stroke-dasharray="5,2" d="M1097.83,-337.278C995.829,-343.661 573.25,-375.74 495,-473 477.193,-495.133 485.941,-527.522 497.245,-551.956"/>
<polygon fill="blue" stroke="blue" points="494.257,-553.81 501.826,-561.223 500.533,-550.708 494.257,-553.81"/>
</g>
<!-- 29&#45;&gt;8 -->
<g id="edge51" class="edge"><title>29&#45;&gt;8</title>
<path fill="none" stroke="blue" stroke-dasharray="5,2" d="M1122.13,-357.315C1126.45,-400.508 1136.27,-498.713 1141.53,-551.275"/>
<polygon fill="blue" stroke="blue" points="1138.07,-551.854 1142.55,-561.456 1145.03,-551.157 1138.07,-551.854"/>
</g>
<!-- 29&#45;&gt;21 -->
<g id="edge55" class="edge"><title>29&#45;&gt;21</title>
<path fill="none" stroke="blue" stroke-dasharray="5,2" d="M1097.89,-336.879C1005.65,-340.746 651.389,-357.653 546,-393 481.321,-414.693 461.421,-423.009 415,-473 393.899,-495.724 378.479,-527.58 368.866,-551.679"/>
<polygon fill="blue" stroke="blue" points="365.545,-550.563 365.223,-561.153 372.079,-553.075 365.545,-550.563"/>
</g>
<!-- 29&#45;&gt;9 -->
<g id="edge71" class="edge"><title>29&#45;&gt;9</title>
<path fill="none" stroke="blue" stroke-dasharray="5,2" d="M1097.74,-335.73C995.088,-334.807 567.467,-334.593 450,-393 380.555,-427.53 329.601,-506.795 304.832,-552.275"/>
<polygon fill="blue" stroke="blue" points="301.707,-550.697 300.089,-561.168 307.883,-553.992 301.707,-550.697"/>
</g>
<!-- 29&#45;&gt;10 -->
<g id="edge79" class="edge"><title>29&#45;&gt;10</title>
<path fill="none" stroke="blue" stroke-dasharray="5,2" d="M1097.92,-344.226C1071.71,-354.331 1027.03,-372.656 991,-393 937.1,-423.432 924.988,-433.905 877,-473 845.57,-498.606 812.177,-530.477 788.619,-553.837"/>
<polygon fill="blue" stroke="blue" points="785.941,-551.565 781.331,-561.104 790.884,-556.522 785.941,-551.565"/>
</g>
<!-- 29&#45;&gt;16 -->
<g id="edge80" class="edge"><title>29&#45;&gt;16</title>
<path fill="none" stroke="blue" stroke-dasharray="5,2" d="M1142.08,-335.695C1227.96,-334.929 1538.66,-336.2 1615,-393 1666.07,-430.994 1686.08,-506.873 1693.65,-551.331"/>
<polygon fill="blue" stroke="blue" points="1690.22,-552.051 1695.24,-561.382 1697.13,-550.958 1690.22,-552.051"/>
</g>
<!-- 29&#45;&gt;7 -->
<g id="edge85" class="edge"><title>29&#45;&gt;7</title>
<path fill="none" stroke="blue" stroke-dasharray="5,2" d="M1130.82,-357.143C1159.93,-414.013 1240.09,-570.622 1275.63,-640.073"/>
<polygon fill="blue" stroke="blue" points="1272.67,-641.967 1280.34,-649.274 1278.9,-638.778 1272.67,-641.967"/>
</g>
<!-- 29&#45;&gt;39 -->
<g id="edge86" class="edge"><title>29&#45;&gt;39</title>
<path fill="none" stroke="blue" stroke-dasharray="5,2" d="M1142.28,-355.706C1154.62,-366.649 1170.2,-380.531 1184,-393 1205.47,-412.402 1209.2,-419.171 1232,-437 1242.42,-445.146 1268.33,-462.233 1290.01,-476.256"/>
<polygon fill="blue" stroke="blue" points="1288.38,-479.368 1298.68,-481.846 1292.17,-473.485 1288.38,-479.368"/>
</g>
<!-- 29&#45;&gt;47 -->
<g id="edge123" class="edge"><title>29&#45;&gt;47</title>
<path fill="none" stroke="blue" stroke-dasharray="5,2" d="M1142.08,-337.723C1276.63,-348.42 1982.86,-407.444 2051,-473 2071.73,-492.946 2077.74,-525.741 2079,-550.877"/>
<polygon fill="blue" stroke="blue" points="2075.51,-551.22 2079.28,-561.121 2082.51,-551.03 2075.51,-551.22"/>
</g>
<!-- 29&#45;&gt;0 -->
<g id="edge130" class="edge"><title>29&#45;&gt;0</title>
<path fill="none" stroke="blue" stroke-dasharray="5,2" d="M1097.82,-343.08C1074.81,-351.5 1039.27,-367.687 1018,-393 980.497,-437.621 978.428,-509.053 981.151,-551.363"/>
<polygon fill="blue" stroke="blue" points="977.671,-551.756 981.928,-561.458 984.65,-551.219 977.671,-551.756"/>
</g>
<!-- 29&#45;&gt;4 -->
<g id="edge138" class="edge"><title>29&#45;&gt;4</title>
<path fill="none" stroke="blue" stroke-dasharray="5,2" d="M1142.37,-348.312C1163.08,-359.762 1194.72,-377.359 1222,-393 1329.7,-454.759 1455.91,-530.104 1515.11,-565.62"/>
<polygon fill="blue" stroke="blue" points="1513.31,-568.621 1523.69,-570.767 1516.91,-562.62 1513.31,-568.621"/>
</g>
<!-- 33&#45;&gt;46 -->
<g id="edge3" class="edge"><title>33&#45;&gt;46</title>
<path fill="none" stroke="blue" stroke-dasharray="5,2" d="M2358.37,-516.684C2343.69,-545.07 2313.58,-603.286 2294.39,-640.386"/>
<polygon fill="blue" stroke="blue" points="2291.24,-638.842 2289.76,-649.333 2297.46,-642.058 2291.24,-638.842"/>
</g>
<!-- 33&#45;&gt;47 -->
<g id="edge7" class="edge"><title>33&#45;&gt;47</title>
<path fill="none" stroke="blue" stroke-dasharray="5,2" d="M2345.64,-513.174C2337.82,-517.507 2328.74,-521.982 2320,-525 2233.81,-554.775 2203.1,-528.238 2118,-561 2116.17,-561.706 2114.32,-562.5 2112.49,-563.358"/>
<polygon fill="blue" stroke="blue" points="2110.72,-560.334 2103.5,-568.084 2113.98,-566.531 2110.72,-560.334"/>
</g>
<!-- 33&#45;&gt;36 -->
<g id="edge45" class="edge"><title>33&#45;&gt;36</title>
<path fill="none" stroke="blue" stroke-dasharray="5,2" d="M2334.43,-502.7C2263.69,-509.014 2090.98,-526.859 1950,-561 1937.39,-564.055 1923.87,-568.377 1911.93,-572.571"/>
<polygon fill="blue" stroke="blue" points="1910.55,-569.347 1902.33,-576.033 1912.93,-575.932 1910.55,-569.347"/>
</g>
<!-- 33&#45;&gt;44 -->
<g id="edge49" class="edge"><title>33&#45;&gt;44</title>
<path fill="none" stroke="blue" stroke-dasharray="5,2" d="M2351.66,-514.988C2339.08,-527.303 2320.83,-545.227 2305,-561 2277.75,-588.149 2247.01,-619.199 2224.63,-641.872"/>
<polygon fill="blue" stroke="blue" points="2221.91,-639.645 2217.38,-649.223 2226.9,-644.561 2221.91,-639.645"/>
</g>
<!-- 33&#45;&gt;2 -->
<g id="edge67" class="edge"><title>33&#45;&gt;2</title>
<path fill="none" stroke="blue" stroke-dasharray="5,2" d="M2334.7,-503.679C2275.78,-510.917 2147.28,-529.138 2043,-561 2035.33,-563.343 2027.31,-566.387 2019.77,-569.541"/>
<polygon fill="blue" stroke="blue" points="2018.31,-566.359 2010.53,-573.55 2021.09,-572.781 2018.31,-566.359"/>
</g>
<!-- 33&#45;&gt;7 -->
<g id="edge119" class="edge"><title>33&#45;&gt;7</title>
<path fill="none" stroke="blue" stroke-dasharray="5,2" d="M2345.59,-513.012C2337.76,-517.33 2328.68,-521.836 2320,-525 2247.84,-551.288 2215.71,-519.65 2151,-561 2126.66,-576.555 2137.34,-599.129 2112,-613 2042.6,-650.986 1477.94,-668.957 1328.94,-673.065"/>
<polygon fill="blue" stroke="blue" points="1328.45,-669.577 1318.55,-673.348 1328.64,-676.575 1328.45,-669.577"/>
</g>
<!-- 34&#45;&gt;4 -->
<g id="edge17" class="edge"><title>34&#45;&gt;4</title>
<path fill="none" stroke="blue" stroke-dasharray="5,2" d="M1570.57,-433.236C1566.67,-460.817 1558.97,-515.411 1553.9,-551.307"/>
<polygon fill="blue" stroke="blue" points="1550.41,-550.955 1552.48,-561.347 1557.34,-551.934 1550.41,-550.955"/>
</g>
<!-- 34&#45;&gt;0 -->
<g id="edge50" class="edge"><title>34&#45;&gt;0</title>
<path fill="none" stroke="blue" stroke-dasharray="5,2" d="M1558.47,-431.539C1534.41,-456.146 1483.59,-503.49 1430,-525 1297.18,-578.306 1251.41,-538.946 1110,-561 1079.58,-565.745 1045.3,-572.716 1020.35,-578.092"/>
<polygon fill="blue" stroke="blue" points="1019.29,-574.741 1010.26,-580.288 1020.78,-581.581 1019.29,-574.741"/>
</g>
<!-- 34&#45;&gt;10 -->
<g id="edge73" class="edge"><title>34&#45;&gt;10</title>
<path fill="none" stroke="blue" stroke-dasharray="5,2" d="M1545.21,-424.797C1515.71,-434.651 1468.18,-452.023 1430,-473 1395.4,-492.007 1394.99,-511.215 1358,-525 1187.42,-588.573 1130.97,-541.304 950,-561 894.89,-566.998 831.143,-575.577 792.467,-580.965"/>
<polygon fill="blue" stroke="blue" points="791.67,-577.542 782.252,-582.395 792.64,-584.474 791.67,-577.542"/>
</g>
<!-- 34&#45;&gt;47 -->
<g id="edge122" class="edge"><title>34&#45;&gt;47</title>
<path fill="none" stroke="blue" stroke-dasharray="5,2" d="M1606.2,-416.455C1697.36,-418.289 1949.21,-427.457 2016,-473 2043.05,-491.445 2059.43,-525.716 2068.5,-551.699"/>
<polygon fill="blue" stroke="blue" points="2065.18,-552.796 2071.63,-561.201 2071.83,-550.608 2065.18,-552.796"/>
</g>
<!-- 34&#45;&gt;39 -->
<g id="edge131" class="edge"><title>34&#45;&gt;39</title>
<path fill="none" stroke="blue" stroke-dasharray="5,2" d="M1545.4,-425.089C1499.91,-440.069 1409.26,-469.923 1359.21,-486.403"/>
<polygon fill="blue" stroke="blue" points="1357.88,-483.158 1349.48,-489.61 1360.07,-489.806 1357.88,-483.158"/>
</g>
<!-- 37&#45;&gt;4 -->
<g id="edge16" class="edge"><title>37&#45;&gt;4</title>
<path fill="none" stroke="blue" stroke-dasharray="5,2" d="M933.113,-176.65C1045.38,-180.433 1550.83,-203.431 1651,-313 1714.71,-382.692 1694.65,-450.213 1637,-525 1622.89,-543.305 1601.73,-558.217 1583.69,-568.715"/>
<polygon fill="blue" stroke="blue" points="1581.62,-565.863 1574.6,-573.797 1585.04,-571.973 1581.62,-565.863"/>
</g>
<!-- 37&#45;&gt;39 -->
<g id="edge35" class="edge"><title>37&#45;&gt;39</title>
<path fill="none" stroke="blue" stroke-dasharray="5,2" d="M933.012,-180.784C964.809,-188.368 1024.64,-205.212 1069,-233 1170.44,-296.544 1260.06,-409.133 1300.77,-464.858"/>
<polygon fill="blue" stroke="blue" points="1298.18,-467.249 1306.88,-473.297 1303.85,-463.145 1298.18,-467.249"/>
</g>
<!-- 37&#45;&gt;47 -->
<g id="edge44" class="edge"><title>37&#45;&gt;47</title>
<path fill="none" stroke="blue" stroke-dasharray="5,2" d="M933.239,-177.545C1031.2,-184.42 1424.78,-212.779 1547,-233 1695.46,-257.562 1729.92,-276.865 1876,-313 2017.47,-347.995 2104.4,-278.063 2194,-393 2230.07,-439.268 2226.5,-476.16 2194,-525 2172.84,-556.801 2147.71,-542.29 2112.62,-558.975"/>
<polygon fill="blue" stroke="blue" points="2110.6,-556.089 2103.49,-563.936 2113.94,-562.241 2110.6,-556.089"/>
</g>
<!-- 37&#45;&gt;0 -->
<g id="edge53" class="edge"><title>37&#45;&gt;0</title>
<path fill="none" stroke="blue" stroke-dasharray="5,2" d="M898.443,-197.266C892.468,-207.822 885.456,-220.879 880,-233 864.477,-267.487 857.543,-275.751 851,-313 848.146,-329.249 850.964,-421.382 853,-437 858.198,-476.872 849.625,-493.021 874,-525 892.946,-549.856 925.07,-565.915 949.899,-575.284"/>
<polygon fill="blue" stroke="blue" points="948.759,-578.593 959.354,-578.666 951.117,-572.002 948.759,-578.593"/>
</g>
<!-- 37&#45;&gt;9 -->
<g id="edge69" class="edge"><title>37&#45;&gt;9</title>
<path fill="none" stroke="blue" stroke-dasharray="5,2" d="M888.645,-176.469C831.508,-178.324 676.229,-187.511 557,-233 443.704,-276.225 411.288,-297.941 336,-393 311.319,-424.162 306.494,-434.658 296,-473 289.008,-498.547 287.158,-528.487 286.976,-551.128"/>
<polygon fill="blue" stroke="blue" points="283.476,-551.298 287.001,-561.29 290.476,-551.281 283.476,-551.298"/>
</g>
<!-- 37&#45;&gt;10 -->
<g id="edge77" class="edge"><title>37&#45;&gt;10</title>
<path fill="none" stroke="blue" stroke-dasharray="5,2" d="M888.734,-195.804C878.108,-206.112 865.819,-219.385 857,-233 794.98,-328.744 787.677,-361.002 766,-473 760.996,-498.854 758.764,-528.553 757.774,-551.014"/>
<polygon fill="blue" stroke="blue" points="754.273,-550.971 757.391,-561.097 761.268,-551.237 754.273,-550.971"/>
</g>
<!-- 37&#45;&gt;38 -->
<g id="edge98" class="edge"><title>37&#45;&gt;38</title>
<path fill="none" stroke="blue" stroke-dasharray="5,2" d="M888.558,-182.368C821.725,-202.386 621.554,-270.126 507,-393 465.533,-437.478 451.695,-467.336 471,-525 474.383,-535.103 480.171,-544.872 486.523,-553.522"/>
<polygon fill="blue" stroke="blue" points="483.806,-555.729 492.726,-561.446 489.318,-551.414 483.806,-555.729"/>
</g>
<!-- 37&#45;&gt;18 -->
<g id="edge105" class="edge"><title>37&#45;&gt;18</title>
<path fill="none" stroke="blue" stroke-dasharray="5,2" d="M926.175,-197.121C956.787,-239.727 1025.99,-336.044 1060.95,-384.7"/>
<polygon fill="blue" stroke="blue" points="1058.18,-386.847 1066.86,-392.926 1063.87,-382.763 1058.18,-386.847"/>
</g>
<!-- 37&#45;&gt;29 -->
<g id="edge110" class="edge"><title>37&#45;&gt;29</title>
<path fill="none" stroke="blue" stroke-dasharray="5,2" d="M933.031,-183.238C958.492,-192.282 1000.88,-209.479 1032,-233 1058.7,-253.177 1083.19,-282.583 1099.51,-304.468"/>
<polygon fill="blue" stroke="blue" points="1096.84,-306.742 1105.57,-312.746 1102.49,-302.608 1096.84,-306.742"/>
</g>
<!-- 37&#45;&gt;28 -->
<g id="edge118" class="edge"><title>37&#45;&gt;28</title>
<path fill="none" stroke="blue" stroke-dasharray="5,2" d="M911,-197.314C911,-205.202 911,-214.316 911,-222.897"/>
<polygon fill="blue" stroke="blue" points="907.5,-222.982 911,-232.982 914.5,-222.982 907.5,-222.982"/>
</g>
<!-- 37&#45;&gt;7 -->
<g id="edge121" class="edge"><title>37&#45;&gt;7</title>
<path fill="none" stroke="blue" stroke-dasharray="5,2" d="M888.932,-177.421C749.808,-186.663 0,-240.798 0,-334 0,-334 0,-334 0,-500 0,-608.737 112.155,-584.168 217,-613 419.369,-668.651 1093.4,-673.61 1257,-673.985"/>
<polygon fill="blue" stroke="blue" points="1257.45,-677.486 1267.45,-674.004 1257.46,-670.486 1257.45,-677.486"/>
</g>
<!-- 37&#45;&gt;21 -->
<g id="edge124" class="edge"><title>37&#45;&gt;21</title>
<path fill="none" stroke="blue" stroke-dasharray="5,2" d="M888.831,-178.29C844.263,-183.485 741.296,-198.497 662,-233 504.473,-301.543 431.818,-317.403 359,-473 347.605,-497.349 347.834,-528.004 350.51,-551.24"/>
<polygon fill="blue" stroke="blue" points="347.067,-551.904 351.878,-561.344 354.004,-550.965 347.067,-551.904"/>
</g>
<!-- 39&#45;&gt;47 -->
<g id="edge9" class="edge"><title>39&#45;&gt;47</title>
<path fill="none" stroke="blue" stroke-dasharray="5,2" d="M1349.5,-501.169C1458.81,-506.345 1888.1,-528.388 2019,-561 2027.06,-563.008 2035.43,-565.97 2043.26,-569.16"/>
<polygon fill="blue" stroke="blue" points="2041.9,-572.385 2052.46,-573.115 2044.66,-565.953 2041.9,-572.385"/>
</g>
<!-- 39&#45;&gt;16 -->
<g id="edge15" class="edge"><title>39&#45;&gt;16</title>
<path fill="none" stroke="blue" stroke-dasharray="5,2" d="M1349.41,-505.844C1414.58,-520.828 1587.75,-560.649 1662.66,-577.873"/>
<polygon fill="blue" stroke="blue" points="1662.02,-581.318 1672.55,-580.148 1663.59,-574.496 1662.02,-581.318"/>
</g>
<!-- 39&#45;&gt;7 -->
<g id="edge32" class="edge"><title>39&#45;&gt;7</title>
<path fill="none" stroke="blue" stroke-dasharray="5,2" d="M1319.62,-524.561C1314.29,-554.529 1305.22,-605.388 1299.18,-639.333"/>
<polygon fill="blue" stroke="blue" points="1295.71,-638.824 1297.4,-649.283 1302.6,-640.052 1295.71,-638.824"/>
</g>
<!-- 39&#45;&gt;35 -->
<g id="edge36" class="edge"><title>39&#45;&gt;35</title>
<path fill="none" stroke="blue" stroke-dasharray="5,2" d="M1349.44,-499.743C1415.26,-499.921 1595.56,-505.816 1732,-561 1732.1,-561.04 1732.2,-561.081 1732.3,-561.122"/>
<polygon fill="blue" stroke="blue" points="1730.91,-564.341 1741.41,-565.731 1734.07,-558.095 1730.91,-564.341"/>
</g>
<!-- 39&#45;&gt;9 -->
<g id="edge60" class="edge"><title>39&#45;&gt;9</title>
<path fill="none" stroke="blue" stroke-dasharray="5,2" d="M1298.49,-500.691C1155.56,-504.671 456.094,-525.651 323.319,-561.901"/>
<polygon fill="blue" stroke="blue" points="321.977,-558.654 313.489,-564.994 324.079,-565.331 321.977,-558.654"/>
</g>
<!-- 39&#45;&gt;8 -->
<g id="edge66" class="edge"><title>39&#45;&gt;8</title>
<path fill="none" stroke="blue" stroke-dasharray="5,2" d="M1298.73,-512.139C1267.64,-527.079 1214.68,-552.523 1179.76,-569.298"/>
<polygon fill="blue" stroke="blue" points="1177.93,-566.298 1170.43,-573.784 1180.96,-572.608 1177.93,-566.298"/>
</g>
<!-- 39&#45;&gt;10 -->
<g id="edge76" class="edge"><title>39&#45;&gt;10</title>
<path fill="none" stroke="blue" stroke-dasharray="5,2" d="M1298.54,-503.862C1207.5,-517.671 897.963,-564.619 792.519,-580.613"/>
<polygon fill="blue" stroke="blue" points="791.756,-577.188 782.394,-582.148 792.806,-584.109 791.756,-577.188"/>
</g>
<!-- 39&#45;&gt;0 -->
<g id="edge104" class="edge"><title>39&#45;&gt;0</title>
<path fill="none" stroke="blue" stroke-dasharray="5,2" d="M1298.52,-506.464C1238.62,-521.661 1088.74,-559.682 1020.2,-577.07"/>
<polygon fill="blue" stroke="blue" points="1019.15,-573.727 1010.31,-579.578 1020.87,-580.512 1019.15,-573.727"/>
</g>
<!-- 39&#45;&gt;21 -->
<g id="edge106" class="edge"><title>39&#45;&gt;21</title>
<path fill="none" stroke="blue" stroke-dasharray="5,2" d="M1298.74,-500.677C1196.38,-503.663 802.602,-517.5 482,-561 451.681,-565.114 417.654,-572.075 392.766,-577.609"/>
<polygon fill="blue" stroke="blue" points="391.681,-574.266 382.696,-579.881 393.222,-581.094 391.681,-574.266"/>
</g>
<!-- 39&#45;&gt;4 -->
<g id="edge125" class="edge"><title>39&#45;&gt;4</title>
<path fill="none" stroke="blue" stroke-dasharray="5,2" d="M1349.37,-509.698C1389.74,-525.127 1468.67,-555.294 1514.25,-572.718"/>
<polygon fill="blue" stroke="blue" points="1513.13,-576.036 1523.72,-576.337 1515.63,-569.498 1513.13,-576.036"/>
</g>
<!-- 39&#45;&gt;38 -->
<g id="edge127" class="edge"><title>39&#45;&gt;38</title>
<path fill="none" stroke="blue" stroke-dasharray="5,2" d="M1298.75,-502.373C1215.98,-510.19 945.417,-536.06 722,-561 662.506,-567.641 593.414,-576.254 552.552,-581.441"/>
<polygon fill="blue" stroke="blue" points="552.026,-577.98 542.548,-582.715 552.91,-584.924 552.026,-577.98"/>
</g>
<!-- 39&#45;&gt;36 -->
<g id="edge134" class="edge"><title>39&#45;&gt;36</title>
<path fill="none" stroke="blue" stroke-dasharray="5,2" d="M1349.38,-501.537C1421.08,-506.243 1631.02,-522.543 1801,-561 1814.58,-564.071 1829.17,-568.569 1841.9,-572.906"/>
<polygon fill="blue" stroke="blue" points="1841.07,-576.321 1851.66,-576.319 1843.38,-569.713 1841.07,-576.321"/>
</g>
<!-- 40&#45;&gt;39 -->
<g id="edge31" class="edge"><title>40&#45;&gt;39</title>
<path fill="none" stroke="blue" stroke-dasharray="5,2" d="M1286.15,-193.312C1292.48,-244.275 1311.14,-394.475 1319.66,-463.091"/>
<polygon fill="blue" stroke="blue" points="1316.23,-463.884 1320.94,-473.376 1323.18,-463.021 1316.23,-463.884"/>
</g>
<!-- 40&#45;&gt;29 -->
<g id="edge42" class="edge"><title>40&#45;&gt;29</title>
<path fill="none" stroke="blue" stroke-dasharray="5,2" d="M1268.27,-191.15C1240.92,-217.503 1184.18,-272.171 1149.36,-305.712"/>
<polygon fill="blue" stroke="blue" points="1146.63,-303.48 1141.86,-312.938 1151.49,-308.521 1146.63,-303.48"/>
</g>
<!-- 40&#45;&gt;4 -->
<g id="edge90" class="edge"><title>40&#45;&gt;4</title>
<path fill="none" stroke="blue" stroke-dasharray="5,2" d="M1316.36,-179.337C1415.2,-189.64 1707.44,-220.978 1724,-233 1798.63,-287.192 1791.16,-349.507 1762,-437 1746.54,-483.38 1734.61,-495.013 1696,-525 1662.33,-551.151 1615.84,-567.938 1584.22,-577.149"/>
<polygon fill="blue" stroke="blue" points="1583.2,-573.802 1574.51,-579.876 1585.09,-580.542 1583.2,-573.802"/>
</g>
<!-- 40&#45;&gt;18 -->
<g id="edge99" class="edge"><title>40&#45;&gt;18</title>
<path fill="none" stroke="blue" stroke-dasharray="5,2" d="M1274.38,-192.225C1254.19,-225.465 1204.82,-302.737 1151,-357 1138.97,-369.126 1124.55,-381.348 1112.01,-391.347"/>
<polygon fill="blue" stroke="blue" points="1109.79,-388.644 1104.09,-397.574 1114.11,-394.148 1109.79,-388.644"/>
</g>
<!-- 40&#45;&gt;47 -->
<g id="edge109" class="edge"><title>40&#45;&gt;47</title>
<path fill="none" stroke="blue" stroke-dasharray="5,2" d="M1316.32,-179.019C1409.04,-187.814 1674.7,-213.995 1760,-233 1981.14,-282.271 2111.3,-209.369 2244,-393 2278.36,-440.55 2279.78,-478.511 2244,-525 2207.87,-571.935 2168,-536.507 2112.72,-559.307"/>
<polygon fill="blue" stroke="blue" points="2110.93,-556.282 2103.34,-563.68 2113.88,-562.626 2110.93,-556.282"/>
</g>
<!-- 40&#45;&gt;28 -->
<g id="edge117" class="edge"><title>40&#45;&gt;28</title>
<path fill="none" stroke="blue" stroke-dasharray="5,2" d="M1253.48,-182.383C1183.97,-196.918 1014.43,-232.372 943.274,-247.251"/>
<polygon fill="blue" stroke="blue" points="942.193,-243.901 933.121,-249.374 943.626,-250.753 942.193,-243.901"/>
</g>
<!-- 45&#45;&gt;36 -->
<g id="edge21" class="edge"><title>45&#45;&gt;36</title>
<path fill="none" stroke="blue" stroke-dasharray="5,2" d="M1928.96,-516.176C1921.18,-526.633 1910.78,-540.615 1901.32,-553.319"/>
<polygon fill="blue" stroke="blue" points="1898.44,-551.321 1895.28,-561.433 1904.06,-555.5 1898.44,-551.321"/>
</g>
<!-- 45&#45;&gt;47 -->
<g id="edge27" class="edge"><title>45&#45;&gt;47</title>
<path fill="none" stroke="blue" stroke-dasharray="5,2" d="M1961.81,-513.062C1983.5,-526.68 2017.87,-548.253 2043.61,-564.41"/>
<polygon fill="blue" stroke="blue" points="2041.99,-567.525 2052.32,-569.878 2045.71,-561.597 2041.99,-567.525"/>
</g>
<!-- 45&#45;&gt;16 -->
<g id="edge47" class="edge"><title>45&#45;&gt;16</title>
<path fill="none" stroke="blue" stroke-dasharray="5,2" d="M1913.3,-508.888C1897.92,-513.761 1878.44,-519.842 1861,-525 1806.82,-541.022 1787.49,-535.587 1732.51,-561.439"/>
<polygon fill="blue" stroke="blue" points="1730.84,-558.357 1723.37,-565.865 1733.89,-564.657 1730.84,-558.357"/>
</g>
<!-- 45&#45;&gt;2 -->
<g id="edge52" class="edge"><title>45&#45;&gt;2</title>
<path fill="none" stroke="blue" stroke-dasharray="5,2" d="M1949.48,-516.582C1954.66,-526.694 1961.46,-539.99 1967.73,-552.237"/>
<polygon fill="blue" stroke="blue" points="1964.71,-554.019 1972.38,-561.327 1970.94,-550.83 1964.71,-554.019"/>
</g>
<!-- 45&#45;&gt;7 -->
<g id="edge61" class="edge"><title>45&#45;&gt;7</title>
<path fill="none" stroke="blue" stroke-dasharray="5,2" d="M1941.99,-517.284C1942.39,-542.565 1938.98,-589.196 1911,-613 1866.46,-650.883 1453.66,-668.364 1328.68,-672.818"/>
<polygon fill="blue" stroke="blue" points="1328.38,-669.327 1318.5,-673.175 1328.62,-676.322 1328.38,-669.327"/>
</g>
<!-- 45&#45;&gt;35 -->
<g id="edge101" class="edge"><title>45&#45;&gt;35</title>
<path fill="none" stroke="blue" stroke-dasharray="5,2" d="M1917.17,-511.778C1887.31,-526.537 1835.9,-551.944 1801.68,-568.858"/>
<polygon fill="blue" stroke="blue" points="1799.93,-565.819 1792.52,-573.388 1803.03,-572.095 1799.93,-565.819"/>
</g>
<!-- 45&#45;&gt;46 -->
<g id="edge113" class="edge"><title>45&#45;&gt;46</title>
<path fill="none" stroke="blue" stroke-dasharray="5,2" d="M1973.41,-502.796C2041.39,-509.271 2195.85,-527.37 2235,-561 2257.88,-580.659 2268.31,-614.004 2273.06,-639.39"/>
<polygon fill="blue" stroke="blue" points="2269.62,-640.081 2274.71,-649.374 2276.53,-638.936 2269.62,-640.081"/>
</g>
<!-- 47&#45;&gt;46 -->
<g id="edge22" class="edge"><title>47&#45;&gt;46</title>
<path fill="none" stroke="blue" stroke-dasharray="5,2" d="M2103.29,-597.685C2133.13,-609.265 2184.11,-629.532 2227,-649 2232.08,-651.307 2237.4,-653.838 2242.6,-656.378"/>
<polygon fill="blue" stroke="blue" points="2241.23,-659.604 2251.74,-660.909 2244.34,-653.332 2241.23,-659.604"/>
</g>
<!-- 47&#45;&gt;44 -->
<g id="edge41" class="edge"><title>47&#45;&gt;44</title>
<path fill="none" stroke="blue" stroke-dasharray="5,2" d="M2103.52,-607.086C2119.9,-619.334 2141.35,-635.376 2159.15,-648.683"/>
<polygon fill="blue" stroke="blue" points="2157.44,-651.781 2167.55,-654.967 2161.64,-646.175 2157.44,-651.781"/>
</g>
<!-- 47&#45;&gt;7 -->
<g id="edge62" class="edge"><title>47&#45;&gt;7</title>
<path fill="none" stroke="blue" stroke-dasharray="5,2" d="M2052.47,-600.907C2042.3,-605.488 2030.34,-610.197 2019,-613 1885.67,-645.955 1456.09,-666.896 1328.84,-672.49"/>
<polygon fill="blue" stroke="blue" points="1328.34,-669.009 1318.5,-672.94 1328.64,-676.002 1328.34,-669.009"/>
</g>
<!-- 47&#45;&gt;12 -->
<g id="edge136" class="edge"><title>47&#45;&gt;12</title>
<path fill="none" stroke="blue" stroke-dasharray="5,2" d="M2084.65,-612.875C2086.89,-621.237 2089.42,-630.718 2091.82,-639.675"/>
<polygon fill="blue" stroke="blue" points="2088.48,-640.722 2094.44,-649.478 2095.24,-638.913 2088.48,-640.722"/>
</g>
<!-- Key -->
<g id="node33" class="node"><title>Key</title>
<text text-anchor="start" x="1535" y="-81.3" font-family="Times,serif" font-weight="bold" font-size="14.00">Key</text>
<text text-anchor="start" x="1497" y="-65.8" font-family="Times,serif" font-size="14.00">Direct Path</text>
<text text-anchor="start" x="1572.5" y="-65.8" font-family="Times,serif" font-size="14.00" fill="red"></text>
<text text-anchor="start" x="1497" y="-50.8" font-family="Times,serif" font-size="14.00">Indirect Path</text>
<text text-anchor="start" x="1569" y="-50.8" font-family="Times,serif" font-size="14.00" fill="blue"> </text>
<polygon fill="none" stroke="black" stroke-dasharray="1,5" points="1495,-45.5 1495,-94.5 1599,-94.5 1599,-45.5 1495,-45.5"/>
</g>
</g>
</svg>
