<?xml version="1.0" encoding="UTF-8" standalone="no"?>
<!DOCTYPE svg PUBLIC "-//W3C//DTD SVG 1.1//EN"
 "http://www.w3.org/Graphics/SVG/1.1/DTD/svg11.dtd">
<!-- Generated by graphviz version 2.30.1 (20180420.1509)
 -->
<!-- Title: fast Pages: 1 -->
<svg width="257pt" height="205pt"
 viewBox="0.00 0.00 257.00 205.00" xmlns="http://www.w3.org/2000/svg" xmlns:xlink="http://www.w3.org/1999/xlink">
<g id="graph0" class="graph" transform="scale(1 1) rotate(0) translate(4 201)">
<title>fast</title>
<polygon fill="white" stroke="white" points="-4,5 -4,-201 254,-201 254,5 -4,5"/>
<text text-anchor="middle" x="124.5" y="-7.8" font-family="Times,serif" font-size="14.00">fast&#45;4.6_amd64 (2020&#45;12&#45;18)</text>
<!-- 12 -->
<g id="node1" class="node"><title>12</title>
<polygon fill="salmon" stroke="salmon" points="76.3884,-75.6231 41,-88.1967 5.61163,-75.6231 19.1288,-55.2786 62.8712,-55.2786 76.3884,-75.6231"/>
<polygon fill="none" stroke="salmon" points="82.5939,-77.705 41,-92.4834 -0.593895,-77.705 16.9932,-51.2349 65.0068,-51.2349 82.5939,-77.705"/>
<text text-anchor="middle" x="41" y="-66.3" font-family="Times,serif" font-size="14.00">4.6.4</text>
</g>
<!-- 17 -->
<g id="node2" class="node"><title>17</title>
<polygon fill="yellowgreen" stroke="yellowgreen" points="63,-197 19,-197 19,-153 63,-153 63,-197"/>
<text text-anchor="middle" x="41" y="-171.3" font-family="Times,serif" font-size="14.00">4.6.8</text>
</g>
<!-- 12&#45;&gt;17 -->
<g id="edge1" class="edge"><title>12&#45;&gt;17</title>
<path fill="none" stroke="red" stroke-width="2" d="M41,-92.3417C41,-106.843 41,-126.269 41,-142.536"/>
<polygon fill="red" stroke="red" points="37.5001,-142.686 41,-152.686 44.5001,-142.686 37.5001,-142.686"/>
</g>
<!-- Key -->
<g id="node3" class="node"><title>Key</title>
<text text-anchor="start" x="163" y="-81.3" font-family="Times,serif" font-weight="bold" font-size="14.00">Key</text>
<text text-anchor="start" x="125" y="-65.8" font-family="Times,serif" font-size="14.00">Direct Path</text>
<text text-anchor="start" x="200.5" y="-65.8" font-family="Times,serif" font-size="14.00" fill="red">⟶</text>
<text text-anchor="start" x="125" y="-50.8" font-family="Times,serif" font-size="14.00">Indirect Path</text>
<text text-anchor="start" x="197" y="-50.8" font-family="Times,serif" font-size="14.00" fill="blue">→ ⤏</text>
<polygon fill="none" stroke="black" stroke-dasharray="1,5" points="123,-45.5 123,-94.5 227,-94.5 227,-45.5 123,-45.5"/>
</g>
</g>
</svg>
