<?xml version="1.0" encoding="UTF-8" standalone="no"?>
<!DOCTYPE svg PUBLIC "-//W3C//DTD SVG 1.1//EN"
 "http://www.w3.org/Graphics/SVG/1.1/DTD/svg11.dtd">
<!-- Generated by graphviz version 2.30.1 (20180420.1509)
 -->
<!-- Title: fast Pages: 1 -->
<svg width="1067pt" height="653pt"
 viewBox="0.00 0.00 1067.29 653.00" xmlns="http://www.w3.org/2000/svg" xmlns:xlink="http://www.w3.org/1999/xlink">
<g id="graph0" class="graph" transform="scale(1 1) rotate(0) translate(4 649)">
<title>fast</title>
<polygon fill="white" stroke="white" points="-4,5 -4,-649 1064.29,-649 1064.29,5 -4,5"/>
<text text-anchor="middle" x="529.646" y="-7.8" font-family="Times,serif" font-size="14.00">fast&#45;4.5_amd64 (2020&#45;11&#45;26)</text>
<!-- 0 -->
<g id="node1" class="node"><title>0</title>
<polygon fill="yellowgreen" stroke="yellowgreen" points="627.5,-292.5 576.5,-292.5 576.5,-241.5 627.5,-241.5 627.5,-292.5"/>
<text text-anchor="middle" x="602" y="-263.3" font-family="Times,serif" font-size="14.00">4.5.13</text>
</g>
<!-- 2 -->
<g id="node2" class="node"><title>2</title>
<polygon fill="yellowgreen" stroke="yellowgreen" points="573.5,-556.5 522.5,-556.5 522.5,-505.5 573.5,-505.5 573.5,-556.5"/>
<text text-anchor="middle" x="548" y="-527.3" font-family="Times,serif" font-size="14.00">4.5.16</text>
</g>
<!-- 0&#45;&gt;2 -->
<g id="edge1" class="edge"><title>0&#45;&gt;2</title>
<path fill="none" stroke="blue" stroke-dasharray="5,2" d="M597.305,-292.803C590.059,-330.802 575.564,-405.681 562,-469 560.152,-477.629 558.067,-486.923 556.082,-495.591"/>
<polygon fill="blue" stroke="blue" points="552.656,-494.871 553.817,-505.402 559.477,-496.445 552.656,-494.871"/>
</g>
<!-- 28 -->
<g id="node10" class="node"><title>28</title>
<polygon fill="yellowgreen" stroke="yellowgreen" points="215.5,-644.5 164.5,-644.5 164.5,-593.5 215.5,-593.5 215.5,-644.5"/>
<text text-anchor="middle" x="190" y="-615.3" font-family="Times,serif" font-size="14.00">4.5.17</text>
</g>
<!-- 0&#45;&gt;28 -->
<g id="edge5" class="edge"><title>0&#45;&gt;28</title>
<path fill="none" stroke="blue" stroke-dasharray="5,2" d="M576.447,-290.68C550.525,-313.618 509.18,-350.011 473,-381 383.418,-457.729 276.366,-546.633 223.268,-590.544"/>
<polygon fill="blue" stroke="blue" points="221.005,-587.874 215.527,-596.943 225.465,-593.27 221.005,-587.874"/>
</g>
<!-- 36 -->
<g id="node13" class="node"><title>36</title>
<polygon fill="yellowgreen" stroke="yellowgreen" points="893.5,-644.5 842.5,-644.5 842.5,-593.5 893.5,-593.5 893.5,-644.5"/>
<text text-anchor="middle" x="868" y="-615.3" font-family="Times,serif" font-size="14.00">4.5.20</text>
</g>
<!-- 0&#45;&gt;36 -->
<g id="edge14" class="edge"><title>0&#45;&gt;36</title>
<path fill="none" stroke="blue" stroke-dasharray="5,2" d="M627.64,-272.827C685.311,-285.178 825.035,-323.769 887,-417 921.548,-468.98 912.14,-496.209 898,-557 895.84,-566.286 892.056,-575.785 887.888,-584.439"/>
<polygon fill="blue" stroke="blue" points="884.718,-582.951 883.273,-593.447 890.948,-586.143 884.718,-582.951"/>
</g>
<!-- 29 -->
<g id="node11" class="node"><title>29</title>
<polygon fill="yellowgreen" stroke="yellowgreen" points="607.5,-644.5 556.5,-644.5 556.5,-593.5 607.5,-593.5 607.5,-644.5"/>
<text text-anchor="middle" x="582" y="-615.3" font-family="Times,serif" font-size="14.00">4.5.18</text>
</g>
<!-- 0&#45;&gt;29 -->
<g id="edge19" class="edge"><title>0&#45;&gt;29</title>
<path fill="none" stroke="blue" stroke-dasharray="5,2" d="M627.301,-281.776C665.569,-304.245 736.703,-352.797 765,-417 774.321,-438.148 770.612,-446.581 765,-469 754.233,-512.013 750.415,-526.746 718,-557 689.401,-583.693 647.153,-600.132 617.349,-609.119"/>
<polygon fill="blue" stroke="blue" points="616.01,-605.863 607.368,-611.992 617.946,-612.589 616.01,-605.863"/>
</g>
<!-- 12 -->
<g id="node4" class="node"><title>12</title>
<polygon fill="yellowgreen" stroke="yellowgreen" points="538.5,-644.5 487.5,-644.5 487.5,-593.5 538.5,-593.5 538.5,-644.5"/>
<text text-anchor="middle" x="513" y="-615.3" font-family="Times,serif" font-size="14.00">4.5.19</text>
</g>
<!-- 0&#45;&gt;12 -->
<g id="edge28" class="edge"><title>0&#45;&gt;12</title>
<path fill="none" stroke="blue" stroke-dasharray="5,2" d="M606.452,-292.534C614.641,-344.607 627.373,-468.639 582,-557 577.553,-565.66 561.724,-579.884 546.348,-592.419"/>
<polygon fill="blue" stroke="blue" points="544.024,-589.796 538.411,-598.781 548.402,-595.257 544.024,-589.796"/>
</g>
<!-- 27 -->
<g id="node9" class="node"><title>27</title>
<polygon fill="yellowgreen" stroke="yellowgreen" points="405.5,-380.5 354.5,-380.5 354.5,-329.5 405.5,-329.5 405.5,-380.5"/>
<text text-anchor="middle" x="380" y="-351.3" font-family="Times,serif" font-size="14.00">4.5.14</text>
</g>
<!-- 0&#45;&gt;27 -->
<g id="edge29" class="edge"><title>0&#45;&gt;27</title>
<path fill="none" stroke="blue" stroke-dasharray="5,2" d="M576.384,-285.622C571.73,-288.351 566.82,-290.942 562,-293 502.12,-318.561 479.88,-303.439 420,-329 418.192,-329.772 416.372,-330.618 414.558,-331.519"/>
<polygon fill="blue" stroke="blue" points="412.731,-328.528 405.616,-336.378 416.073,-334.679 412.731,-328.528"/>
</g>
<!-- 3 -->
<g id="node3" class="node"><title>3</title>
<polygon fill="yellowgreen" stroke="yellowgreen" points="291.5,-468.5 240.5,-468.5 240.5,-417.5 291.5,-417.5 291.5,-468.5"/>
<text text-anchor="middle" x="266" y="-439.3" font-family="Times,serif" font-size="14.00">4.5.15</text>
</g>
<!-- 0&#45;&gt;3 -->
<g id="edge48" class="edge"><title>0&#45;&gt;3</title>
<path fill="none" stroke="blue" stroke-dasharray="5,2" d="M576.542,-284.988C541.035,-308.287 474.214,-350.71 414,-381 376.415,-399.907 331.527,-417.784 301.116,-429.238"/>
<polygon fill="blue" stroke="blue" points="299.534,-426.092 291.389,-432.868 301.982,-432.65 299.534,-426.092"/>
</g>
<!-- 2&#45;&gt;29 -->
<g id="edge9" class="edge"><title>2&#45;&gt;29</title>
<path fill="none" stroke="blue" stroke-dasharray="5,2" d="M557.834,-556.875C561.176,-565.327 564.969,-574.922 568.544,-583.964"/>
<polygon fill="blue" stroke="blue" points="565.374,-585.465 572.305,-593.478 571.884,-582.892 565.374,-585.465"/>
</g>
<!-- 2&#45;&gt;36 -->
<g id="edge16" class="edge"><title>2&#45;&gt;36</title>
<path fill="none" stroke="blue" stroke-dasharray="5,2" d="M573.377,-538.82C630.207,-554.093 767.795,-591.07 832.829,-608.548"/>
<polygon fill="blue" stroke="blue" points="832.054,-611.964 842.62,-611.179 833.871,-605.204 832.054,-611.964"/>
</g>
<!-- 2&#45;&gt;12 -->
<g id="edge36" class="edge"><title>2&#45;&gt;12</title>
<path fill="none" stroke="blue" stroke-dasharray="5,2" d="M537.877,-556.875C534.437,-565.327 530.532,-574.922 526.852,-583.964"/>
<polygon fill="blue" stroke="blue" points="523.508,-582.896 522.98,-593.478 529.991,-585.535 523.508,-582.896"/>
</g>
<!-- 2&#45;&gt;28 -->
<g id="edge38" class="edge"><title>2&#45;&gt;28</title>
<path fill="none" stroke="blue" stroke-dasharray="5,2" d="M522.541,-538.116C459.812,-553.185 297.691,-592.13 225.539,-609.463"/>
<polygon fill="blue" stroke="blue" points="224.475,-606.119 215.569,-611.858 226.11,-612.925 224.475,-606.119"/>
</g>
<!-- 3&#45;&gt;36 -->
<g id="edge7" class="edge"><title>3&#45;&gt;36</title>
<path fill="none" stroke="blue" stroke-dasharray="5,2" d="M291.358,-457.3C314.869,-469.64 350.815,-488.527 382,-505 425.598,-528.03 433.225,-541.401 480,-557 605.209,-598.756 762.894,-612.241 832.363,-616.336"/>
<polygon fill="blue" stroke="blue" points="832.167,-619.83 842.347,-616.895 832.559,-612.841 832.167,-619.83"/>
</g>
<!-- 3&#45;&gt;29 -->
<g id="edge22" class="edge"><title>3&#45;&gt;29</title>
<path fill="none" stroke="blue" stroke-dasharray="5,2" d="M289.555,-468.918C315.297,-494.699 358.916,-534.304 404,-557 462.539,-586.469 487.522,-565.474 547,-593 547.305,-593.141 547.61,-593.285 547.915,-593.432"/>
<polygon fill="blue" stroke="blue" points="546.23,-596.499 556.672,-598.288 549.625,-590.377 546.23,-596.499"/>
</g>
<!-- 3&#45;&gt;28 -->
<g id="edge23" class="edge"><title>3&#45;&gt;28</title>
<path fill="none" stroke="blue" stroke-dasharray="5,2" d="M240.614,-468.071C230.932,-478.554 220.64,-491.517 214,-505 201.86,-529.652 195.84,-560.286 192.867,-583.436"/>
<polygon fill="blue" stroke="blue" points="189.375,-583.162 191.704,-593.497 196.329,-583.965 189.375,-583.162"/>
</g>
<!-- 3&#45;&gt;12 -->
<g id="edge40" class="edge"><title>3&#45;&gt;12</title>
<path fill="none" stroke="blue" stroke-dasharray="5,2" d="M273.499,-468.67C282.489,-494.243 299.956,-533.678 328,-557 371.561,-593.227 437.335,-608.163 477.595,-614.159"/>
<polygon fill="blue" stroke="blue" points="477.357,-617.66 487.742,-615.562 478.315,-610.726 477.357,-617.66"/>
</g>
<!-- 3&#45;&gt;2 -->
<g id="edge55" class="edge"><title>3&#45;&gt;2</title>
<path fill="none" stroke="blue" stroke-dasharray="5,2" d="M291.491,-451.448C330.155,-462.784 405.91,-485.149 470,-505 484.072,-509.358 499.528,-514.283 512.943,-518.602"/>
<polygon fill="blue" stroke="blue" points="512.156,-522.026 522.747,-521.768 514.306,-515.365 512.156,-522.026"/>
</g>
<!-- 15 -->
<g id="node5" class="node"><title>15</title>
<ellipse fill="lightgrey" stroke="lightgrey" cx="845" cy="-443" rx="33.2948" ry="18"/>
<text text-anchor="middle" x="845" y="-439.3" font-family="Times,serif" font-size="14.00">4.4.30</text>
</g>
<!-- 15&#45;&gt;36 -->
<g id="edge27" class="edge"><title>15&#45;&gt;36</title>
<path fill="none" stroke="blue" stroke-dasharray="5,2" d="M858.03,-459.937C866.703,-471.622 877.331,-488.3 882,-505 889.2,-530.755 884.881,-560.845 879.207,-583.497"/>
<polygon fill="blue" stroke="blue" points="875.777,-582.771 876.541,-593.339 882.534,-584.602 875.777,-582.771"/>
</g>
<!-- 15&#45;&gt;29 -->
<g id="edge33" class="edge"><title>15&#45;&gt;29</title>
<path fill="none" stroke="blue" stroke-dasharray="5,2" d="M843.942,-461.216C841.477,-485.98 833.278,-531.477 806,-557 753.766,-605.873 666.297,-616.299 617.552,-618.098"/>
<polygon fill="blue" stroke="blue" points="617.38,-614.601 607.477,-618.366 617.567,-621.599 617.38,-614.601"/>
</g>
<!-- 15&#45;&gt;12 -->
<g id="edge34" class="edge"><title>15&#45;&gt;12</title>
<path fill="none" stroke="blue" stroke-dasharray="5,2" d="M828.772,-458.781C801.498,-482.853 743.851,-530.494 687,-557 631.501,-582.875 607.348,-567.119 547.445,-593.583"/>
<polygon fill="blue" stroke="blue" points="545.94,-590.423 538.339,-597.804 548.884,-596.774 545.94,-590.423"/>
</g>
<!-- 15&#45;&gt;2 -->
<g id="edge46" class="edge"><title>15&#45;&gt;2</title>
<path fill="none" stroke="blue" stroke-dasharray="5,2" d="M817.292,-452.875C801.92,-457.744 782.438,-463.826 765,-469 701.092,-487.964 626.154,-508.699 583.16,-520.452"/>
<polygon fill="blue" stroke="blue" points="582.184,-517.09 573.458,-523.1 584.027,-523.843 582.184,-517.09"/>
</g>
<!-- 19 -->
<g id="node6" class="node"><title>19</title>
<ellipse fill="lightgrey" stroke="lightgrey" cx="220" cy="-267" rx="33.2948" ry="18"/>
<text text-anchor="middle" x="220" y="-263.3" font-family="Times,serif" font-size="14.00">4.4.27</text>
</g>
<!-- 19&#45;&gt;3 -->
<g id="edge10" class="edge"><title>19&#45;&gt;3</title>
<path fill="none" stroke="blue" stroke-dasharray="5,2" d="M224.494,-285.001C231.975,-313.296 247.122,-370.592 256.902,-407.586"/>
<polygon fill="blue" stroke="blue" points="253.568,-408.667 259.507,-417.441 260.335,-406.878 253.568,-408.667"/>
</g>
<!-- 19&#45;&gt;2 -->
<g id="edge17" class="edge"><title>19&#45;&gt;2</title>
<path fill="none" stroke="blue" stroke-dasharray="5,2" d="M251.961,-271.781C292.834,-277.934 364.263,-293.242 414,-329 473.96,-372.107 514.831,-451.005 534.506,-496.066"/>
<polygon fill="blue" stroke="blue" points="531.35,-497.587 538.494,-505.411 537.788,-494.84 531.35,-497.587"/>
</g>
<!-- 19&#45;&gt;27 -->
<g id="edge20" class="edge"><title>19&#45;&gt;27</title>
<path fill="none" stroke="blue" stroke-dasharray="5,2" d="M242.924,-280.322C269.784,-294.759 314.554,-318.823 345.588,-335.503"/>
<polygon fill="blue" stroke="blue" points="344.277,-338.773 354.743,-340.424 347.592,-332.607 344.277,-338.773"/>
</g>
<!-- 19&#45;&gt;36 -->
<g id="edge25" class="edge"><title>19&#45;&gt;36</title>
<path fill="none" stroke="blue" stroke-dasharray="5,2" d="M215.99,-284.877C208.284,-321.472 195.154,-409.607 231,-469 250.673,-501.596 342.002,-544.604 378,-557 420.855,-571.757 727.316,-603.763 832.595,-614.447"/>
<polygon fill="blue" stroke="blue" points="832.409,-617.946 842.711,-615.471 833.114,-610.982 832.409,-617.946"/>
</g>
<!-- 19&#45;&gt;29 -->
<g id="edge42" class="edge"><title>19&#45;&gt;29</title>
<path fill="none" stroke="blue" stroke-dasharray="5,2" d="M212.811,-284.704C198.644,-320.229 170.758,-405.245 198,-469 220.233,-521.032 239.079,-532.329 290,-557 393.796,-607.29 439.878,-550.25 547,-593 547.1,-593.04 547.199,-593.08 547.299,-593.12"/>
<polygon fill="blue" stroke="blue" points="545.917,-596.343 556.424,-597.702 549.058,-590.087 545.917,-596.343"/>
</g>
<!-- 19&#45;&gt;28 -->
<g id="edge47" class="edge"><title>19&#45;&gt;28</title>
<path fill="none" stroke="blue" stroke-dasharray="5,2" d="M189.468,-274.065C160.754,-281.566 119.369,-297.425 100,-329 48.3796,-413.147 120.982,-529.419 163.291,-585.357"/>
<polygon fill="blue" stroke="blue" points="160.673,-587.693 169.547,-593.482 166.22,-583.423 160.673,-587.693"/>
</g>
<!-- 19&#45;&gt;12 -->
<g id="edge52" class="edge"><title>19&#45;&gt;12</title>
<path fill="none" stroke="blue" stroke-dasharray="5,2" d="M194.826,-278.881C175.354,-288.814 149.79,-305.535 138,-329 115.253,-374.273 105.175,-518.404 138,-557 159.943,-582.801 388.084,-606.469 477.412,-614.817"/>
<polygon fill="blue" stroke="blue" points="477.315,-618.323 487.595,-615.758 477.959,-611.352 477.315,-618.323"/>
</g>
<!-- 24 -->
<g id="node7" class="node"><title>24</title>
<polygon fill="yellowgreen" stroke="yellowgreen" points="573.5,-204.5 522.5,-204.5 522.5,-153.5 573.5,-153.5 573.5,-204.5"/>
<text text-anchor="middle" x="548" y="-175.3" font-family="Times,serif" font-size="14.00">4.5.12</text>
</g>
<!-- 24&#45;&gt;27 -->
<g id="edge6" class="edge"><title>24&#45;&gt;27</title>
<path fill="none" stroke="blue" stroke-dasharray="5,2" d="M524.505,-204.787C502.696,-227.746 469.28,-262.801 440,-293 430.78,-302.509 420.704,-312.794 411.487,-322.161"/>
<polygon fill="blue" stroke="blue" points="408.837,-319.864 404.312,-329.444 413.823,-324.777 408.837,-319.864"/>
</g>
<!-- 24&#45;&gt;36 -->
<g id="edge13" class="edge"><title>24&#45;&gt;36</title>
<path fill="none" stroke="blue" stroke-dasharray="5,2" d="M573.445,-181.542C664.174,-187.297 967.929,-208.848 996,-241 1088.37,-346.797 1070.96,-438.235 996,-557 975.755,-589.075 933.51,-604.637 903.083,-611.945"/>
<polygon fill="blue" stroke="blue" points="902.273,-608.539 893.266,-614.118 903.786,-615.374 902.273,-608.539"/>
</g>
<!-- 24&#45;&gt;0 -->
<g id="edge35" class="edge"><title>24&#45;&gt;0</title>
<path fill="none" stroke="blue" stroke-dasharray="5,2" d="M563.619,-204.875C569.095,-213.596 575.336,-223.536 581.171,-232.828"/>
<polygon fill="blue" stroke="blue" points="578.321,-234.87 586.603,-241.478 584.249,-231.148 578.321,-234.87"/>
</g>
<!-- 25 -->
<g id="node8" class="node"><title>25</title>
<polygon fill="salmon" stroke="salmon" points="589.146,-75.6079 548,-88.1475 506.854,-75.6079 522.571,-55.3184 573.429,-55.3184 589.146,-75.6079"/>
<polygon fill="none" stroke="salmon" points="595.904,-77.7628 548,-92.362 500.096,-77.7628 520.606,-51.2856 575.394,-51.2856 595.904,-77.7628"/>
<text text-anchor="middle" x="548" y="-66.3" font-family="Times,serif" font-size="14.00">4.4.23</text>
</g>
<!-- 25&#45;&gt;19 -->
<g id="edge2" class="edge"><title>25&#45;&gt;19</title>
<path fill="none" stroke="blue" d="M503.65,-73.3936C444.707,-78.7763 340.299,-96.2559 274,-153 247.867,-175.367 233.41,-213.244 226.179,-238.919"/>
<polygon fill="blue" stroke="blue" points="222.749,-238.203 223.59,-248.764 229.519,-239.983 222.749,-238.203"/>
</g>
<!-- 25&#45;&gt;3 -->
<g id="edge8" class="edge"><title>25&#45;&gt;3</title>
<path fill="none" stroke="red" stroke-width="2" d="M515.783,-82.6647C483.329,-95.7196 433.404,-119.521 400,-153 326.484,-226.68 288.639,-348.219 273.749,-407.429"/>
<polygon fill="red" stroke="red" points="270.287,-406.851 271.312,-417.396 277.087,-408.513 270.287,-406.851"/>
</g>
<!-- 25&#45;&gt;27 -->
<g id="edge12" class="edge"><title>25&#45;&gt;27</title>
<path fill="none" stroke="red" stroke-width="2" d="M518.923,-83.4983C491.549,-96.7714 451.491,-120.356 429,-153 394.058,-203.716 383.942,-276.668 381.07,-319.316"/>
<polygon fill="red" stroke="red" points="377.566,-319.289 380.486,-329.473 384.555,-319.691 377.566,-319.289"/>
</g>
<!-- 25&#45;&gt;0 -->
<g id="edge31" class="edge"><title>25&#45;&gt;0</title>
<path fill="none" stroke="red" stroke-width="2" d="M557.175,-89.7944C564.82,-106.147 575.477,-130.662 582,-153 589.521,-178.755 594.664,-208.684 597.849,-231.269"/>
<polygon fill="red" stroke="red" points="594.41,-231.958 599.217,-241.4 601.347,-231.022 594.41,-231.958"/>
</g>
<!-- 25&#45;&gt;24 -->
<g id="edge41" class="edge"><title>25&#45;&gt;24</title>
<path fill="none" stroke="red" stroke-width="2" d="M548,-92.3959C548,-106.804 548,-126.142 548,-142.792"/>
<polygon fill="red" stroke="red" points="544.5,-143.267 548,-153.267 551.5,-143.267 544.5,-143.267"/>
</g>
<!-- 25&#45;&gt;2 -->
<g id="edge44" class="edge"><title>25&#45;&gt;2</title>
<path fill="none" stroke="red" stroke-width="2" d="M561.599,-88.5503C583.349,-118.026 624.669,-180.233 636,-241 653.677,-335.799 600.569,-443.502 569.235,-496.672"/>
<polygon fill="red" stroke="red" points="566.178,-494.964 564.034,-505.34 572.18,-498.566 566.178,-494.964"/>
</g>
<!-- 34 -->
<g id="node12" class="node"><title>34</title>
<ellipse fill="lightgrey" stroke="lightgrey" cx="471" cy="-179" rx="33.2948" ry="18"/>
<text text-anchor="middle" x="471" y="-175.3" font-family="Times,serif" font-size="14.00">4.4.26</text>
</g>
<!-- 25&#45;&gt;34 -->
<g id="edge50" class="edge"><title>25&#45;&gt;34</title>
<path fill="none" stroke="blue" d="M535.285,-88.6689C522.485,-106.456 502.648,-134.022 488.395,-153.827"/>
<polygon fill="blue" stroke="blue" points="485.476,-151.892 482.476,-162.053 491.158,-155.981 485.476,-151.892"/>
</g>
<!-- 25&#45;&gt;15 -->
<g id="edge51" class="edge"><title>25&#45;&gt;15</title>
<path fill="none" stroke="blue" d="M564.625,-87.5832C575.339,-97.4217 590.026,-109.415 605,-117 660.778,-145.255 694.914,-110.744 741,-153 818.54,-224.095 838.333,-357.247 843.334,-414.586"/>
<polygon fill="blue" stroke="blue" points="839.855,-414.995 844.128,-424.69 846.834,-414.447 839.855,-414.995"/>
</g>
<!-- 43 -->
<g id="node14" class="node"><title>43</title>
<ellipse fill="lightgrey" stroke="lightgrey" cx="723" cy="-443" rx="33.2948" ry="18"/>
<text text-anchor="middle" x="723" y="-439.3" font-family="Times,serif" font-size="14.00">4.4.29</text>
</g>
<!-- 25&#45;&gt;43 -->
<g id="edge53" class="edge"><title>25&#45;&gt;43</title>
<path fill="none" stroke="blue" d="M564.791,-87.2683C575.567,-96.9883 590.261,-108.967 605,-117 649.797,-141.415 683.472,-112.123 714,-153 773.117,-232.158 746.654,-360.42 731.259,-415.495"/>
<polygon fill="blue" stroke="blue" points="727.868,-414.62 728.446,-425.199 734.591,-416.569 727.868,-414.62"/>
</g>
<!-- 27&#45;&gt;2 -->
<g id="edge4" class="edge"><title>27&#45;&gt;2</title>
<path fill="none" stroke="blue" stroke-dasharray="5,2" d="M403.714,-380.561C433.397,-411.304 484.308,-464.033 517.038,-497.932"/>
<polygon fill="blue" stroke="blue" points="514.671,-500.52 524.135,-505.283 519.707,-495.658 514.671,-500.52"/>
</g>
<!-- 27&#45;&gt;36 -->
<g id="edge15" class="edge"><title>27&#45;&gt;36</title>
<path fill="none" stroke="blue" stroke-dasharray="5,2" d="M387.887,-380.734C403.566,-425.262 443.291,-517.91 513,-557 567.504,-587.564 753.259,-607.583 832.123,-614.895"/>
<polygon fill="blue" stroke="blue" points="832.24,-618.42 842.517,-615.842 832.876,-611.449 832.24,-618.42"/>
</g>
<!-- 27&#45;&gt;28 -->
<g id="edge39" class="edge"><title>27&#45;&gt;28</title>
<path fill="none" stroke="blue" stroke-dasharray="5,2" d="M354.567,-360.231C321.97,-366.892 265.553,-382.772 231,-417 186.846,-460.739 183.838,-538.248 186.396,-583.162"/>
<polygon fill="blue" stroke="blue" points="182.916,-583.568 187.101,-593.301 189.899,-583.082 182.916,-583.568"/>
</g>
<!-- 27&#45;&gt;12 -->
<g id="edge43" class="edge"><title>27&#45;&gt;12</title>
<path fill="none" stroke="blue" stroke-dasharray="5,2" d="M361.324,-380.744C354.452,-391.33 347.499,-404.188 344,-417 337.912,-439.295 337.188,-446.916 344,-469 357.953,-514.234 369.084,-525.036 404,-557 425.833,-576.988 455.373,-593.003 478.193,-603.599"/>
<polygon fill="blue" stroke="blue" points="476.965,-606.885 487.52,-607.805 479.842,-600.504 476.965,-606.885"/>
</g>
<!-- 27&#45;&gt;3 -->
<g id="edge45" class="edge"><title>27&#45;&gt;3</title>
<path fill="none" stroke="blue" stroke-dasharray="5,2" d="M354.7,-375.086C338.577,-387.249 317.494,-403.154 299.928,-416.406"/>
<polygon fill="blue" stroke="blue" points="297.499,-413.853 291.624,-422.67 301.715,-419.441 297.499,-413.853"/>
</g>
<!-- 27&#45;&gt;29 -->
<g id="edge49" class="edge"><title>27&#45;&gt;29</title>
<path fill="none" stroke="blue" stroke-dasharray="5,2" d="M374.993,-380.603C371.378,-404.366 369.121,-440.8 382,-469 420.108,-552.443 469.116,-544.533 547,-593 547.396,-593.247 547.794,-593.496 548.193,-593.748"/>
<polygon fill="blue" stroke="blue" points="546.367,-596.736 556.642,-599.321 550.221,-590.893 546.367,-596.736"/>
</g>
<!-- 34&#45;&gt;28 -->
<g id="edge3" class="edge"><title>34&#45;&gt;28</title>
<path fill="none" stroke="blue" stroke-dasharray="5,2" d="M439.365,-184.634C333.761,-200.98 0,-260.072 0,-354 0,-354 0,-354 0,-444 0,-527.124 100.129,-581.258 155.011,-604.687"/>
<polygon fill="blue" stroke="blue" points="153.798,-607.973 164.376,-608.574 156.482,-601.508 153.798,-607.973"/>
</g>
<!-- 34&#45;&gt;27 -->
<g id="edge11" class="edge"><title>34&#45;&gt;27</title>
<path fill="none" stroke="blue" stroke-dasharray="5,2" d="M462.275,-196.684C447.429,-225.07 416.983,-283.286 397.58,-320.386"/>
<polygon fill="blue" stroke="blue" points="394.434,-318.849 392.901,-329.333 400.637,-322.093 394.434,-318.849"/>
</g>
<!-- 34&#45;&gt;2 -->
<g id="edge18" class="edge"><title>34&#45;&gt;2</title>
<path fill="none" stroke="blue" stroke-dasharray="5,2" d="M474.818,-197.357C486.851,-252.048 524.135,-421.524 540.345,-495.203"/>
<polygon fill="blue" stroke="blue" points="537.011,-496.339 542.578,-505.354 543.847,-494.835 537.011,-496.339"/>
</g>
<!-- 34&#45;&gt;36 -->
<g id="edge24" class="edge"><title>34&#45;&gt;36</title>
<path fill="none" stroke="blue" stroke-dasharray="5,2" d="M491.385,-193.536C498.082,-197.598 505.687,-201.814 513,-205 565.221,-227.748 581.587,-224.156 636,-241 790.536,-288.837 982,-192.229 982,-354 982,-354 982,-354 982,-444 982,-503.513 934.763,-558.506 901.103,-590.139"/>
<polygon fill="blue" stroke="blue" points="898.31,-587.951 893.3,-597.287 903.038,-593.113 898.31,-587.951"/>
</g>
<!-- 34&#45;&gt;0 -->
<g id="edge32" class="edge"><title>34&#45;&gt;0</title>
<path fill="none" stroke="blue" stroke-dasharray="5,2" d="M491.469,-193.438C511.977,-206.901 543.902,-227.859 568.179,-243.797"/>
<polygon fill="blue" stroke="blue" points="566.462,-246.856 576.742,-249.418 570.303,-241.004 566.462,-246.856"/>
</g>
<!-- 34&#45;&gt;3 -->
<g id="edge54" class="edge"><title>34&#45;&gt;3</title>
<path fill="none" stroke="blue" stroke-dasharray="5,2" d="M454.466,-194.857C441.532,-206.806 423.39,-224.298 409,-241 361.082,-296.618 313.218,-367.876 286.822,-408.89"/>
<polygon fill="blue" stroke="blue" points="283.81,-407.103 281.366,-417.412 289.706,-410.877 283.81,-407.103"/>
</g>
<!-- 43&#45;&gt;29 -->
<g id="edge21" class="edge"><title>43&#45;&gt;29</title>
<path fill="none" stroke="blue" stroke-dasharray="5,2" d="M722.352,-461.149C720.622,-485.02 714.376,-528.53 692,-557 673.024,-581.144 641.704,-597.169 617.326,-606.71"/>
<polygon fill="blue" stroke="blue" points="615.851,-603.524 607.696,-610.288 618.289,-610.086 615.851,-603.524"/>
</g>
<!-- 43&#45;&gt;36 -->
<g id="edge26" class="edge"><title>43&#45;&gt;36</title>
<path fill="none" stroke="blue" stroke-dasharray="5,2" d="M736.124,-459.748C759.65,-487.98 809.457,-547.748 840.679,-585.214"/>
<polygon fill="blue" stroke="blue" points="838.333,-587.867 847.424,-593.309 843.711,-583.386 838.333,-587.867"/>
</g>
<!-- 43&#45;&gt;2 -->
<g id="edge30" class="edge"><title>43&#45;&gt;2</title>
<path fill="none" stroke="blue" stroke-dasharray="5,2" d="M699.034,-455.778C668.915,-470.579 617.006,-496.088 582.588,-513.003"/>
<polygon fill="blue" stroke="blue" points="580.808,-509.978 573.376,-517.529 583.895,-516.26 580.808,-509.978"/>
</g>
<!-- 43&#45;&gt;12 -->
<g id="edge37" class="edge"><title>43&#45;&gt;12</title>
<path fill="none" stroke="blue" stroke-dasharray="5,2" d="M714.556,-460.83C700.184,-488.898 670.888,-543.522 654,-557 617.081,-586.465 594.302,-571.852 547.479,-593.531"/>
<polygon fill="blue" stroke="blue" points="545.844,-590.435 538.447,-598.02 548.96,-596.703 545.844,-590.435"/>
</g>
<!-- 43&#45;&gt;28 -->
<g id="edge56" class="edge"><title>43&#45;&gt;28</title>
<path fill="none" stroke="blue" stroke-dasharray="5,2" d="M706.618,-458.945C675.776,-486.766 609.703,-544.795 582,-557 459.4,-611.015 296.795,-618.163 225.759,-618.481"/>
<polygon fill="blue" stroke="blue" points="225.561,-614.981 215.561,-618.482 225.561,-621.981 225.561,-614.981"/>
</g>
<!-- Key -->
<g id="node15" class="node"><title>Key</title>
<text text-anchor="start" x="676" y="-81.3" font-family="Times,serif" font-weight="bold" font-size="14.00">Key</text>
<text text-anchor="start" x="638" y="-65.8" font-family="Times,serif" font-size="14.00">Direct Path</text>
<text text-anchor="start" x="713.5" y="-65.8" font-family="Times,serif" font-size="14.00" fill="red">⟶</text>
<text text-anchor="start" x="638" y="-50.8" font-family="Times,serif" font-size="14.00">Indirect Path</text>
<text text-anchor="start" x="710" y="-50.8" font-family="Times,serif" font-size="14.00" fill="blue">→ ⤏</text>
<polygon fill="none" stroke="black" stroke-dasharray="1,5" points="636,-45.5 636,-94.5 740,-94.5 740,-45.5 636,-45.5"/>
</g>
</g>
</svg>
