<?xml version="1.0" encoding="UTF-8" standalone="no"?>
<!DOCTYPE svg PUBLIC "-//W3C//DTD SVG 1.1//EN"
 "http://www.w3.org/Graphics/SVG/1.1/DTD/svg11.dtd">
<!-- Generated by graphviz version 2.30.1 (20180420.1509)
 -->
<!-- Title: fast Pages: 1 -->
<svg width="269pt" height="125pt"
 viewBox="0.00 0.00 269.00 125.00" xmlns="http://www.w3.org/2000/svg" xmlns:xlink="http://www.w3.org/1999/xlink">
<g id="graph0" class="graph" transform="scale(1 1) rotate(0) translate(4 121)">
<title>fast</title>
<polygon fill="white" stroke="white" points="-4,5 -4,-121 266,-121 266,5 -4,5"/>
<text text-anchor="middle" x="130.5" y="-7.8" font-family="Times,serif" font-size="14.00">fast&#45;4.6_amd64 (2020&#45;12&#45;14)</text>
<!-- 6 -->
<g id="node1" class="node"><title>6</title>
<polygon fill="salmon" stroke="salmon" points="88.1457,-75.6079 47,-88.1475 5.85431,-75.6079 21.5706,-55.3184 72.4294,-55.3184 88.1457,-75.6079"/>
<polygon fill="none" stroke="salmon" points="94.9035,-77.7628 47,-92.362 -0.90354,-77.7628 19.6057,-51.2856 74.3943,-51.2856 94.9035,-77.7628"/>
<text text-anchor="middle" x="47" y="-66.3" font-family="Times,serif" font-size="14.00">4.5.16</text>
</g>
<!-- Key -->
<g id="node2" class="node"><title>Key</title>
<text text-anchor="start" x="175" y="-81.3" font-family="Times,serif" font-weight="bold" font-size="14.00">Key</text>
<text text-anchor="start" x="137" y="-65.8" font-family="Times,serif" font-size="14.00">Direct Path</text>
<text text-anchor="start" x="212.5" y="-65.8" font-family="Times,serif" font-size="14.00" fill="red">⟶</text>
<text text-anchor="start" x="137" y="-50.8" font-family="Times,serif" font-size="14.00">Indirect Path</text>
<text text-anchor="start" x="209" y="-50.8" font-family="Times,serif" font-size="14.00" fill="blue">→ ⤏</text>
<polygon fill="none" stroke="black" stroke-dasharray="1,5" points="135,-45.5 135,-94.5 239,-94.5 239,-45.5 135,-45.5"/>
</g>
</g>
</svg>
