<?xml version="1.0" encoding="UTF-8" standalone="no"?>
<!DOCTYPE svg PUBLIC "-//W3C//DTD SVG 1.1//EN"
 "http://www.w3.org/Graphics/SVG/1.1/DTD/svg11.dtd">
<!-- Generated by graphviz version 2.30.1 (20180420.1509)
 -->
<!-- Title: stable Pages: 1 -->
<svg width="315pt" height="477pt"
 viewBox="0.00 0.00 315.40 477.00" xmlns="http://www.w3.org/2000/svg" xmlns:xlink="http://www.w3.org/1999/xlink">
<g id="graph0" class="graph" transform="scale(1 1) rotate(0) translate(4 473)">
<title>stable</title>
<polygon fill="white" stroke="white" points="-4,5 -4,-473 312.405,-473 312.405,5 -4,5"/>
<text text-anchor="middle" x="153.702" y="-7.8" font-family="Times,serif" font-size="14.00">stable&#45;4.4_amd64 (2020&#45;11&#45;25)</text>
<!-- 3 -->
<g id="node1" class="node"><title>3</title>
<polygon fill="salmon" stroke="salmon" points="134.55,-75.6079 93.4047,-88.1475 52.259,-75.6079 67.9753,-55.3184 118.834,-55.3184 134.55,-75.6079"/>
<polygon fill="none" stroke="salmon" points="141.308,-77.7628 93.4047,-92.362 45.5012,-77.7628 66.0105,-51.2856 120.799,-51.2856 141.308,-77.7628"/>
<text text-anchor="middle" x="93.4047" y="-66.3" font-family="Times,serif" font-size="14.00">4.3.38</text>
</g>
<!-- 29 -->
<g id="node5" class="node"><title>29</title>
<polygon fill="yellowgreen" stroke="yellowgreen" points="118.905,-468.5 67.9047,-468.5 67.9047,-417.5 118.905,-417.5 118.905,-468.5"/>
<text text-anchor="middle" x="93.4047" y="-439.3" font-family="Times,serif" font-size="14.00">4.4.30</text>
</g>
<!-- 3&#45;&gt;29 -->
<g id="edge3" class="edge"><title>3&#45;&gt;29</title>
<path fill="none" stroke="red" stroke-width="2" d="M78.4826,-87.796C47.9733,-124.221 -16.9398,-213.602 4.40472,-293 16.1878,-336.831 44.9178,-380.668 66.572,-409.329"/>
<polygon fill="red" stroke="red" points="63.8805,-411.57 72.7547,-417.358 69.4268,-407.299 63.8805,-411.57"/>
</g>
<!-- 19 -->
<g id="node3" class="node"><title>19</title>
<polygon fill="yellowgreen" stroke="yellowgreen" points="118.905,-204.5 67.9047,-204.5 67.9047,-153.5 118.905,-153.5 118.905,-204.5"/>
<text text-anchor="middle" x="93.4047" y="-175.3" font-family="Times,serif" font-size="14.00">4.4.26</text>
</g>
<!-- 3&#45;&gt;19 -->
<g id="edge7" class="edge"><title>3&#45;&gt;19</title>
<path fill="none" stroke="red" stroke-width="2" d="M93.4047,-92.3959C93.4047,-106.804 93.4047,-126.142 93.4047,-142.792"/>
<polygon fill="red" stroke="red" points="89.9048,-143.267 93.4047,-153.267 96.9048,-143.267 89.9048,-143.267"/>
</g>
<!-- 4 -->
<g id="node2" class="node"><title>4</title>
<polygon fill="yellowgreen" stroke="yellowgreen" points="64.9047,-292.5 13.9047,-292.5 13.9047,-241.5 64.9047,-241.5 64.9047,-292.5"/>
<text text-anchor="middle" x="39.4047" y="-263.3" font-family="Times,serif" font-size="14.00">4.4.27</text>
</g>
<!-- 3&#45;&gt;4 -->
<g id="edge8" class="edge"><title>3&#45;&gt;4</title>
<path fill="none" stroke="red" stroke-width="2" d="M83.8873,-89.7481C75.9724,-106.071 64.9762,-130.57 58.4047,-153 50.8722,-178.71 46.0068,-208.642 43.0869,-231.238"/>
<polygon fill="red" stroke="red" points="39.5869,-231.025 41.8431,-241.376 46.5348,-231.877 39.5869,-231.025"/>
</g>
<!-- 20 -->
<g id="node4" class="node"><title>20</title>
<ellipse fill="lightgrey" stroke="lightgrey" cx="230.405" cy="-267" rx="33.2948" ry="18"/>
<text text-anchor="middle" x="230.405" y="-263.3" font-family="Times,serif" font-size="14.00">4.3.40</text>
</g>
<!-- 3&#45;&gt;20 -->
<g id="edge12" class="edge"><title>3&#45;&gt;20</title>
<path fill="none" stroke="blue" d="M112.335,-86.5536C135.482,-105.855 172.885,-138.045 183.405,-153 202.253,-179.795 215.446,-215.303 222.959,-239.31"/>
<polygon fill="blue" stroke="blue" points="219.686,-240.58 225.921,-249.146 226.389,-238.562 219.686,-240.58"/>
</g>
<!-- 48 -->
<g id="node6" class="node"><title>48</title>
<polygon fill="yellowgreen" stroke="yellowgreen" points="172.905,-380.5 121.905,-380.5 121.905,-329.5 172.905,-329.5 172.905,-380.5"/>
<text text-anchor="middle" x="147.405" y="-351.3" font-family="Times,serif" font-size="14.00">4.4.29</text>
</g>
<!-- 3&#45;&gt;48 -->
<g id="edge13" class="edge"><title>3&#45;&gt;48</title>
<path fill="none" stroke="red" stroke-width="2" d="M103.011,-89.6775C110.925,-105.957 121.735,-130.43 127.405,-153 141.758,-210.135 145.886,-278.837 147.028,-319.323"/>
<polygon fill="red" stroke="red" points="143.532,-319.558 147.268,-329.472 150.53,-319.392 143.532,-319.558"/>
</g>
<!-- 4&#45;&gt;29 -->
<g id="edge2" class="edge"><title>4&#45;&gt;29</title>
<path fill="none" stroke="blue" stroke-dasharray="5,2" d="M47.0271,-292.561C56.3276,-322.529 72.1115,-373.388 82.6461,-407.333"/>
<polygon fill="blue" stroke="blue" points="79.4271,-408.77 85.7339,-417.283 86.1126,-406.695 79.4271,-408.77"/>
</g>
<!-- 4&#45;&gt;48 -->
<g id="edge5" class="edge"><title>4&#45;&gt;48</title>
<path fill="none" stroke="blue" stroke-dasharray="5,2" d="M64.7259,-288.163C79.3794,-299.832 98.0019,-314.661 113.862,-327.29"/>
<polygon fill="blue" stroke="blue" points="111.865,-330.174 121.868,-333.665 116.225,-324.698 111.865,-330.174"/>
</g>
<!-- 19&#45;&gt;48 -->
<g id="edge6" class="edge"><title>19&#45;&gt;48</title>
<path fill="none" stroke="blue" stroke-dasharray="5,2" d="M101.027,-204.561C110.328,-234.529 126.111,-285.388 136.646,-319.333"/>
<polygon fill="blue" stroke="blue" points="133.427,-320.77 139.734,-329.283 140.113,-318.695 133.427,-320.77"/>
</g>
<!-- 19&#45;&gt;4 -->
<g id="edge9" class="edge"><title>19&#45;&gt;4</title>
<path fill="none" stroke="blue" stroke-dasharray="5,2" d="M77.7857,-204.875C72.3093,-213.596 66.0683,-223.536 60.2336,-232.828"/>
<polygon fill="blue" stroke="blue" points="57.1558,-231.148 54.8022,-241.478 63.084,-234.87 57.1558,-231.148"/>
</g>
<!-- 19&#45;&gt;29 -->
<g id="edge10" class="edge"><title>19&#45;&gt;29</title>
<path fill="none" stroke="blue" stroke-dasharray="5,2" d="M93.4047,-204.648C93.4047,-251.462 93.4047,-353.356 93.4047,-407.141"/>
<polygon fill="blue" stroke="blue" points="89.9048,-407.226 93.4047,-417.226 96.9048,-407.226 89.9048,-407.226"/>
</g>
<!-- 20&#45;&gt;29 -->
<g id="edge4" class="edge"><title>20&#45;&gt;29</title>
<path fill="none" stroke="blue" stroke-dasharray="5,2" d="M226.252,-284.882C219.803,-308.435 205.542,-351.57 181.405,-381 166.849,-398.748 145.862,-413.566 128.034,-424.152"/>
<polygon fill="blue" stroke="blue" points="125.99,-421.29 119.05,-429.295 129.467,-427.365 125.99,-421.29"/>
</g>
<!-- 20&#45;&gt;48 -->
<g id="edge11" class="edge"><title>20&#45;&gt;48</title>
<path fill="none" stroke="blue" stroke-dasharray="5,2" d="M215.566,-283.375C205.276,-294.037 191.193,-308.629 178.498,-321.782"/>
<polygon fill="blue" stroke="blue" points="175.65,-319.694 171.224,-329.32 180.687,-324.555 175.65,-319.694"/>
</g>
<!-- 48&#45;&gt;29 -->
<g id="edge1" class="edge"><title>48&#45;&gt;29</title>
<path fill="none" stroke="blue" stroke-dasharray="5,2" d="M131.786,-380.875C126.309,-389.596 120.068,-399.536 114.234,-408.828"/>
<polygon fill="blue" stroke="blue" points="111.156,-407.148 108.802,-417.478 117.084,-410.87 111.156,-407.148"/>
</g>
<!-- Key -->
<g id="node7" class="node"><title>Key</title>
<text text-anchor="start" x="221.405" y="-81.3" font-family="Times,serif" font-weight="bold" font-size="14.00">Key</text>
<text text-anchor="start" x="183.405" y="-65.8" font-family="Times,serif" font-size="14.00">Direct Path</text>
<text text-anchor="start" x="258.905" y="-65.8" font-family="Times,serif" font-size="14.00" fill="red">⟶</text>
<text text-anchor="start" x="183.405" y="-50.8" font-family="Times,serif" font-size="14.00">Indirect Path</text>
<text text-anchor="start" x="255.405" y="-50.8" font-family="Times,serif" font-size="14.00" fill="blue">→ ⤏</text>
<polygon fill="none" stroke="black" stroke-dasharray="1,5" points="181.405,-45.5 181.405,-94.5 285.405,-94.5 285.405,-45.5 181.405,-45.5"/>
</g>
</g>
</svg>
