<?xml version="1.0" encoding="UTF-8" standalone="no"?>
<!DOCTYPE svg PUBLIC "-//W3C//DTD SVG 1.1//EN"
 "http://www.w3.org/Graphics/SVG/1.1/DTD/svg11.dtd">
<!-- Generated by graphviz version 2.30.1 (20180420.1509)
 -->
<!-- Title: stable Pages: 1 -->
<svg width="269pt" height="301pt"
 viewBox="0.00 0.00 269.00 301.00" xmlns="http://www.w3.org/2000/svg" xmlns:xlink="http://www.w3.org/1999/xlink">
<g id="graph0" class="graph" transform="scale(1 1) rotate(0) translate(4 297)">
<title>stable</title>
<polygon fill="white" stroke="white" points="-4,5 -4,-297 266,-297 266,5 -4,5"/>
<text text-anchor="middle" x="130.5" y="-7.8" font-family="Times,serif" font-size="14.00">stable&#45;4.4_amd64 (2020&#45;11&#45;25)</text>
<!-- 13 -->
<g id="node1" class="node"><title>13</title>
<polygon fill="yellowgreen" stroke="yellowgreen" points="72.5,-292.5 21.5,-292.5 21.5,-241.5 72.5,-241.5 72.5,-292.5"/>
<text text-anchor="middle" x="47" y="-263.3" font-family="Times,serif" font-size="14.00">4.4.30</text>
</g>
<!-- 40 -->
<g id="node2" class="node"><title>40</title>
<polygon fill="yellowgreen" stroke="yellowgreen" points="99.5,-204.5 48.5,-204.5 48.5,-153.5 99.5,-153.5 99.5,-204.5"/>
<text text-anchor="middle" x="74" y="-175.3" font-family="Times,serif" font-size="14.00">4.4.29</text>
</g>
<!-- 40&#45;&gt;13 -->
<g id="edge1" class="edge"><title>40&#45;&gt;13</title>
<path fill="none" stroke="blue" stroke-dasharray="5,2" d="M66.1905,-204.875C63.5652,-213.237 60.5885,-222.718 57.7764,-231.675"/>
<polygon fill="blue" stroke="blue" points="54.3549,-230.889 54.6987,-241.478 61.0335,-232.986 54.3549,-230.889"/>
</g>
<!-- 46 -->
<g id="node3" class="node"><title>46</title>
<polygon fill="salmon" stroke="salmon" points="88.1457,-75.6079 47,-88.1475 5.85431,-75.6079 21.5706,-55.3184 72.4294,-55.3184 88.1457,-75.6079"/>
<polygon fill="none" stroke="salmon" points="94.9035,-77.7628 47,-92.362 -0.90354,-77.7628 19.6057,-51.2856 74.3943,-51.2856 94.9035,-77.7628"/>
<text text-anchor="middle" x="47" y="-66.3" font-family="Times,serif" font-size="14.00">4.3.40</text>
</g>
<!-- 46&#45;&gt;13 -->
<g id="edge2" class="edge"><title>46&#45;&gt;13</title>
<path fill="none" stroke="red" stroke-width="2" d="M44.4947,-91.8929C41.6586,-118.258 37.7122,-164.997 40,-205 40.489,-213.55 41.3604,-222.741 42.3261,-231.328"/>
<polygon fill="red" stroke="red" points="38.8701,-231.906 43.5314,-241.42 45.8207,-231.076 38.8701,-231.906"/>
</g>
<!-- 46&#45;&gt;40 -->
<g id="edge3" class="edge"><title>46&#45;&gt;40</title>
<path fill="none" stroke="red" stroke-width="2" d="M52.0152,-90.8751C55.7377,-105.627 60.9077,-126.116 65.2989,-143.518"/>
<polygon fill="red" stroke="red" points="61.9372,-144.501 67.7776,-153.341 68.7245,-142.788 61.9372,-144.501"/>
</g>
<!-- Key -->
<g id="node4" class="node"><title>Key</title>
<text text-anchor="start" x="175" y="-81.3" font-family="Times,serif" font-weight="bold" font-size="14.00">Key</text>
<text text-anchor="start" x="137" y="-65.8" font-family="Times,serif" font-size="14.00">Direct Path</text>
<text text-anchor="start" x="212.5" y="-65.8" font-family="Times,serif" font-size="14.00" fill="red">⟶</text>
<text text-anchor="start" x="137" y="-50.8" font-family="Times,serif" font-size="14.00">Indirect Path</text>
<text text-anchor="start" x="209" y="-50.8" font-family="Times,serif" font-size="14.00" fill="blue">→ ⤏</text>
<polygon fill="none" stroke="black" stroke-dasharray="1,5" points="135,-45.5 135,-94.5 239,-94.5 239,-45.5 135,-45.5"/>
</g>
</g>
</svg>
