<?xml version="1.0" encoding="UTF-8" standalone="no"?>
<!DOCTYPE svg PUBLIC "-//W3C//DTD SVG 1.1//EN"
 "http://www.w3.org/Graphics/SVG/1.1/DTD/svg11.dtd">
<!-- Generated by graphviz version 2.30.1 (20180420.1509)
 -->
<!-- Title: stable Pages: 1 -->
<svg width="2439pt" height="709pt"
 viewBox="0.00 0.00 2439.23 709.00" xmlns="http://www.w3.org/2000/svg" xmlns:xlink="http://www.w3.org/1999/xlink">
<g id="graph0" class="graph" transform="scale(1 1) rotate(0) translate(4 705)">
<title>stable</title>
<polygon fill="white" stroke="white" points="-4,5 -4,-705 2436.23,-705 2436.23,5 -4,5"/>
<text text-anchor="middle" x="1215.62" y="-7.8" font-family="Times,serif" font-size="14.00">stable&#45;4.4_amd64 (2020&#45;11&#45;26)</text>
<!-- 1 -->
<g id="node1" class="node"><title>1</title>
<polygon fill="yellowgreen" stroke="yellowgreen" points="1399.23,-357 1355.23,-357 1355.23,-313 1399.23,-313 1399.23,-357"/>
<text text-anchor="middle" x="1377.23" y="-331.3" font-family="Times,serif" font-size="14.00">4.4.8</text>
</g>
<!-- 15 -->
<g id="node8" class="node"><title>15</title>
<polygon fill="yellowgreen" stroke="yellowgreen" points="1927.73,-612.5 1876.73,-612.5 1876.73,-561.5 1927.73,-561.5 1927.73,-612.5"/>
<text text-anchor="middle" x="1902.23" y="-583.3" font-family="Times,serif" font-size="14.00">4.4.13</text>
</g>
<!-- 1&#45;&gt;15 -->
<g id="edge7" class="edge"><title>1&#45;&gt;15</title>
<path fill="none" stroke="blue" stroke-dasharray="5,2" d="M1399.38,-341.055C1501.87,-364.501 1925.59,-461.978 1934.23,-473 1952.16,-495.867 1940.21,-528.29 1926.09,-552.544"/>
<polygon fill="blue" stroke="blue" points="1923.1,-550.726 1920.85,-561.078 1929.07,-554.393 1923.1,-550.726"/>
</g>
<!-- 2 -->
<g id="node2" class="node"><title>2</title>
<polygon fill="yellowgreen" stroke="yellowgreen" points="1425.73,-612.5 1374.73,-612.5 1374.73,-561.5 1425.73,-561.5 1425.73,-612.5"/>
<text text-anchor="middle" x="1400.23" y="-583.3" font-family="Times,serif" font-size="14.00">4.4.12</text>
</g>
<!-- 1&#45;&gt;2 -->
<g id="edge26" class="edge"><title>1&#45;&gt;2</title>
<path fill="none" stroke="blue" stroke-dasharray="5,2" d="M1389.51,-357.166C1394.87,-367.59 1400.53,-380.564 1403.23,-393 1415,-447.178 1410.31,-511.938 1405.51,-550.974"/>
<polygon fill="blue" stroke="blue" points="1401.99,-550.904 1404.17,-561.272 1408.93,-551.808 1401.99,-550.904"/>
</g>
<!-- 8 -->
<g id="node6" class="node"><title>8</title>
<polygon fill="yellowgreen" stroke="yellowgreen" points="1323.23,-437 1279.23,-437 1279.23,-393 1323.23,-393 1323.23,-437"/>
<text text-anchor="middle" x="1301.23" y="-411.3" font-family="Times,serif" font-size="14.00">4.4.9</text>
</g>
<!-- 1&#45;&gt;8 -->
<g id="edge30" class="edge"><title>1&#45;&gt;8</title>
<path fill="none" stroke="blue" stroke-dasharray="5,2" d="M1356.46,-357.314C1347.93,-366.069 1337.93,-376.334 1328.8,-385.704"/>
<polygon fill="blue" stroke="blue" points="1326.18,-383.377 1321.71,-392.982 1331.2,-388.262 1326.18,-383.377"/>
</g>
<!-- 16 -->
<g id="node9" class="node"><title>16</title>
<polygon fill="yellowgreen" stroke="yellowgreen" points="774.732,-612.5 723.732,-612.5 723.732,-561.5 774.732,-561.5 774.732,-612.5"/>
<text text-anchor="middle" x="749.232" y="-583.3" font-family="Times,serif" font-size="14.00">4.4.19</text>
</g>
<!-- 1&#45;&gt;16 -->
<g id="edge34" class="edge"><title>1&#45;&gt;16</title>
<path fill="none" stroke="blue" stroke-dasharray="5,2" d="M1355.11,-336.059C1269.07,-336.657 957.348,-342.344 875.232,-393 815.391,-429.915 778.337,-507.079 760.98,-551.849"/>
<polygon fill="blue" stroke="blue" points="757.625,-550.828 757.379,-561.42 764.177,-553.293 757.625,-550.828"/>
</g>
<!-- 5 -->
<g id="node5" class="node"><title>5</title>
<polygon fill="yellowgreen" stroke="yellowgreen" points="1292.73,-612.5 1241.73,-612.5 1241.73,-561.5 1292.73,-561.5 1292.73,-612.5"/>
<text text-anchor="middle" x="1267.23" y="-583.3" font-family="Times,serif" font-size="14.00">4.4.17</text>
</g>
<!-- 1&#45;&gt;5 -->
<g id="edge48" class="edge"><title>1&#45;&gt;5</title>
<path fill="none" stroke="blue" stroke-dasharray="5,2" d="M1367.85,-357.315C1348.73,-400.779 1305.1,-499.945 1282.08,-552.257"/>
<polygon fill="blue" stroke="blue" points="1278.86,-550.893 1278.03,-561.456 1285.26,-553.712 1278.86,-550.893"/>
</g>
<!-- 38 -->
<g id="node27" class="node"><title>38</title>
<polygon fill="yellowgreen" stroke="yellowgreen" points="1094.73,-524.5 1043.73,-524.5 1043.73,-473.5 1094.73,-473.5 1094.73,-524.5"/>
<text text-anchor="middle" x="1069.23" y="-495.3" font-family="Times,serif" font-size="14.00">4.4.10</text>
</g>
<!-- 1&#45;&gt;38 -->
<g id="edge52" class="edge"><title>1&#45;&gt;38</title>
<path fill="none" stroke="blue" stroke-dasharray="5,2" d="M1355.17,-345.326C1332.68,-355.371 1297.35,-372.676 1270.23,-393 1248.35,-409.399 1250.59,-422.79 1227.23,-437 1180.39,-465.496 1159.13,-450.274 1109.23,-473 1107.39,-473.84 1105.53,-474.751 1103.67,-475.712"/>
<polygon fill="blue" stroke="blue" points="1101.52,-472.9 1094.5,-480.83 1104.94,-479.012 1101.52,-472.9"/>
</g>
<!-- 37 -->
<g id="node26" class="node"><title>37</title>
<polygon fill="yellowgreen" stroke="yellowgreen" points="1623.73,-612.5 1572.73,-612.5 1572.73,-561.5 1623.73,-561.5 1623.73,-612.5"/>
<text text-anchor="middle" x="1598.23" y="-583.3" font-family="Times,serif" font-size="14.00">4.4.16</text>
</g>
<!-- 1&#45;&gt;37 -->
<g id="edge71" class="edge"><title>1&#45;&gt;37</title>
<path fill="none" stroke="blue" stroke-dasharray="5,2" d="M1399.31,-339.551C1429.62,-345.506 1484.12,-360.239 1517.23,-393 1561.62,-436.915 1582.91,-508.83 1592.12,-551.372"/>
<polygon fill="blue" stroke="blue" points="1588.71,-552.174 1594.15,-561.263 1595.56,-550.763 1588.71,-552.174"/>
</g>
<!-- 39 -->
<g id="node28" class="node"><title>39</title>
<polygon fill="yellowgreen" stroke="yellowgreen" points="907.732,-612.5 856.732,-612.5 856.732,-561.5 907.732,-561.5 907.732,-612.5"/>
<text text-anchor="middle" x="882.232" y="-583.3" font-family="Times,serif" font-size="14.00">4.4.11</text>
</g>
<!-- 1&#45;&gt;39 -->
<g id="edge79" class="edge"><title>1&#45;&gt;39</title>
<path fill="none" stroke="blue" stroke-dasharray="5,2" d="M1355.16,-337.725C1261.16,-345.175 898.26,-375.021 882.232,-393 877.071,-398.789 879.376,-497.165 881.046,-551.17"/>
<polygon fill="blue" stroke="blue" points="877.553,-551.455 881.369,-561.338 884.55,-551.232 877.553,-551.455"/>
</g>
<!-- 19 -->
<g id="node11" class="node"><title>19</title>
<polygon fill="yellowgreen" stroke="yellowgreen" points="2228.73,-612.5 2177.73,-612.5 2177.73,-561.5 2228.73,-561.5 2228.73,-612.5"/>
<text text-anchor="middle" x="2203.23" y="-583.3" font-family="Times,serif" font-size="14.00">4.4.14</text>
</g>
<!-- 1&#45;&gt;19 -->
<g id="edge103" class="edge"><title>1&#45;&gt;19</title>
<path fill="none" stroke="blue" stroke-dasharray="5,2" d="M1399.25,-336.441C1485.98,-338.995 1810.66,-356.28 2042.23,-473 2089.54,-496.844 2138.64,-533.287 2169.98,-558.303"/>
<polygon fill="blue" stroke="blue" points="2167.96,-561.17 2177.94,-564.718 2172.35,-555.719 2167.96,-561.17"/>
</g>
<!-- 4 -->
<g id="node4" class="node"><title>4</title>
<polygon fill="yellowgreen" stroke="yellowgreen" points="378.732,-612.5 327.732,-612.5 327.732,-561.5 378.732,-561.5 378.732,-612.5"/>
<text text-anchor="middle" x="353.232" y="-583.3" font-family="Times,serif" font-size="14.00">4.4.23</text>
</g>
<!-- 1&#45;&gt;4 -->
<g id="edge111" class="edge"><title>1&#45;&gt;4</title>
<path fill="none" stroke="blue" stroke-dasharray="5,2" d="M1355.08,-337.715C1280.29,-343.625 1030.38,-364.371 825.232,-393 774.502,-400.08 407.152,-436.484 371.232,-473 351.363,-493.199 348.046,-525.965 349.005,-551.026"/>
<polygon fill="blue" stroke="blue" points="345.526,-551.473 349.642,-561.236 352.512,-551.037 345.526,-551.473"/>
</g>
<!-- 34 -->
<g id="node23" class="node"><title>34</title>
<polygon fill="yellowgreen" stroke="yellowgreen" points="1182.73,-700.5 1131.73,-700.5 1131.73,-649.5 1182.73,-649.5 1182.73,-700.5"/>
<text text-anchor="middle" x="1157.23" y="-671.3" font-family="Times,serif" font-size="14.00">4.4.29</text>
</g>
<!-- 1&#45;&gt;34 -->
<g id="edge121" class="edge"><title>1&#45;&gt;34</title>
<path fill="none" stroke="blue" stroke-dasharray="5,2" d="M1397.82,-357.237C1406.27,-367.275 1415.24,-379.914 1420.23,-393 1455.18,-484.531 1495.61,-536.634 1434.23,-613 1404.29,-650.252 1260.49,-666.083 1192.72,-671.56"/>
<polygon fill="blue" stroke="blue" points="1192.22,-668.088 1182.52,-672.352 1192.76,-675.067 1192.22,-668.088"/>
</g>
<!-- 24 -->
<g id="node15" class="node"><title>24</title>
<polygon fill="yellowgreen" stroke="yellowgreen" points="2000.73,-612.5 1949.73,-612.5 1949.73,-561.5 2000.73,-561.5 2000.73,-612.5"/>
<text text-anchor="middle" x="1975.23" y="-583.3" font-family="Times,serif" font-size="14.00">4.4.15</text>
</g>
<!-- 1&#45;&gt;24 -->
<g id="edge131" class="edge"><title>1&#45;&gt;24</title>
<path fill="none" stroke="blue" stroke-dasharray="5,2" d="M1399.31,-338.088C1455.13,-343.687 1606.15,-360.84 1728.23,-393 1782.76,-407.364 1794.09,-418.154 1847.23,-437 1894.12,-453.629 1920.51,-435.524 1953.23,-473 1971.87,-494.339 1976.61,-526.692 1977.13,-551.32"/>
<polygon fill="blue" stroke="blue" points="1973.63,-551.344 1977.13,-561.347 1980.63,-551.349 1973.63,-551.344"/>
</g>
<!-- 3 -->
<g id="node3" class="node"><title>3</title>
<ellipse fill="lightgrey" stroke="lightgrey" cx="200.232" cy="-587" rx="33.2948" ry="18"/>
<text text-anchor="middle" x="200.232" y="-583.3" font-family="Times,serif" font-size="14.00">4.3.38</text>
</g>
<!-- 3&#45;&gt;34 -->
<g id="edge35" class="edge"><title>3&#45;&gt;34</title>
<path fill="none" stroke="blue" stroke-dasharray="5,2" d="M227.433,-597.635C243.939,-603.069 265.551,-609.46 285.232,-613 606.015,-670.692 1002.29,-674.517 1121.62,-674.252"/>
<polygon fill="blue" stroke="blue" points="1121.67,-677.752 1131.66,-674.219 1121.65,-670.752 1121.67,-677.752"/>
</g>
<!-- 47 -->
<g id="node32" class="node"><title>47</title>
<polygon fill="yellowgreen" stroke="yellowgreen" points="190.732,-700.5 139.732,-700.5 139.732,-649.5 190.732,-649.5 190.732,-700.5"/>
<text text-anchor="middle" x="165.232" y="-671.3" font-family="Times,serif" font-size="14.00">4.4.26</text>
</g>
<!-- 3&#45;&gt;47 -->
<g id="edge50" class="edge"><title>3&#45;&gt;47</title>
<path fill="none" stroke="blue" stroke-dasharray="5,2" d="M193.317,-604.991C189.261,-614.956 183.991,-627.907 179.112,-639.894"/>
<polygon fill="blue" stroke="blue" points="175.843,-638.643 175.315,-649.224 182.326,-641.281 175.843,-638.643"/>
</g>
<!-- 21 -->
<g id="node12" class="node"><title>21</title>
<polygon fill="yellowgreen" stroke="yellowgreen" points="367.732,-700.5 316.732,-700.5 316.732,-649.5 367.732,-649.5 367.732,-700.5"/>
<text text-anchor="middle" x="342.232" y="-671.3" font-family="Times,serif" font-size="14.00">4.4.30</text>
</g>
<!-- 3&#45;&gt;21 -->
<g id="edge94" class="edge"><title>3&#45;&gt;21</title>
<path fill="none" stroke="blue" stroke-dasharray="5,2" d="M221.491,-600.875C244.291,-614.683 280.843,-636.821 307.764,-653.125"/>
<polygon fill="blue" stroke="blue" points="306.124,-656.224 316.491,-658.41 309.751,-650.236 306.124,-656.224"/>
</g>
<!-- 36 -->
<g id="node25" class="node"><title>36</title>
<polygon fill="yellowgreen" stroke="yellowgreen" points="286.732,-700.5 235.732,-700.5 235.732,-649.5 286.732,-649.5 286.732,-700.5"/>
<text text-anchor="middle" x="261.232" y="-671.3" font-family="Times,serif" font-size="14.00">4.4.27</text>
</g>
<!-- 3&#45;&gt;36 -->
<g id="edge100" class="edge"><title>3&#45;&gt;36</title>
<path fill="none" stroke="blue" stroke-dasharray="5,2" d="M211.705,-604.176C219.052,-614.534 228.851,-628.349 237.793,-640.956"/>
<polygon fill="blue" stroke="blue" points="235.166,-643.302 243.807,-649.433 240.876,-639.252 235.166,-643.302"/>
</g>
<!-- 4&#45;&gt;47 -->
<g id="edge4" class="edge"><title>4&#45;&gt;47</title>
<path fill="none" stroke="blue" stroke-dasharray="5,2" d="M327.877,-599.598C294.848,-614.708 236.955,-641.191 199.889,-658.146"/>
<polygon fill="blue" stroke="blue" points="198.122,-655.106 190.484,-662.448 201.034,-661.471 198.122,-655.106"/>
</g>
<!-- 4&#45;&gt;36 -->
<g id="edge98" class="edge"><title>4&#45;&gt;36</title>
<path fill="none" stroke="blue" stroke-dasharray="5,2" d="M327.605,-611.956C317.237,-621.647 305.139,-632.956 294.132,-643.245"/>
<polygon fill="blue" stroke="blue" points="291.637,-640.787 286.722,-650.173 296.417,-645.901 291.637,-640.787"/>
</g>
<!-- 4&#45;&gt;34 -->
<g id="edge120" class="edge"><title>4&#45;&gt;34</title>
<path fill="none" stroke="blue" stroke-dasharray="5,2" d="M378.638,-599.034C391.469,-604.133 407.42,-609.762 422.232,-613 686.174,-670.695 1014.35,-674.723 1121.56,-674.356"/>
<polygon fill="blue" stroke="blue" points="1121.83,-677.855 1131.81,-674.305 1121.79,-670.855 1121.83,-677.855"/>
</g>
<!-- 4&#45;&gt;21 -->
<g id="edge140" class="edge"><title>4&#45;&gt;21</title>
<path fill="none" stroke="blue" stroke-dasharray="5,2" d="M350.05,-612.875C348.992,-621.147 347.794,-630.514 346.659,-639.386"/>
<polygon fill="blue" stroke="blue" points="343.165,-639.115 345.368,-649.478 350.109,-640.003 343.165,-639.115"/>
</g>
<!-- 8&#45;&gt;34 -->
<g id="edge6" class="edge"><title>8&#45;&gt;34</title>
<path fill="none" stroke="blue" stroke-dasharray="5,2" d="M1280.69,-437.104C1271.31,-447.409 1260.47,-460.303 1252.23,-473 1216.51,-528.03 1186.34,-598.601 1170.1,-639.811"/>
<polygon fill="blue" stroke="blue" points="1166.74,-638.792 1166.37,-649.381 1173.26,-641.334 1166.74,-638.792"/>
</g>
<!-- 8&#45;&gt;39 -->
<g id="edge32" class="edge"><title>8&#45;&gt;39</title>
<path fill="none" stroke="blue" stroke-dasharray="5,2" d="M1278.87,-428.709C1273.77,-431.511 1268.34,-434.413 1263.23,-437 1229.17,-454.245 1216.11,-450.54 1185.23,-473 1159.8,-491.502 1164.37,-509.097 1137.23,-525 1066.5,-566.449 969.091,-579.769 917.54,-584.024"/>
<polygon fill="blue" stroke="blue" points="917.269,-580.534 907.562,-584.78 917.798,-587.514 917.269,-580.534"/>
</g>
<!-- 8&#45;&gt;2 -->
<g id="edge36" class="edge"><title>8&#45;&gt;2</title>
<path fill="none" stroke="blue" stroke-dasharray="5,2" d="M1305.11,-437.387C1309.97,-460.366 1319.86,-497.313 1337.23,-525 1345.24,-537.765 1356.47,-549.778 1367.24,-559.712"/>
<polygon fill="blue" stroke="blue" points="1365.14,-562.532 1374.94,-566.559 1369.79,-557.3 1365.14,-562.532"/>
</g>
<!-- 8&#45;&gt;4 -->
<g id="edge47" class="edge"><title>8&#45;&gt;4</title>
<path fill="none" stroke="blue" stroke-dasharray="5,2" d="M1278.99,-417.424C1145.18,-425.994 452.946,-470.443 448.232,-473 422.838,-486.774 427.69,-502.777 409.232,-525 401.266,-534.59 392.272,-544.683 383.859,-553.837"/>
<polygon fill="blue" stroke="blue" points="381.196,-551.561 376.964,-561.274 386.33,-556.32 381.196,-551.561"/>
</g>
<!-- 8&#45;&gt;15 -->
<g id="edge70" class="edge"><title>8&#45;&gt;15</title>
<path fill="none" stroke="blue" stroke-dasharray="5,2" d="M1323.33,-417.651C1431.81,-425.806 1903.06,-461.834 1913.23,-473 1932.34,-493.965 1926.49,-527.065 1917.7,-552.033"/>
<polygon fill="blue" stroke="blue" points="1914.39,-550.908 1914.1,-561.499 1920.93,-553.397 1914.39,-550.908"/>
</g>
<!-- 8&#45;&gt;19 -->
<g id="edge104" class="edge"><title>8&#45;&gt;19</title>
<path fill="none" stroke="blue" stroke-dasharray="5,2" d="M1323.53,-416.855C1424.47,-420.887 1839.17,-439.235 1964.23,-473 2041.34,-493.818 2124.05,-538.545 2169.12,-565.059"/>
<polygon fill="blue" stroke="blue" points="2167.5,-568.167 2177.88,-570.265 2171.07,-562.149 2167.5,-568.167"/>
</g>
<!-- 8&#45;&gt;38 -->
<g id="edge110" class="edge"><title>8&#45;&gt;38</title>
<path fill="none" stroke="blue" stroke-dasharray="5,2" d="M1278.9,-430.408C1274.49,-432.855 1269.81,-435.187 1265.23,-437 1199.08,-463.224 1174.97,-445.77 1109.23,-473 1107.42,-473.752 1105.59,-474.583 1103.77,-475.471"/>
<polygon fill="blue" stroke="blue" points="1101.96,-472.471 1094.81,-480.291 1105.28,-478.635 1101.96,-472.471"/>
</g>
<!-- 8&#45;&gt;37 -->
<g id="edge113" class="edge"><title>8&#45;&gt;37</title>
<path fill="none" stroke="blue" stroke-dasharray="5,2" d="M1323.56,-428.778C1375.01,-458.23 1502.24,-531.054 1563.79,-566.284"/>
<polygon fill="blue" stroke="blue" points="1562.31,-569.471 1572.73,-571.401 1565.79,-563.396 1562.31,-569.471"/>
</g>
<!-- 8&#45;&gt;5 -->
<g id="edge118" class="edge"><title>8&#45;&gt;5</title>
<path fill="none" stroke="blue" stroke-dasharray="5,2" d="M1281.8,-437.027C1273.77,-447.117 1265.38,-459.858 1261.23,-473 1253.23,-498.343 1255.36,-528.457 1259.15,-551.222"/>
<polygon fill="blue" stroke="blue" points="1255.72,-551.923 1260.97,-561.121 1262.6,-550.652 1255.72,-551.923"/>
</g>
<!-- 8&#45;&gt;24 -->
<g id="edge132" class="edge"><title>8&#45;&gt;24</title>
<path fill="none" stroke="blue" stroke-dasharray="5,2" d="M1323.24,-416.598C1429.32,-419.661 1884.84,-434.961 1934.23,-473 1958.21,-491.467 1968.18,-525.273 1972.32,-551.114"/>
<polygon fill="blue" stroke="blue" points="1968.88,-551.851 1973.71,-561.28 1975.82,-550.897 1968.88,-551.851"/>
</g>
<!-- 8&#45;&gt;16 -->
<g id="edge133" class="edge"><title>8&#45;&gt;16</title>
<path fill="none" stroke="blue" stroke-dasharray="5,2" d="M1279.14,-429.304C1274.03,-432.075 1268.53,-434.814 1263.23,-437 1209.4,-459.228 1184.12,-438.452 1137.23,-473 1115,-489.38 1126.54,-510.199 1103.23,-525 1006.23,-586.587 959.957,-538.766 847.232,-561 826.301,-565.128 803.163,-570.969 784.628,-575.967"/>
<polygon fill="blue" stroke="blue" points="783.571,-572.628 774.848,-578.641 785.417,-579.38 783.571,-572.628"/>
</g>
<!-- 40 -->
<g id="node29" class="node"><title>40</title>
<polygon fill="yellowgreen" stroke="yellowgreen" points="584.732,-612.5 533.732,-612.5 533.732,-561.5 584.732,-561.5 584.732,-612.5"/>
<text text-anchor="middle" x="559.232" y="-583.3" font-family="Times,serif" font-size="14.00">4.4.20</text>
</g>
<!-- 8&#45;&gt;40 -->
<g id="edge134" class="edge"><title>8&#45;&gt;40</title>
<path fill="none" stroke="blue" stroke-dasharray="5,2" d="M1278.99,-417.343C1157.91,-424.698 583.238,-460.242 570.232,-473 549.95,-492.896 549.02,-526.211 552.08,-551.526"/>
<polygon fill="blue" stroke="blue" points="548.625,-552.088 553.532,-561.478 555.552,-551.078 548.625,-552.088"/>
</g>
<!-- 12 -->
<g id="node7" class="node"><title>12</title>
<ellipse fill="lightgrey" stroke="lightgrey" cx="867.232" cy="-335" rx="33.2948" ry="18"/>
<text text-anchor="middle" x="867.232" y="-331.3" font-family="Times,serif" font-size="14.00">4.3.26</text>
</g>
<!-- 12&#45;&gt;2 -->
<g id="edge19" class="edge"><title>12&#45;&gt;2</title>
<path fill="none" stroke="blue" stroke-dasharray="5,2" d="M893.532,-346.155C915.234,-355.608 945.693,-371.479 966.232,-393 1011.79,-440.742 980.313,-486.948 1034.23,-525 1083.15,-559.521 1242.45,-549.652 1301.23,-561 1322.53,-565.111 1346.08,-571.002 1364.87,-576.033"/>
<polygon fill="blue" stroke="blue" points="1364.2,-579.48 1374.77,-578.723 1366.04,-572.724 1364.2,-579.48"/>
</g>
<!-- 12&#45;&gt;38 -->
<g id="edge27" class="edge"><title>12&#45;&gt;38</title>
<path fill="none" stroke="blue" stroke-dasharray="5,2" d="M893.245,-346.306C929.194,-360.688 990.63,-385.825 999.232,-393 1022.59,-412.488 1041.21,-441.73 1053.35,-464.409"/>
<polygon fill="blue" stroke="blue" points="1050.29,-466.102 1058,-473.367 1056.5,-462.879 1050.29,-466.102"/>
</g>
<!-- 12&#45;&gt;8 -->
<g id="edge37" class="edge"><title>12&#45;&gt;8</title>
<path fill="none" stroke="blue" stroke-dasharray="5,2" d="M898.096,-341.547C977.419,-355.803 1187.84,-393.621 1268.83,-408.177"/>
<polygon fill="blue" stroke="blue" points="1268.47,-411.668 1278.93,-409.992 1269.71,-404.778 1268.47,-411.668"/>
</g>
<!-- 12&#45;&gt;39 -->
<g id="edge44" class="edge"><title>12&#45;&gt;39</title>
<path fill="none" stroke="blue" stroke-dasharray="5,2" d="M847.407,-349.651C834.414,-359.882 818.532,-375.152 811.232,-393 803.828,-411.1 807.274,-417.849 811.232,-437 820.01,-479.47 843.223,-523.8 860.737,-552.948"/>
<polygon fill="blue" stroke="blue" points="857.759,-554.788 865.966,-561.487 863.729,-551.132 857.759,-554.788"/>
</g>
<!-- 12&#45;&gt;4 -->
<g id="edge60" class="edge"><title>12&#45;&gt;4</title>
<path fill="none" stroke="blue" stroke-dasharray="5,2" d="M839.731,-345.17C827.929,-348.997 813.954,-353.383 801.232,-357 699.414,-385.95 404.333,-389.533 339.232,-473 322.028,-495.057 328.121,-527.255 337.012,-551.644"/>
<polygon fill="blue" stroke="blue" points="333.868,-553.214 340.792,-561.233 340.381,-550.647 333.868,-553.214"/>
</g>
<!-- 18 -->
<g id="node10" class="node"><title>18</title>
<ellipse fill="lightgrey" stroke="lightgrey" cx="1061.23" cy="-255" rx="33.2948" ry="18"/>
<text text-anchor="middle" x="1061.23" y="-251.3" font-family="Times,serif" font-size="14.00">4.3.25</text>
</g>
<!-- 18&#45;&gt;8 -->
<g id="edge1" class="edge"><title>18&#45;&gt;8</title>
<path fill="none" stroke="blue" stroke-dasharray="5,2" d="M1067.26,-272.878C1076.12,-295.295 1094.74,-334.653 1123.23,-357 1166.52,-390.954 1230.56,-404.935 1268.86,-410.506"/>
<polygon fill="blue" stroke="blue" points="1268.57,-413.998 1278.94,-411.864 1269.5,-407.06 1268.57,-413.998"/>
</g>
<!-- 18&#45;&gt;2 -->
<g id="edge13" class="edge"><title>18&#45;&gt;2</title>
<path fill="none" stroke="blue" stroke-dasharray="5,2" d="M1091.05,-263.147C1146.39,-277.913 1265.43,-316.951 1332.23,-393 1372.32,-438.644 1389.2,-509.429 1395.98,-551.399"/>
<polygon fill="blue" stroke="blue" points="1392.54,-552.052 1397.5,-561.415 1399.46,-551.004 1392.54,-552.052"/>
</g>
<!-- 18&#45;&gt;38 -->
<g id="edge41" class="edge"><title>18&#45;&gt;38</title>
<path fill="none" stroke="blue" stroke-dasharray="5,2" d="M1062.76,-273.221C1065.14,-293.974 1070.91,-329.485 1084.23,-357 1093.19,-375.491 1106.4,-373.624 1113.23,-393 1119.74,-411.442 1119.24,-418.391 1113.23,-437 1110.04,-446.878 1104.59,-456.504 1098.59,-465.082"/>
<polygon fill="blue" stroke="blue" points="1095.64,-463.173 1092.47,-473.28 1101.25,-467.361 1095.64,-463.173"/>
</g>
<!-- 18&#45;&gt;39 -->
<g id="edge46" class="edge"><title>18&#45;&gt;39</title>
<path fill="none" stroke="blue" stroke-dasharray="5,2" d="M1031.74,-263.348C1015.39,-267.406 994.696,-272.518 976.232,-277 909.187,-293.274 874.847,-265.06 825.232,-313 757.436,-378.508 773.938,-441.78 818.232,-525 825.674,-538.982 837.514,-551.603 848.999,-561.688"/>
<polygon fill="blue" stroke="blue" points="846.92,-564.513 856.834,-568.251 851.415,-559.147 846.92,-564.513"/>
</g>
<!-- 18&#45;&gt;1 -->
<g id="edge66" class="edge"><title>18&#45;&gt;1</title>
<path fill="none" stroke="blue" stroke-dasharray="5,2" d="M1091.52,-262.672C1137.45,-272.894 1227.4,-293.321 1303.23,-313 1317,-316.573 1332.12,-320.809 1345.09,-324.537"/>
<polygon fill="blue" stroke="blue" points="1344.38,-327.975 1354.96,-327.396 1346.33,-321.252 1344.38,-327.975"/>
</g>
<!-- 18&#45;&gt;4 -->
<g id="edge73" class="edge"><title>18&#45;&gt;4</title>
<path fill="none" stroke="blue" stroke-dasharray="5,2" d="M1031.82,-263.674C1015.49,-267.831 994.792,-272.933 976.232,-277 893.13,-295.209 871.684,-296.471 788.232,-313 692.554,-331.95 669.103,-339.055 573.232,-357 479.292,-374.583 448.245,-353.471 361.232,-393 294.707,-423.221 229.001,-460.447 263.232,-525 269.477,-536.778 296.23,-554.129 318.959,-567.318"/>
<polygon fill="blue" stroke="blue" points="317.319,-570.412 327.74,-572.327 320.788,-564.332 317.319,-570.412"/>
</g>
<!-- 22 -->
<g id="node13" class="node"><title>22</title>
<polygon fill="salmon" stroke="salmon" points="908.378,-75.6079 867.232,-88.1475 826.086,-75.6079 841.802,-55.3184 892.661,-55.3184 908.378,-75.6079"/>
<polygon fill="none" stroke="salmon" points="915.135,-77.7628 867.232,-92.362 819.328,-77.7628 839.838,-51.2856 894.626,-51.2856 915.135,-77.7628"/>
<text text-anchor="middle" x="867.232" y="-66.3" font-family="Times,serif" font-size="14.00">4.3.22</text>
</g>
<!-- 22&#45;&gt;38 -->
<g id="edge15" class="edge"><title>22&#45;&gt;38</title>
<path fill="none" stroke="red" stroke-width="2" d="M865.271,-91.8963C863.663,-117.587 863.517,-162.072 877.232,-197 917.822,-300.375 978.602,-295.748 1032.23,-393 1044.5,-415.254 1053.93,-442.347 1060.2,-463.437"/>
<polygon fill="red" stroke="red" points="1056.89,-464.616 1063.02,-473.261 1063.62,-462.683 1056.89,-464.616"/>
</g>
<!-- 29 -->
<g id="node18" class="node"><title>29</title>
<ellipse fill="lightgrey" stroke="lightgrey" cx="612.232" cy="-499" rx="33.2948" ry="18"/>
<text text-anchor="middle" x="612.232" y="-495.3" font-family="Times,serif" font-size="14.00">4.3.31</text>
</g>
<!-- 22&#45;&gt;29 -->
<g id="edge17" class="edge"><title>22&#45;&gt;29</title>
<path fill="none" stroke="blue" d="M822.353,-74.1694C728.734,-83.4706 521.232,-119.282 521.232,-254 521.232,-254 521.232,-254 521.232,-336 521.232,-391.729 562.673,-446.017 589.624,-475.43"/>
<polygon fill="blue" stroke="blue" points="587.392,-478.165 596.795,-483.047 592.489,-473.367 587.392,-478.165"/>
</g>
<!-- 22&#45;&gt;18 -->
<g id="edge39" class="edge"><title>22&#45;&gt;18</title>
<path fill="none" stroke="blue" d="M867.993,-92.1285C870.104,-119.722 877.782,-167.927 905.232,-197 935.05,-228.581 983.788,-242.732 1018.86,-249.03"/>
<polygon fill="blue" stroke="blue" points="1018.37,-252.498 1028.81,-250.675 1019.52,-245.592 1018.37,-252.498"/>
</g>
<!-- 22&#45;&gt;1 -->
<g id="edge49" class="edge"><title>22&#45;&gt;1</title>
<path fill="none" stroke="red" stroke-width="2" d="M883.001,-87.9476C893.606,-98.1905 908.485,-110.489 924.232,-117 1065.06,-175.235 1136.19,-71.9283 1265.23,-153 1320.73,-187.869 1353.09,-261.311 1367.73,-303.135"/>
<polygon fill="red" stroke="red" points="1364.48,-304.442 1371,-312.796 1371.11,-302.201 1364.48,-304.442"/>
</g>
<!-- 23 -->
<g id="node14" class="node"><title>23</title>
<ellipse fill="lightgrey" stroke="lightgrey" cx="1754.23" cy="-499" rx="33.2948" ry="18"/>
<text text-anchor="middle" x="1754.23" y="-495.3" font-family="Times,serif" font-size="14.00">4.3.29</text>
</g>
<!-- 22&#45;&gt;23 -->
<g id="edge53" class="edge"><title>22&#45;&gt;23</title>
<path fill="none" stroke="blue" d="M882.44,-87.7107C893.036,-98.1355 908.116,-110.726 924.232,-117 1143.72,-202.449 1975.23,-18.4686 1975.23,-254 1975.23,-254 1975.23,-254 1975.23,-336 1975.23,-359.417 1844.5,-442.642 1784.14,-479.825"/>
<polygon fill="blue" stroke="blue" points="1782.11,-476.959 1775.42,-485.173 1785.78,-482.924 1782.11,-476.959"/>
</g>
<!-- 22&#45;&gt;3 -->
<g id="edge55" class="edge"><title>22&#45;&gt;3</title>
<path fill="none" stroke="blue" d="M824.974,-70.8215C651.509,-71.2023 3.23182,-83.9979 3.23182,-254 3.23182,-254 3.23182,-254 3.23182,-416 3.23182,-465.175 -9.69546,-487.599 22.2318,-525 55.9597,-564.51 116.47,-578.472 157.475,-583.381"/>
<polygon fill="blue" stroke="blue" points="157.137,-586.864 167.451,-584.443 157.878,-579.904 157.137,-586.864"/>
</g>
<!-- 30 -->
<g id="node19" class="node"><title>30</title>
<ellipse fill="lightgrey" stroke="lightgrey" cx="64.2318" cy="-499" rx="33.2948" ry="18"/>
<text text-anchor="middle" x="64.2318" y="-495.3" font-family="Times,serif" font-size="14.00">4.3.35</text>
</g>
<!-- 22&#45;&gt;30 -->
<g id="edge68" class="edge"><title>22&#45;&gt;30</title>
<path fill="none" stroke="blue" d="M823.487,-72.665C746.116,-77.1154 581.658,-93.4173 458.232,-153 288.581,-234.897 135.451,-410.224 83.2324,-474.095"/>
<polygon fill="blue" stroke="blue" points="80.3975,-472.034 76.8168,-482.006 85.8342,-476.444 80.3975,-472.034"/>
</g>
<!-- 27 -->
<g id="node16" class="node"><title>27</title>
<ellipse fill="lightgrey" stroke="lightgrey" cx="490.232" cy="-499" rx="33.2948" ry="18"/>
<text text-anchor="middle" x="490.232" y="-495.3" font-family="Times,serif" font-size="14.00">4.3.33</text>
</g>
<!-- 22&#45;&gt;27 -->
<g id="edge77" class="edge"><title>22&#45;&gt;27</title>
<path fill="none" stroke="blue" d="M825.226,-70.3899C718.486,-71.2443 445.232,-89.4966 445.232,-254 445.232,-254 445.232,-254 445.232,-336 445.232,-385.518 464.992,-440.546 478.324,-472.037"/>
<polygon fill="blue" stroke="blue" points="475.197,-473.622 482.393,-481.398 481.616,-470.831 475.197,-473.622"/>
</g>
<!-- 22&#45;&gt;8 -->
<g id="edge78" class="edge"><title>22&#45;&gt;8</title>
<path fill="none" stroke="red" stroke-width="2" d="M885.269,-87.0905C896.146,-96.3966 910.513,-108.007 924.232,-117 970.783,-147.516 1100.97,-200.601 1146.23,-233 1188.15,-263.008 1196.58,-273.944 1230.23,-313 1249.7,-335.59 1268.98,-363.456 1282.52,-384.192"/>
<polygon fill="red" stroke="red" points="1279.59,-386.108 1287.96,-392.607 1285.47,-382.308 1279.59,-386.108"/>
</g>
<!-- 22&#45;&gt;12 -->
<g id="edge80" class="edge"><title>22&#45;&gt;12</title>
<path fill="none" stroke="blue" d="M857.355,-89.587C849.327,-105.809 838.638,-130.251 834.232,-153 823.753,-207.106 819.936,-223.775 834.232,-277 837.289,-288.381 843.233,-299.837 849.244,-309.463"/>
<polygon fill="blue" stroke="blue" points="846.5,-311.659 854.936,-318.068 852.338,-307.797 846.5,-311.659"/>
</g>
<!-- 44 -->
<g id="node30" class="node"><title>44</title>
<ellipse fill="lightgrey" stroke="lightgrey" cx="1838.23" cy="-499" rx="33.2948" ry="18"/>
<text text-anchor="middle" x="1838.23" y="-495.3" font-family="Times,serif" font-size="14.00">4.3.28</text>
</g>
<!-- 22&#45;&gt;44 -->
<g id="edge86" class="edge"><title>22&#45;&gt;44</title>
<path fill="none" stroke="blue" d="M882.383,-87.8593C892.956,-98.3468 908.03,-110.951 924.232,-117 1029.43,-156.276 1835.8,-98.9599 1934.23,-153 2016.55,-198.19 2026.65,-270.872 1989.23,-357 1964.86,-413.105 1905.94,-457.035 1869.33,-480.111"/>
<polygon fill="blue" stroke="blue" points="1867.21,-477.301 1860.53,-485.523 1870.88,-483.262 1867.21,-477.301"/>
</g>
<!-- 22&#45;&gt;4 -->
<g id="edge89" class="edge"><title>22&#45;&gt;4</title>
<path fill="none" stroke="red" stroke-width="2" d="M823.859,-72.309C665.152,-78.2553 125.232,-109.131 125.232,-254 125.232,-254 125.232,-254 125.232,-416 125.232,-467.452 126.129,-490.424 164.232,-525 212.766,-569.042 246.181,-537.164 307.232,-561 310.936,-562.446 314.718,-564.128 318.442,-565.923"/>
<polygon fill="red" stroke="red" points="317.007,-569.12 327.505,-570.548 320.189,-562.885 317.007,-569.12"/>
</g>
<!-- 28 -->
<g id="node17" class="node"><title>28</title>
<polygon fill="yellowgreen" stroke="yellowgreen" points="1481.23,-277 1437.23,-277 1437.23,-233 1481.23,-233 1481.23,-277"/>
<text text-anchor="middle" x="1459.23" y="-251.3" font-family="Times,serif" font-size="14.00">4.4.6</text>
</g>
<!-- 22&#45;&gt;28 -->
<g id="edge114" class="edge"><title>22&#45;&gt;28</title>
<path fill="none" stroke="red" stroke-width="2" d="M882.943,-88.0905C893.525,-98.3904 908.4,-110.698 924.232,-117 1018.88,-154.673 1291.63,-104.528 1381.23,-153 1410.13,-168.635 1431.73,-200.054 1444.78,-223.72"/>
<polygon fill="red" stroke="red" points="1441.75,-225.479 1449.52,-232.679 1447.94,-222.204 1441.75,-225.479"/>
</g>
<!-- 31 -->
<g id="node20" class="node"><title>31</title>
<polygon fill="yellowgreen" stroke="yellowgreen" points="1481.23,-197 1437.23,-197 1437.23,-153 1481.23,-153 1481.23,-197"/>
<text text-anchor="middle" x="1459.23" y="-171.3" font-family="Times,serif" font-size="14.00">4.4.5</text>
</g>
<!-- 22&#45;&gt;31 -->
<g id="edge117" class="edge"><title>22&#45;&gt;31</title>
<path fill="none" stroke="red" stroke-width="2" d="M882.929,-88.1245C893.506,-98.438 908.38,-110.748 924.232,-117 1130.26,-198.253 1208.92,-89.9712 1421.23,-153 1423.4,-153.645 1425.59,-154.428 1427.76,-155.308"/>
<polygon fill="red" stroke="red" points="1426.49,-158.579 1437.03,-159.657 1429.46,-152.242 1426.49,-158.579"/>
</g>
<!-- 33 -->
<g id="node22" class="node"><title>33</title>
<ellipse fill="lightgrey" stroke="lightgrey" cx="947.232" cy="-175" rx="33.2948" ry="18"/>
<text text-anchor="middle" x="947.232" y="-171.3" font-family="Times,serif" font-size="14.00">4.3.23</text>
</g>
<!-- 22&#45;&gt;33 -->
<g id="edge127" class="edge"><title>22&#45;&gt;33</title>
<path fill="none" stroke="blue" d="M880.803,-88.4725C893.947,-105.395 913.982,-131.19 928.612,-150.027"/>
<polygon fill="blue" stroke="blue" points="926.012,-152.385 934.91,-158.135 931.54,-148.091 926.012,-152.385"/>
</g>
<!-- 46 -->
<g id="node31" class="node"><title>46</title>
<ellipse fill="lightgrey" stroke="lightgrey" cx="924.232" cy="-415" rx="33.2948" ry="18"/>
<text text-anchor="middle" x="924.232" y="-411.3" font-family="Times,serif" font-size="14.00">4.3.27</text>
</g>
<!-- 22&#45;&gt;46 -->
<g id="edge139" class="edge"><title>22&#45;&gt;46</title>
<path fill="none" stroke="blue" d="M854.594,-88.5172C843.917,-104.45 829.407,-129.065 823.232,-153 800.581,-240.796 778.386,-279.368 825.232,-357 838.621,-379.188 864.133,-393.575 885.905,-402.345"/>
<polygon fill="blue" stroke="blue" points="884.681,-405.624 895.273,-405.876 887.15,-399.074 884.681,-405.624"/>
</g>
<!-- 23&#45;&gt;2 -->
<g id="edge22" class="edge"><title>23&#45;&gt;2</title>
<path fill="none" stroke="blue" stroke-dasharray="5,2" d="M1726.02,-508.782C1709.54,-513.793 1688.29,-520.043 1669.23,-525 1585.99,-546.658 1487.12,-567.955 1435.55,-578.734"/>
<polygon fill="blue" stroke="blue" points="1434.66,-575.345 1425.58,-580.809 1436.08,-582.198 1434.66,-575.345"/>
</g>
<!-- 23&#45;&gt;34 -->
<g id="edge24" class="edge"><title>23&#45;&gt;34</title>
<path fill="none" stroke="blue" stroke-dasharray="5,2" d="M1742.45,-516.034C1722.78,-541.438 1680.61,-590.375 1632.23,-613 1553.92,-649.62 1289.4,-666.998 1192.87,-672.23"/>
<polygon fill="blue" stroke="blue" points="1192.54,-668.743 1182.74,-672.768 1192.91,-675.733 1192.54,-668.743"/>
</g>
<!-- 23&#45;&gt;24 -->
<g id="edge61" class="edge"><title>23&#45;&gt;24</title>
<path fill="none" stroke="blue" stroke-dasharray="5,2" d="M1774.13,-513.422C1780.92,-517.573 1788.71,-521.871 1796.23,-525 1855.55,-549.681 1877.33,-535.34 1936.23,-561 1937.8,-561.685 1939.38,-562.428 1940.96,-563.217"/>
<polygon fill="blue" stroke="blue" points="1939.41,-566.362 1949.86,-568.12 1942.79,-560.23 1939.41,-566.362"/>
</g>
<!-- 23&#45;&gt;15 -->
<g id="edge69" class="edge"><title>23&#45;&gt;15</title>
<path fill="none" stroke="blue" stroke-dasharray="5,2" d="M1775.56,-512.779C1782.18,-516.719 1789.49,-521.056 1796.23,-525 1820.18,-539.014 1847.29,-554.614 1868.1,-566.53"/>
<polygon fill="blue" stroke="blue" points="1866.48,-569.633 1876.9,-571.561 1869.96,-563.557 1866.48,-569.633"/>
</g>
<!-- 23&#45;&gt;37 -->
<g id="edge95" class="edge"><title>23&#45;&gt;37</title>
<path fill="none" stroke="blue" stroke-dasharray="5,2" d="M1731.88,-512.322C1705.92,-526.633 1662.8,-550.403 1632.58,-567.064"/>
<polygon fill="blue" stroke="blue" points="1630.72,-564.095 1623.65,-571.988 1634.1,-570.225 1630.72,-564.095"/>
</g>
<!-- 23&#45;&gt;5 -->
<g id="edge119" class="edge"><title>23&#45;&gt;5</title>
<path fill="none" stroke="blue" stroke-dasharray="5,2" d="M1722.28,-503.972C1655.58,-512.492 1496.81,-533.963 1365.23,-561 1344.33,-565.294 1321.2,-571.143 1302.66,-576.105"/>
<polygon fill="blue" stroke="blue" points="1301.61,-572.762 1292.87,-578.754 1303.44,-579.519 1301.61,-572.762"/>
</g>
<!-- 23&#45;&gt;19 -->
<g id="edge124" class="edge"><title>23&#45;&gt;19</title>
<path fill="none" stroke="blue" stroke-dasharray="5,2" d="M1773.53,-513.619C1780.41,-517.886 1788.4,-522.204 1796.23,-525 1831.02,-537.416 2075.15,-569.573 2167.74,-581.479"/>
<polygon fill="blue" stroke="blue" points="2167.39,-584.962 2177.75,-582.763 2168.28,-578.019 2167.39,-584.962"/>
</g>
<!-- 23&#45;&gt;4 -->
<g id="edge141" class="edge"><title>23&#45;&gt;4</title>
<path fill="none" stroke="blue" stroke-dasharray="5,2" d="M1721.35,-501.163C1531.93,-507.912 583.852,-542.397 455.232,-561 432.644,-564.267 407.757,-570.317 388.221,-575.646"/>
<polygon fill="blue" stroke="blue" points="387.225,-572.291 378.533,-578.349 389.106,-579.033 387.225,-572.291"/>
</g>
<!-- 32 -->
<g id="node21" class="node"><title>32</title>
<polygon fill="yellowgreen" stroke="yellowgreen" points="515.732,-612.5 464.732,-612.5 464.732,-561.5 515.732,-561.5 515.732,-612.5"/>
<text text-anchor="middle" x="490.232" y="-583.3" font-family="Times,serif" font-size="14.00">4.4.21</text>
</g>
<!-- 27&#45;&gt;32 -->
<g id="edge33" class="edge"><title>27&#45;&gt;32</title>
<path fill="none" stroke="blue" stroke-dasharray="5,2" d="M490.232,-517.403C490.232,-527.098 490.232,-539.523 490.232,-551.128"/>
<polygon fill="blue" stroke="blue" points="486.732,-551.453 490.232,-561.453 493.732,-551.453 486.732,-551.453"/>
</g>
<!-- 27&#45;&gt;40 -->
<g id="edge40" class="edge"><title>27&#45;&gt;40</title>
<path fill="none" stroke="blue" stroke-dasharray="5,2" d="M502.887,-515.774C511.329,-526.295 522.734,-540.51 533.075,-553.399"/>
<polygon fill="blue" stroke="blue" points="530.353,-555.599 539.341,-561.208 535.813,-551.218 530.353,-555.599"/>
</g>
<!-- 27&#45;&gt;34 -->
<g id="edge72" class="edge"><title>27&#45;&gt;34</title>
<path fill="none" stroke="blue" stroke-dasharray="5,2" d="M477.121,-515.567C458.631,-539.458 429.832,-585.298 455.232,-613 500.611,-662.493 984.498,-671.96 1121.36,-673.652"/>
<polygon fill="blue" stroke="blue" points="1121.66,-677.156 1131.7,-673.773 1121.74,-670.156 1121.66,-677.156"/>
</g>
<!-- 27&#45;&gt;16 -->
<g id="edge84" class="edge"><title>27&#45;&gt;16</title>
<path fill="none" stroke="blue" stroke-dasharray="5,2" d="M517.949,-509.204C565.296,-524.925 661.677,-556.928 713.825,-574.243"/>
<polygon fill="blue" stroke="blue" points="713.044,-577.672 723.637,-577.501 715.25,-571.028 713.044,-577.672"/>
</g>
<!-- 27&#45;&gt;47 -->
<g id="edge90" class="edge"><title>27&#45;&gt;47</title>
<path fill="none" stroke="blue" stroke-dasharray="5,2" d="M457.204,-500.927C380.924,-503.834 196.115,-515.522 158.232,-561 140.32,-582.503 144.498,-615.042 151.735,-639.69"/>
<polygon fill="blue" stroke="blue" points="148.457,-640.93 154.85,-649.378 155.121,-638.787 148.457,-640.93"/>
</g>
<!-- 27&#45;&gt;4 -->
<g id="edge96" class="edge"><title>27&#45;&gt;4</title>
<path fill="none" stroke="blue" stroke-dasharray="5,2" d="M469.424,-513.062C447.73,-526.68 413.364,-548.253 387.625,-564.41"/>
<polygon fill="blue" stroke="blue" points="385.524,-561.597 378.915,-569.878 389.245,-567.525 385.524,-561.597"/>
</g>
<!-- 35 -->
<g id="node24" class="node"><title>35</title>
<polygon fill="yellowgreen" stroke="yellowgreen" points="653.732,-612.5 602.732,-612.5 602.732,-561.5 653.732,-561.5 653.732,-612.5"/>
<text text-anchor="middle" x="628.232" y="-583.3" font-family="Times,serif" font-size="14.00">4.4.18</text>
</g>
<!-- 27&#45;&gt;35 -->
<g id="edge108" class="edge"><title>27&#45;&gt;35</title>
<path fill="none" stroke="blue" stroke-dasharray="5,2" d="M512.668,-512.55C533.762,-524.521 566.068,-543.301 593.232,-561 593.623,-561.255 594.016,-561.512 594.41,-561.771"/>
<polygon fill="blue" stroke="blue" points="592.55,-564.739 602.792,-567.448 596.475,-558.943 592.55,-564.739"/>
</g>
<!-- 28&#45;&gt;15 -->
<g id="edge2" class="edge"><title>28&#45;&gt;15</title>
<path fill="none" stroke="blue" stroke-dasharray="5,2" d="M1481.27,-257.622C1561.86,-264.879 1841.59,-302.014 1953.23,-473 1965.87,-492.351 1961.12,-503.276 1953.23,-525 1949.19,-536.14 1942.12,-546.668 1934.51,-555.743"/>
<polygon fill="blue" stroke="blue" points="1931.8,-553.53 1927.75,-563.322 1937.02,-558.191 1931.8,-553.53"/>
</g>
<!-- 28&#45;&gt;8 -->
<g id="edge10" class="edge"><title>28&#45;&gt;8</title>
<path fill="none" stroke="blue" stroke-dasharray="5,2" d="M1452.8,-277.242C1445.18,-299.425 1430.62,-334.113 1408.23,-357 1387.11,-378.589 1356.05,-393.885 1332.82,-403.159"/>
<polygon fill="blue" stroke="blue" points="1331.49,-399.922 1323.4,-406.766 1333.99,-406.459 1331.49,-399.922"/>
</g>
<!-- 28&#45;&gt;2 -->
<g id="edge18" class="edge"><title>28&#45;&gt;2</title>
<path fill="none" stroke="blue" stroke-dasharray="5,2" d="M1468.59,-277.198C1472.74,-287.737 1477.15,-300.801 1479.23,-313 1488.49,-367.328 1492.53,-383.518 1479.23,-437 1468.57,-479.873 1443.03,-523.971 1423.86,-552.954"/>
<polygon fill="blue" stroke="blue" points="1420.82,-551.197 1418.13,-561.446 1426.62,-555.109 1420.82,-551.197"/>
</g>
<!-- 28&#45;&gt;37 -->
<g id="edge42" class="edge"><title>28&#45;&gt;37</title>
<path fill="none" stroke="blue" stroke-dasharray="5,2" d="M1477.58,-277.24C1508.09,-314.097 1568.2,-393.594 1591.23,-473 1598.61,-498.422 1600.16,-528.369 1599.98,-551.044"/>
<polygon fill="blue" stroke="blue" points="1596.47,-551.156 1599.77,-561.224 1603.47,-551.295 1596.47,-551.156"/>
</g>
<!-- 28&#45;&gt;34 -->
<g id="edge43" class="edge"><title>28&#45;&gt;34</title>
<path fill="none" stroke="blue" stroke-dasharray="5,2" d="M1481.5,-257.432C1562.04,-262.813 1837.69,-283.059 1920.23,-313 2102.58,-379.149 2370.47,-472.022 2237.23,-613 2200.53,-651.829 1375.49,-669.83 1192.82,-673.348"/>
<polygon fill="blue" stroke="blue" points="1192.62,-669.851 1182.68,-673.541 1192.75,-676.85 1192.62,-669.851"/>
</g>
<!-- 28&#45;&gt;38 -->
<g id="edge56" class="edge"><title>28&#45;&gt;38</title>
<path fill="none" stroke="blue" stroke-dasharray="5,2" d="M1437.14,-266.139C1414.04,-276.97 1376.95,-295.02 1346.23,-313 1291.23,-345.191 1274.93,-350.731 1227.23,-393 1207.89,-410.138 1210.27,-421.998 1189.23,-437 1156.76,-460.157 1138.99,-452.383 1103.57,-470.914"/>
<polygon fill="blue" stroke="blue" points="1101.7,-467.953 1094.7,-475.907 1105.13,-474.054 1101.7,-467.953"/>
</g>
<!-- 28&#45;&gt;4 -->
<g id="edge58" class="edge"><title>28&#45;&gt;4</title>
<path fill="none" stroke="blue" stroke-dasharray="5,2" d="M1437.01,-257.29C1339.15,-263.078 946.068,-287.496 825.232,-313 765.549,-325.597 754.736,-343.585 695.232,-357 561.646,-387.116 508.971,-326.559 389.232,-393 349.417,-415.092 340.304,-430.033 325.232,-473 316.1,-499.033 324.667,-529.431 334.655,-552.138"/>
<polygon fill="blue" stroke="blue" points="331.564,-553.791 338.975,-561.363 337.904,-550.822 331.564,-553.791"/>
</g>
<!-- 28&#45;&gt;39 -->
<g id="edge59" class="edge"><title>28&#45;&gt;39</title>
<path fill="none" stroke="blue" stroke-dasharray="5,2" d="M1437.21,-257.628C1339.59,-265.338 947.599,-301.692 875.232,-393 839.467,-438.126 854.836,-509.561 868.83,-551.699"/>
<polygon fill="blue" stroke="blue" points="865.556,-552.941 872.142,-561.241 872.169,-550.646 865.556,-552.941"/>
</g>
<!-- 28&#45;&gt;19 -->
<g id="edge102" class="edge"><title>28&#45;&gt;19</title>
<path fill="none" stroke="blue" stroke-dasharray="5,2" d="M1481.33,-255.743C1543.23,-255.73 1722.7,-260.561 1859.23,-313 1978.22,-358.7 2000.13,-390.44 2097.23,-473 2126.32,-497.733 2155.74,-529.781 2176.18,-553.428"/>
<polygon fill="blue" stroke="blue" points="2173.59,-555.785 2182.76,-561.102 2178.91,-551.231 2173.59,-555.785"/>
</g>
<!-- 28&#45;&gt;5 -->
<g id="edge123" class="edge"><title>28&#45;&gt;5</title>
<path fill="none" stroke="blue" stroke-dasharray="5,2" d="M1457.09,-277.258C1454.41,-298.237 1448.69,-330.87 1437.23,-357 1402.87,-435.33 1337.47,-512.222 1298.57,-553.949"/>
<polygon fill="blue" stroke="blue" points="1295.94,-551.643 1291.63,-561.323 1301.03,-556.441 1295.94,-551.643"/>
</g>
<!-- 28&#45;&gt;24 -->
<g id="edge130" class="edge"><title>28&#45;&gt;24</title>
<path fill="none" stroke="blue" stroke-dasharray="5,2" d="M1481.27,-256.665C1536.19,-258.965 1682.8,-269.088 1795.23,-313 1895.87,-352.304 1944.07,-370.508 1978.23,-473 1986.68,-498.348 1985.29,-528.696 1982.14,-551.555"/>
<polygon fill="blue" stroke="blue" points="1978.68,-551.068 1980.6,-561.487 1985.6,-552.142 1978.68,-551.068"/>
</g>
<!-- 28&#45;&gt;1 -->
<g id="edge136" class="edge"><title>28&#45;&gt;1</title>
<path fill="none" stroke="blue" stroke-dasharray="5,2" d="M1436.82,-277.314C1427.53,-286.156 1416.62,-296.537 1406.69,-305.982"/>
<polygon fill="blue" stroke="blue" points="1404.16,-303.554 1399.33,-312.982 1408.99,-308.626 1404.16,-303.554"/>
</g>
<!-- 29&#45;&gt;4 -->
<g id="edge5" class="edge"><title>29&#45;&gt;4</title>
<path fill="none" stroke="blue" stroke-dasharray="5,2" d="M584.514,-509.204C537.168,-524.925 440.786,-556.928 388.639,-574.243"/>
<polygon fill="blue" stroke="blue" points="387.214,-571.028 378.827,-577.501 389.42,-577.672 387.214,-571.028"/>
</g>
<!-- 29&#45;&gt;32 -->
<g id="edge29" class="edge"><title>29&#45;&gt;32</title>
<path fill="none" stroke="blue" stroke-dasharray="5,2" d="M592.2,-513.652C574.291,-525.912 547.379,-544.473 524.232,-561 524.146,-561.061 524.06,-561.123 523.974,-561.184"/>
<polygon fill="blue" stroke="blue" points="521.857,-558.395 515.796,-567.085 525.953,-564.072 521.857,-558.395"/>
</g>
<!-- 29&#45;&gt;16 -->
<g id="edge51" class="edge"><title>29&#45;&gt;16</title>
<path fill="none" stroke="blue" stroke-dasharray="5,2" d="M633.039,-513.062C654.734,-526.68 689.1,-548.253 714.839,-564.41"/>
<polygon fill="blue" stroke="blue" points="713.218,-567.525 723.549,-569.878 716.94,-561.597 713.218,-567.525"/>
</g>
<!-- 29&#45;&gt;34 -->
<g id="edge83" class="edge"><title>29&#45;&gt;34</title>
<path fill="none" stroke="blue" stroke-dasharray="5,2" d="M625.289,-515.619C650.168,-545.203 702.902,-607.005 714.232,-613 785.025,-650.459 1029.48,-667.161 1121.67,-672.232"/>
<polygon fill="blue" stroke="blue" points="1121.71,-675.74 1131.88,-672.781 1122.09,-668.75 1121.71,-675.74"/>
</g>
<!-- 29&#45;&gt;40 -->
<g id="edge97" class="edge"><title>29&#45;&gt;40</title>
<path fill="none" stroke="blue" stroke-dasharray="5,2" d="M602.263,-516.176C595.941,-526.434 587.529,-540.083 579.821,-552.592"/>
<polygon fill="blue" stroke="blue" points="576.639,-551.084 574.372,-561.433 582.598,-554.756 576.639,-551.084"/>
</g>
<!-- 29&#45;&gt;35 -->
<g id="edge107" class="edge"><title>29&#45;&gt;35</title>
<path fill="none" stroke="blue" stroke-dasharray="5,2" d="M615.393,-516.991C617.21,-526.759 619.561,-539.395 621.754,-551.18"/>
<polygon fill="blue" stroke="blue" points="618.352,-552.033 623.622,-561.224 625.234,-550.753 618.352,-552.033"/>
</g>
<!-- 29&#45;&gt;5 -->
<g id="edge122" class="edge"><title>29&#45;&gt;5</title>
<path fill="none" stroke="blue" stroke-dasharray="5,2" d="M644.267,-504.206C754.355,-518.661 1116.71,-566.236 1231.81,-581.349"/>
<polygon fill="blue" stroke="blue" points="1231.48,-584.836 1241.85,-582.667 1232.39,-577.895 1231.48,-584.836"/>
</g>
<!-- 29&#45;&gt;37 -->
<g id="edge143" class="edge"><title>29&#45;&gt;37</title>
<path fill="none" stroke="blue" stroke-dasharray="5,2" d="M645.206,-501.531C756.52,-506.894 1128.52,-526.407 1434.23,-561 1478.65,-566.026 1529.49,-574.147 1562.64,-579.762"/>
<polygon fill="blue" stroke="blue" points="1562.3,-583.256 1572.75,-581.49 1563.48,-576.356 1562.3,-583.256"/>
</g>
<!-- 30&#45;&gt;47 -->
<g id="edge38" class="edge"><title>30&#45;&gt;47</title>
<path fill="none" stroke="blue" stroke-dasharray="5,2" d="M72.6867,-516.715C84.0819,-538.99 105.25,-579.491 125.232,-613 130.68,-622.137 136.86,-631.845 142.704,-640.766"/>
<polygon fill="blue" stroke="blue" points="139.961,-642.964 148.397,-649.375 145.8,-639.103 139.961,-642.964"/>
</g>
<!-- 30&#45;&gt;34 -->
<g id="edge62" class="edge"><title>30&#45;&gt;34</title>
<path fill="none" stroke="blue" stroke-dasharray="5,2" d="M85.6759,-512.93C93.5097,-517.24 102.575,-521.763 111.232,-525 177.88,-549.921 205.164,-526.204 267.232,-561 295.469,-576.83 288.859,-599.392 318.232,-613 391.914,-647.135 970.851,-668.001 1121.5,-672.888"/>
<polygon fill="blue" stroke="blue" points="1121.49,-676.389 1131.59,-673.212 1121.71,-669.393 1121.49,-676.389"/>
</g>
<!-- 30&#45;&gt;40 -->
<g id="edge67" class="edge"><title>30&#45;&gt;40</title>
<path fill="none" stroke="blue" stroke-dasharray="5,2" d="M96.8072,-502.263C188.266,-508.94 445.835,-530.046 524.232,-561 524.332,-561.039 524.431,-561.079 524.531,-561.119"/>
<polygon fill="blue" stroke="blue" points="523.155,-564.344 533.666,-565.678 526.281,-558.081 523.155,-564.344"/>
</g>
<!-- 30&#45;&gt;36 -->
<g id="edge74" class="edge"><title>30&#45;&gt;36</title>
<path fill="none" stroke="blue" stroke-dasharray="5,2" d="M85.7526,-512.731C93.5936,-517.023 102.644,-521.585 111.232,-525 167.338,-547.313 201.759,-516.191 242.232,-561 261.133,-581.926 264.928,-614.324 264.551,-639.073"/>
<polygon fill="blue" stroke="blue" points="261.05,-639.029 264.165,-649.156 268.045,-639.297 261.05,-639.029"/>
</g>
<!-- 30&#45;&gt;4 -->
<g id="edge112" class="edge"><title>30&#45;&gt;4</title>
<path fill="none" stroke="blue" stroke-dasharray="5,2" d="M85.5881,-513.174C93.4135,-517.507 102.496,-521.982 111.232,-525 197.426,-554.775 228.128,-528.238 313.232,-561 315.066,-561.706 316.908,-562.5 318.74,-563.358"/>
<polygon fill="blue" stroke="blue" points="317.255,-566.531 327.736,-568.084 320.511,-560.334 317.255,-566.531"/>
</g>
<!-- 30&#45;&gt;32 -->
<g id="edge135" class="edge"><title>30&#45;&gt;32</title>
<path fill="none" stroke="blue" stroke-dasharray="5,2" d="M95.52,-505.357C153.325,-515.376 280.682,-538.024 387.232,-561 409.902,-565.889 435.215,-572.023 455.073,-576.992"/>
<polygon fill="blue" stroke="blue" points="454.366,-580.423 464.918,-579.471 456.076,-573.635 454.366,-580.423"/>
</g>
<!-- 31&#45;&gt;1 -->
<g id="edge3" class="edge"><title>31&#45;&gt;1</title>
<path fill="none" stroke="blue" stroke-dasharray="5,2" d="M1447.59,-197.032C1441.71,-207.755 1434.51,-221.028 1428.23,-233 1415.87,-256.58 1402.3,-283.502 1392.27,-303.618"/>
<polygon fill="blue" stroke="blue" points="1389.11,-302.111 1387.79,-312.623 1395.38,-305.23 1389.11,-302.111"/>
</g>
<!-- 31&#45;&gt;2 -->
<g id="edge14" class="edge"><title>31&#45;&gt;2</title>
<path fill="none" stroke="blue" stroke-dasharray="5,2" d="M1475.61,-197.295C1494.28,-223.048 1523.72,-268.499 1535.23,-313 1540.13,-331.932 1538.87,-337.786 1535.23,-357 1520.3,-435.821 1515.23,-459.274 1469.23,-525 1459.53,-538.863 1446.06,-551.687 1433.59,-561.964"/>
<polygon fill="blue" stroke="blue" points="1431.24,-559.366 1425.6,-568.334 1435.6,-564.842 1431.24,-559.366"/>
</g>
<!-- 31&#45;&gt;15 -->
<g id="edge28" class="edge"><title>31&#45;&gt;15</title>
<path fill="none" stroke="blue" stroke-dasharray="5,2" d="M1481.43,-180.881C1553.54,-197.782 1784.29,-260.184 1918.23,-393 1963.12,-437.513 1997.21,-467.364 1971.23,-525 1967.2,-533.938 1951.2,-548.309 1935.62,-560.858"/>
<polygon fill="blue" stroke="blue" points="1933.26,-558.269 1927.58,-567.216 1937.6,-563.76 1933.26,-558.269"/>
</g>
<!-- 31&#45;&gt;39 -->
<g id="edge64" class="edge"><title>31&#45;&gt;39</title>
<path fill="none" stroke="blue" stroke-dasharray="5,2" d="M1437.19,-176.955C1358.77,-180.64 1094.1,-195.64 1019.23,-233 994.766,-245.209 1000.02,-263.521 976.232,-277 916.204,-311.009 874.847,-265.06 825.232,-313 757.436,-378.508 773.938,-441.78 818.232,-525 825.674,-538.982 837.514,-551.603 848.999,-561.688"/>
<polygon fill="blue" stroke="blue" points="846.92,-564.513 856.834,-568.251 851.415,-559.147 846.92,-564.513"/>
</g>
<!-- 31&#45;&gt;4 -->
<g id="edge65" class="edge"><title>31&#45;&gt;4</title>
<path fill="none" stroke="blue" stroke-dasharray="5,2" d="M1436.85,-177.1C1289.98,-184.743 464.374,-234.405 281.232,-393 235.676,-432.45 220.39,-472.645 250.232,-525 252.237,-528.518 289.987,-550.367 319.209,-566.92"/>
<polygon fill="blue" stroke="blue" points="317.527,-569.99 327.955,-571.861 320.97,-563.895 317.527,-569.99"/>
</g>
<!-- 31&#45;&gt;8 -->
<g id="edge92" class="edge"><title>31&#45;&gt;8</title>
<path fill="none" stroke="blue" stroke-dasharray="5,2" d="M1437.13,-196.898C1426.47,-207.366 1413.75,-220.457 1403.23,-233 1375.18,-266.453 1367.89,-275.094 1346.23,-313 1333.22,-335.775 1321.28,-363.011 1312.97,-383.458"/>
<polygon fill="blue" stroke="blue" points="1309.66,-382.317 1309.2,-392.901 1316.16,-384.915 1309.66,-382.317"/>
</g>
<!-- 31&#45;&gt;19 -->
<g id="edge101" class="edge"><title>31&#45;&gt;19</title>
<path fill="none" stroke="blue" stroke-dasharray="5,2" d="M1481.29,-175.638C1587.99,-174.2 2050.72,-171.661 2178.23,-233 2265.56,-275.011 2271.43,-341.452 2255.23,-437 2248.32,-477.773 2231.48,-522.263 2218.83,-551.913"/>
<polygon fill="blue" stroke="blue" points="2215.49,-550.806 2214.71,-561.373 2221.91,-553.597 2215.49,-550.806"/>
</g>
<!-- 31&#45;&gt;34 -->
<g id="edge105" class="edge"><title>31&#45;&gt;34</title>
<path fill="none" stroke="blue" stroke-dasharray="5,2" d="M1481.44,-176.556C1591.1,-179.47 2075.26,-194.34 2220.23,-233 2320.69,-259.788 2431.23,-230.032 2431.23,-334 2431.23,-334 2431.23,-334 2431.23,-500 2431.23,-588.516 2351,-584.392 2267.23,-613 2163.59,-648.397 1371.07,-668.98 1192.78,-673.191"/>
<polygon fill="blue" stroke="blue" points="1192.54,-669.695 1182.63,-673.429 1192.71,-676.694 1192.54,-669.695"/>
</g>
<!-- 31&#45;&gt;28 -->
<g id="edge116" class="edge"><title>31&#45;&gt;28</title>
<path fill="none" stroke="blue" stroke-dasharray="5,2" d="M1459.23,-197.314C1459.23,-205.202 1459.23,-214.316 1459.23,-222.897"/>
<polygon fill="blue" stroke="blue" points="1455.73,-222.982 1459.23,-232.982 1462.73,-222.982 1455.73,-222.982"/>
</g>
<!-- 31&#45;&gt;38 -->
<g id="edge128" class="edge"><title>31&#45;&gt;38</title>
<path fill="none" stroke="blue" stroke-dasharray="5,2" d="M1436.99,-188.234C1417.56,-199.212 1388.84,-216.146 1365.23,-233 1320.03,-265.267 1310.96,-276.353 1269.23,-313 1209.26,-365.666 1141.45,-429.285 1102.19,-466.533"/>
<polygon fill="blue" stroke="blue" points="1099.57,-464.195 1094.73,-473.62 1104.39,-469.27 1099.57,-464.195"/>
</g>
<!-- 31&#45;&gt;24 -->
<g id="edge129" class="edge"><title>31&#45;&gt;24</title>
<path fill="none" stroke="blue" stroke-dasharray="5,2" d="M1481.38,-175.634C1608.64,-174.108 2241.23,-174.543 2241.23,-334 2241.23,-334 2241.23,-334 2241.23,-416 2241.23,-524.131 2083.24,-566.565 2010.78,-580.34"/>
<polygon fill="blue" stroke="blue" points="2009.95,-576.933 2000.74,-582.169 2011.2,-583.82 2009.95,-576.933"/>
</g>
<!-- 31&#45;&gt;37 -->
<g id="edge137" class="edge"><title>31&#45;&gt;37</title>
<path fill="none" stroke="blue" stroke-dasharray="5,2" d="M1481.32,-190.299C1495.66,-200.613 1513.76,-215.723 1525.23,-233 1592.28,-333.942 1599.67,-484.148 1599.28,-551.336"/>
<polygon fill="blue" stroke="blue" points="1595.78,-551.345 1599.16,-561.386 1602.78,-551.428 1595.78,-551.345"/>
</g>
<!-- 33&#45;&gt;4 -->
<g id="edge54" class="edge"><title>33&#45;&gt;4</title>
<path fill="none" stroke="blue" stroke-dasharray="5,2" d="M913.766,-175.259C798.455,-174.604 413.647,-188.486 211.232,-393 169.286,-435.381 151.638,-477.16 187.232,-525 220.47,-569.673 255.83,-539.592 307.232,-561 311.102,-562.612 315.071,-564.455 318.977,-566.392"/>
<polygon fill="blue" stroke="blue" points="317.414,-569.525 327.903,-571.023 320.638,-563.311 317.414,-569.525"/>
</g>
<!-- 33&#45;&gt;39 -->
<g id="edge57" class="edge"><title>33&#45;&gt;39</title>
<path fill="none" stroke="blue" stroke-dasharray="5,2" d="M923.568,-187.654C883.325,-207.272 798.762,-247.622 725.232,-277 679.81,-295.148 649.603,-273.156 621.232,-313 542.78,-423.175 760.193,-533.04 847.626,-571.568"/>
<polygon fill="blue" stroke="blue" points="846.323,-574.818 856.889,-575.597 849.115,-568.399 846.323,-574.818"/>
</g>
<!-- 33&#45;&gt;8 -->
<g id="edge63" class="edge"><title>33&#45;&gt;8</title>
<path fill="none" stroke="blue" stroke-dasharray="5,2" d="M976.964,-183.083C1009.56,-191.685 1062.63,-208.193 1103.23,-233 1172.47,-275.307 1177.15,-302.459 1237.23,-357 1248.4,-367.14 1260.76,-378.189 1271.62,-387.837"/>
<polygon fill="blue" stroke="blue" points="1269.42,-390.562 1279.22,-394.581 1274.06,-385.326 1269.42,-390.562"/>
</g>
<!-- 33&#45;&gt;1 -->
<g id="edge87" class="edge"><title>33&#45;&gt;1</title>
<path fill="none" stroke="blue" stroke-dasharray="5,2" d="M977.053,-182.865C1017.18,-192.433 1090.53,-211.091 1151.23,-233 1222.64,-258.771 1303.1,-297.065 1346.13,-318.33"/>
<polygon fill="blue" stroke="blue" points="1344.71,-321.535 1355.23,-322.849 1347.83,-315.266 1344.71,-321.535"/>
</g>
<!-- 33&#45;&gt;28 -->
<g id="edge115" class="edge"><title>33&#45;&gt;28</title>
<path fill="none" stroke="blue" stroke-dasharray="5,2" d="M978.873,-180.82C1070.42,-194.766 1334.86,-235.053 1427.06,-249.099"/>
<polygon fill="blue" stroke="blue" points="1426.77,-252.595 1437.18,-250.641 1427.83,-245.675 1426.77,-252.595"/>
</g>
<!-- 33&#45;&gt;38 -->
<g id="edge142" class="edge"><title>33&#45;&gt;38</title>
<path fill="none" stroke="blue" stroke-dasharray="5,2" d="M958.195,-192.007C986.979,-234.402 1063.31,-349.327 1075.23,-393 1081.48,-415.904 1079.84,-442.631 1076.7,-463.387"/>
<polygon fill="blue" stroke="blue" points="1073.23,-462.905 1075.02,-473.349 1080.14,-464.073 1073.23,-462.905"/>
</g>
<!-- 38&#45;&gt;24 -->
<g id="edge8" class="edge"><title>38&#45;&gt;24</title>
<path fill="none" stroke="blue" stroke-dasharray="5,2" d="M1094.7,-501.04C1229.29,-506.633 1854.5,-533.903 1936.23,-561 1937.66,-561.475 1939.09,-562.014 1940.52,-562.605"/>
<polygon fill="blue" stroke="blue" points="1939.19,-565.855 1949.71,-567.147 1942.29,-559.579 1939.19,-565.855"/>
</g>
<!-- 38&#45;&gt;4 -->
<g id="edge11" class="edge"><title>38&#45;&gt;4</title>
<path fill="none" stroke="blue" stroke-dasharray="5,2" d="M1043.91,-501.23C959.725,-505.593 681.708,-522.196 455.232,-561 432.736,-564.854 407.852,-570.917 388.294,-576.107"/>
<polygon fill="blue" stroke="blue" points="387.335,-572.74 378.592,-578.724 389.159,-579.498 387.335,-572.74"/>
</g>
<!-- 38&#45;&gt;37 -->
<g id="edge12" class="edge"><title>38&#45;&gt;37</title>
<path fill="none" stroke="blue" stroke-dasharray="5,2" d="M1094.75,-504.148C1181.17,-518.198 1463,-564.016 1562.81,-580.241"/>
<polygon fill="blue" stroke="blue" points="1562.54,-583.744 1572.97,-581.894 1563.66,-576.834 1562.54,-583.744"/>
</g>
<!-- 38&#45;&gt;2 -->
<g id="edge23" class="edge"><title>38&#45;&gt;2</title>
<path fill="none" stroke="blue" stroke-dasharray="5,2" d="M1094.66,-506.605C1153.26,-521.832 1297.94,-559.422 1365.03,-576.853"/>
<polygon fill="blue" stroke="blue" points="1364.16,-580.245 1374.72,-579.372 1365.92,-573.47 1364.16,-580.245"/>
</g>
<!-- 38&#45;&gt;5 -->
<g id="edge25" class="edge"><title>38&#45;&gt;5</title>
<path fill="none" stroke="blue" stroke-dasharray="5,2" d="M1094.71,-511.067C1129.76,-526.29 1192.97,-553.746 1232.38,-570.861"/>
<polygon fill="blue" stroke="blue" points="1231.28,-574.202 1241.85,-574.976 1234.07,-567.781 1231.28,-574.202"/>
</g>
<!-- 38&#45;&gt;40 -->
<g id="edge45" class="edge"><title>38&#45;&gt;40</title>
<path fill="none" stroke="blue" stroke-dasharray="5,2" d="M1043.82,-501.573C960.337,-506.991 694.573,-526.3 594.256,-561.614"/>
<polygon fill="blue" stroke="blue" points="592.91,-558.381 584.798,-565.195 595.389,-564.927 592.91,-558.381"/>
</g>
<!-- 38&#45;&gt;34 -->
<g id="edge81" class="edge"><title>38&#45;&gt;34</title>
<path fill="none" stroke="blue" stroke-dasharray="5,2" d="M1081.65,-524.561C1096.94,-554.787 1122.98,-606.267 1140.14,-640.207"/>
<polygon fill="blue" stroke="blue" points="1137.09,-641.939 1144.73,-649.283 1143.34,-638.78 1137.09,-641.939"/>
</g>
<!-- 38&#45;&gt;39 -->
<g id="edge82" class="edge"><title>38&#45;&gt;39</title>
<path fill="none" stroke="blue" stroke-dasharray="5,2" d="M1043.62,-511.778C1010.75,-526.896 953.586,-553.185 916.857,-570.076"/>
<polygon fill="blue" stroke="blue" points="915.155,-567.006 907.532,-574.365 918.08,-573.366 915.155,-567.006"/>
</g>
<!-- 38&#45;&gt;35 -->
<g id="edge85" class="edge"><title>38&#45;&gt;35</title>
<path fill="none" stroke="blue" stroke-dasharray="5,2" d="M1043.64,-503.387C984.968,-511.372 836.411,-532.839 714.232,-561 697.329,-564.896 678.825,-570.144 663.327,-574.826"/>
<polygon fill="blue" stroke="blue" points="662.158,-571.524 653.623,-577.801 664.21,-578.216 662.158,-571.524"/>
</g>
<!-- 38&#45;&gt;16 -->
<g id="edge93" class="edge"><title>38&#45;&gt;16</title>
<path fill="none" stroke="blue" stroke-dasharray="5,2" d="M1043.85,-506.82C987.025,-522.093 849.436,-559.07 784.403,-576.548"/>
<polygon fill="blue" stroke="blue" points="783.361,-573.204 774.612,-579.179 785.178,-579.964 783.361,-573.204"/>
</g>
<!-- 38&#45;&gt;19 -->
<g id="edge106" class="edge"><title>38&#45;&gt;19</title>
<path fill="none" stroke="blue" stroke-dasharray="5,2" d="M1094.7,-501.06C1204.36,-505.746 1647.05,-525.948 2009.23,-561 2064.69,-566.367 2128.75,-575.124 2167.61,-580.721"/>
<polygon fill="blue" stroke="blue" points="2167.47,-584.237 2177.87,-582.21 2168.47,-577.31 2167.47,-584.237"/>
</g>
<!-- 38&#45;&gt;15 -->
<g id="edge126" class="edge"><title>38&#45;&gt;15</title>
<path fill="none" stroke="blue" stroke-dasharray="5,2" d="M1094.62,-502.621C1214.73,-515.022 1726.02,-567.807 1866.43,-582.304"/>
<polygon fill="blue" stroke="blue" points="1866.33,-585.812 1876.64,-583.357 1867.05,-578.849 1866.33,-585.812"/>
</g>
<!-- 44&#45;&gt;34 -->
<g id="edge16" class="edge"><title>44&#45;&gt;34</title>
<path fill="none" stroke="blue" stroke-dasharray="5,2" d="M1822.92,-515.254C1796.57,-540.467 1739.78,-590.298 1681.23,-613 1591.44,-647.815 1295.54,-666.596 1192.77,-672.191"/>
<polygon fill="blue" stroke="blue" points="1192.4,-668.706 1182.6,-672.736 1192.78,-675.696 1192.4,-668.706"/>
</g>
<!-- 44&#45;&gt;2 -->
<g id="edge21" class="edge"><title>44&#45;&gt;2</title>
<path fill="none" stroke="blue" stroke-dasharray="5,2" d="M1818.51,-513.862C1811.72,-518.042 1803.9,-522.246 1796.23,-525 1795.16,-525.384 1532.18,-565.756 1435.42,-580.602"/>
<polygon fill="blue" stroke="blue" points="1434.88,-577.144 1425.53,-582.12 1435.94,-584.063 1434.88,-577.144"/>
</g>
<!-- 44&#45;&gt;15 -->
<g id="edge76" class="edge"><title>44&#45;&gt;15</title>
<path fill="none" stroke="blue" stroke-dasharray="5,2" d="M1850.27,-516.176C1858.05,-526.633 1868.46,-540.615 1877.91,-553.319"/>
<polygon fill="blue" stroke="blue" points="1875.17,-555.5 1883.95,-561.433 1880.79,-551.321 1875.17,-555.5"/>
</g>
<!-- 44&#45;&gt;39 -->
<g id="edge88" class="edge"><title>44&#45;&gt;39</title>
<path fill="none" stroke="blue" stroke-dasharray="5,2" d="M1819.06,-514.003C1812.19,-518.3 1804.18,-522.54 1796.23,-525 1676.26,-562.153 1357.53,-552.526 1232.23,-561 1117.32,-568.771 981.242,-578.699 917.936,-583.36"/>
<polygon fill="blue" stroke="blue" points="917.414,-579.889 907.698,-584.115 917.928,-586.87 917.414,-579.889"/>
</g>
<!-- 44&#45;&gt;37 -->
<g id="edge91" class="edge"><title>44&#45;&gt;37</title>
<path fill="none" stroke="blue" stroke-dasharray="5,2" d="M1817.82,-513.474C1811.12,-517.532 1803.52,-521.763 1796.23,-525 1741.34,-549.372 1673.83,-567.901 1633.5,-577.841"/>
<polygon fill="blue" stroke="blue" points="1632.51,-574.48 1623.62,-580.24 1634.16,-581.283 1632.51,-574.48"/>
</g>
<!-- 44&#45;&gt;19 -->
<g id="edge99" class="edge"><title>44&#45;&gt;19</title>
<path fill="none" stroke="blue" stroke-dasharray="5,2" d="M1868.1,-507.038C1934.96,-522.791 2096.4,-560.828 2168.01,-577.701"/>
<polygon fill="blue" stroke="blue" points="2167.36,-581.145 2177.9,-580.032 2168.97,-574.331 2167.36,-581.145"/>
</g>
<!-- 44&#45;&gt;4 -->
<g id="edge109" class="edge"><title>44&#45;&gt;4</title>
<path fill="none" stroke="blue" stroke-dasharray="5,2" d="M1819.53,-513.907C1812.57,-518.309 1804.38,-522.64 1796.23,-525 1653.06,-566.46 602.957,-541.146 455.232,-561 432.612,-564.04 407.725,-570.085 388.196,-575.469"/>
<polygon fill="blue" stroke="blue" points="387.185,-572.117 378.513,-578.204 389.088,-578.854 387.185,-572.117"/>
</g>
<!-- 44&#45;&gt;24 -->
<g id="edge125" class="edge"><title>44&#45;&gt;24</title>
<path fill="none" stroke="blue" stroke-dasharray="5,2" d="M1859.31,-513.009C1879.19,-525.304 1909.8,-544.303 1936.23,-561 1937.86,-562.031 1939.53,-563.088 1941.22,-564.158"/>
<polygon fill="blue" stroke="blue" points="1939.36,-567.122 1949.67,-569.545 1943.12,-561.219 1939.36,-567.122"/>
</g>
<!-- 46&#45;&gt;4 -->
<g id="edge9" class="edge"><title>46&#45;&gt;4</title>
<path fill="none" stroke="blue" stroke-dasharray="5,2" d="M892.493,-420.393C860.043,-424.826 808.168,-431.746 763.232,-437 686.012,-446.029 480.005,-430.002 415.232,-473 387.955,-491.107 371.605,-525.426 362.602,-551.513"/>
<polygon fill="blue" stroke="blue" points="359.263,-550.464 359.504,-561.056 365.921,-552.626 359.263,-550.464"/>
</g>
<!-- 46&#45;&gt;2 -->
<g id="edge20" class="edge"><title>46&#45;&gt;2</title>
<path fill="none" stroke="blue" stroke-dasharray="5,2" d="M930.911,-433.055C941.634,-457.929 965.211,-503.525 1001.23,-525 1116.58,-593.767 1169.19,-536.51 1301.23,-561 1322.56,-564.955 1346.11,-570.84 1364.89,-575.906"/>
<polygon fill="blue" stroke="blue" points="1364.22,-579.351 1374.79,-578.619 1366.07,-572.6 1364.22,-579.351"/>
</g>
<!-- 46&#45;&gt;38 -->
<g id="edge31" class="edge"><title>46&#45;&gt;38</title>
<path fill="none" stroke="blue" stroke-dasharray="5,2" d="M946.254,-428.454C969.814,-441.778 1007.49,-463.086 1034.94,-478.608"/>
<polygon fill="blue" stroke="blue" points="1033.4,-481.755 1043.82,-483.631 1036.84,-475.662 1033.4,-481.755"/>
</g>
<!-- 46&#45;&gt;15 -->
<g id="edge75" class="edge"><title>46&#45;&gt;15</title>
<path fill="none" stroke="blue" stroke-dasharray="5,2" d="M957.148,-418.016C1018.65,-421.779 1155.19,-430.114 1270.23,-437 1338.01,-441.057 1829.13,-428.295 1880.23,-473 1901.91,-491.968 1906.15,-525.4 1905.72,-550.995"/>
<polygon fill="blue" stroke="blue" points="1902.22,-550.935 1905.31,-561.069 1909.21,-551.221 1902.22,-550.935"/>
</g>
<!-- 46&#45;&gt;39 -->
<g id="edge138" class="edge"><title>46&#45;&gt;39</title>
<path fill="none" stroke="blue" stroke-dasharray="5,2" d="M924.961,-433.015C925.415,-454.805 924.598,-493.514 915.232,-525 912.429,-534.422 908.058,-544.038 903.403,-552.767"/>
<polygon fill="blue" stroke="blue" points="900.346,-551.063 898.504,-561.496 906.451,-554.488 900.346,-551.063"/>
</g>
<!-- Key -->
<g id="node33" class="node"><title>Key</title>
<text text-anchor="start" x="995.232" y="-81.3" font-family="Times,serif" font-weight="bold" font-size="14.00">Key</text>
<text text-anchor="start" x="957.232" y="-65.8" font-family="Times,serif" font-size="14.00">Direct Path</text>
<text text-anchor="start" x="1032.73" y="-65.8" font-family="Times,serif" font-size="14.00" fill="red"></text>
<text text-anchor="start" x="957.232" y="-50.8" font-family="Times,serif" font-size="14.00">Indirect Path</text>
<text text-anchor="start" x="1029.23" y="-50.8" font-family="Times,serif" font-size="14.00" fill="blue"> </text>
<polygon fill="none" stroke="black" stroke-dasharray="1,5" points="955.232,-45.5 955.232,-94.5 1059.23,-94.5 1059.23,-45.5 955.232,-45.5"/>
</g>
</g>
</svg>
