<?xml version="1.0" encoding="UTF-8" standalone="no"?>
<!DOCTYPE svg PUBLIC "-//W3C//DTD SVG 1.1//EN"
 "http://www.w3.org/Graphics/SVG/1.1/DTD/svg11.dtd">
<!-- Generated by graphviz version 2.30.1 (20180420.1509)
 -->
<!-- Title: stable Pages: 1 -->
<svg width="766pt" height="637pt"
 viewBox="0.00 0.00 765.74 637.00" xmlns="http://www.w3.org/2000/svg" xmlns:xlink="http://www.w3.org/1999/xlink">
<g id="graph0" class="graph" transform="scale(1 1) rotate(0) translate(4 633)">
<title>stable</title>
<polygon fill="white" stroke="white" points="-4,5 -4,-633 762.738,-633 762.738,5 -4,5"/>
<text text-anchor="middle" x="378.869" y="-7.8" font-family="Times,serif" font-size="14.00">stable&#45;4.5_amd64 (2020&#45;11&#45;26)</text>
<!-- 0 -->
<g id="node1" class="node"><title>0</title>
<polygon fill="yellowgreen" stroke="yellowgreen" points="379.238,-628.5 328.238,-628.5 328.238,-577.5 379.238,-577.5 379.238,-628.5"/>
<text text-anchor="middle" x="353.738" y="-599.3" font-family="Times,serif" font-size="14.00">4.5.18</text>
</g>
<!-- 1 -->
<g id="node2" class="node"><title>1</title>
<polygon fill="yellowgreen" stroke="yellowgreen" points="591.238,-628.5 540.238,-628.5 540.238,-577.5 591.238,-577.5 591.238,-628.5"/>
<text text-anchor="middle" x="565.738" y="-599.3" font-family="Times,serif" font-size="14.00">4.5.17</text>
</g>
<!-- 2 -->
<g id="node3" class="node"><title>2</title>
<ellipse fill="lightgrey" stroke="lightgrey" cx="162.738" cy="-251" rx="33.2948" ry="18"/>
<text text-anchor="middle" x="162.738" y="-247.3" font-family="Times,serif" font-size="14.00">4.4.27</text>
</g>
<!-- 35 -->
<g id="node10" class="node"><title>35</title>
<polygon fill="yellowgreen" stroke="yellowgreen" points="162.238,-628.5 111.238,-628.5 111.238,-577.5 162.238,-577.5 162.238,-628.5"/>
<text text-anchor="middle" x="136.738" y="-599.3" font-family="Times,serif" font-size="14.00">4.5.19</text>
</g>
<!-- 2&#45;&gt;35 -->
<g id="edge28" class="edge"><title>2&#45;&gt;35</title>
<path fill="none" stroke="blue" stroke-dasharray="5,2" d="M140.729,-264.553C104.523,-286.657 33.7219,-336.372 6.73785,-401 -22.4151,-470.823 55.6549,-542.997 103.179,-578.861"/>
<polygon fill="blue" stroke="blue" points="101.256,-581.792 111.379,-584.92 105.416,-576.162 101.256,-581.792"/>
</g>
<!-- 37 -->
<g id="node11" class="node"><title>37</title>
<polygon fill="yellowgreen" stroke="yellowgreen" points="341.238,-364.5 290.238,-364.5 290.238,-313.5 341.238,-313.5 341.238,-364.5"/>
<text text-anchor="middle" x="315.738" y="-335.3" font-family="Times,serif" font-size="14.00">4.5.14</text>
</g>
<!-- 2&#45;&gt;37 -->
<g id="edge29" class="edge"><title>2&#45;&gt;37</title>
<path fill="none" stroke="blue" stroke-dasharray="5,2" d="M185.916,-263.961C208.927,-275.963 245.096,-295.178 275.738,-313 277.49,-314.019 279.277,-315.075 281.076,-316.15"/>
<polygon fill="blue" stroke="blue" points="279.702,-319.411 290.064,-321.619 283.34,-313.431 279.702,-319.411"/>
</g>
<!-- 12 -->
<g id="node5" class="node"><title>12</title>
<polygon fill="yellowgreen" stroke="yellowgreen" points="379.238,-540.5 328.238,-540.5 328.238,-489.5 379.238,-489.5 379.238,-540.5"/>
<text text-anchor="middle" x="353.738" y="-511.3" font-family="Times,serif" font-size="14.00">4.5.16</text>
</g>
<!-- 2&#45;&gt;12 -->
<g id="edge30" class="edge"><title>2&#45;&gt;12</title>
<path fill="none" stroke="blue" stroke-dasharray="5,2" d="M166.041,-269.087C174.032,-306.482 197.564,-396.722 247.738,-453 267.148,-474.772 296.251,-490.743 319.054,-500.869"/>
<polygon fill="blue" stroke="blue" points="317.822,-504.149 328.394,-504.851 320.568,-497.71 317.822,-504.149"/>
</g>
<!-- 2&#45;&gt;1 -->
<g id="edge35" class="edge"><title>2&#45;&gt;1</title>
<path fill="none" stroke="blue" stroke-dasharray="5,2" d="M162.498,-269.206C162.833,-306.449 168.339,-395.78 210.738,-453 247.6,-502.748 263.338,-513.351 318.738,-541 388.88,-576.007 480.481,-591.793 530.076,-598.184"/>
<polygon fill="blue" stroke="blue" points="529.936,-601.693 540.289,-599.443 530.793,-594.746 529.936,-601.693"/>
</g>
<!-- 18 -->
<g id="node8" class="node"><title>18</title>
<polygon fill="yellowgreen" stroke="yellowgreen" points="417.238,-452.5 366.238,-452.5 366.238,-401.5 417.238,-401.5 417.238,-452.5"/>
<text text-anchor="middle" x="391.738" y="-423.3" font-family="Times,serif" font-size="14.00">4.5.15</text>
</g>
<!-- 2&#45;&gt;18 -->
<g id="edge37" class="edge"><title>2&#45;&gt;18</title>
<path fill="none" stroke="blue" stroke-dasharray="5,2" d="M176.53,-267.592C197.499,-290.714 239.349,-334.624 280.738,-365 304.78,-382.645 334.503,-398.715 357.139,-409.926"/>
<polygon fill="blue" stroke="blue" points="355.846,-413.19 366.369,-414.424 358.913,-406.897 355.846,-413.19"/>
</g>
<!-- 2&#45;&gt;0 -->
<g id="edge42" class="edge"><title>2&#45;&gt;0</title>
<path fill="none" stroke="blue" stroke-dasharray="5,2" d="M152.496,-268.359C145.685,-280.244 137.351,-296.986 133.738,-313 120.044,-373.697 107.693,-396.491 133.738,-453 134.525,-454.709 235.178,-539.947 236.738,-541 262.936,-558.686 294.885,-575.029 318.773,-586.338"/>
<polygon fill="blue" stroke="blue" points="317.61,-589.658 328.152,-590.716 320.571,-583.315 317.61,-589.658"/>
</g>
<!-- 6 -->
<g id="node4" class="node"><title>6</title>
<ellipse fill="lightgrey" stroke="lightgrey" cx="658.738" cy="-427" rx="33.2948" ry="18"/>
<text text-anchor="middle" x="658.738" y="-423.3" font-family="Times,serif" font-size="14.00">4.4.29</text>
</g>
<!-- 6&#45;&gt;1 -->
<g id="edge9" class="edge"><title>6&#45;&gt;1</title>
<path fill="none" stroke="blue" stroke-dasharray="5,2" d="M662.822,-444.937C667.466,-468.176 672.417,-510.53 655.738,-541 643.845,-562.726 620.498,-578.207 600.564,-588.136"/>
<polygon fill="blue" stroke="blue" points="598.971,-585.017 591.409,-592.438 601.948,-591.353 598.971,-585.017"/>
</g>
<!-- 6&#45;&gt;0 -->
<g id="edge13" class="edge"><title>6&#45;&gt;0</title>
<path fill="none" stroke="blue" stroke-dasharray="5,2" d="M657.478,-445.379C654.704,-470.345 645.858,-516.092 617.738,-541 584.048,-570.842 453.229,-590.153 389.301,-598.003"/>
<polygon fill="blue" stroke="blue" points="388.786,-594.54 379.275,-599.208 389.621,-601.49 388.786,-594.54"/>
</g>
<!-- 6&#45;&gt;35 -->
<g id="edge19" class="edge"><title>6&#45;&gt;35</title>
<path fill="none" stroke="blue" stroke-dasharray="5,2" d="M643.12,-443.35C616.796,-468.24 560.854,-517.032 503.738,-541 473.365,-553.746 258.367,-584.911 172.264,-597.048"/>
<polygon fill="blue" stroke="blue" points="171.601,-593.607 162.186,-598.465 172.576,-600.539 171.601,-593.607"/>
</g>
<!-- 6&#45;&gt;12 -->
<g id="edge38" class="edge"><title>6&#45;&gt;12</title>
<path fill="none" stroke="blue" stroke-dasharray="5,2" d="M630.044,-436.091C573.971,-451.901 450.018,-486.852 389.03,-504.049"/>
<polygon fill="blue" stroke="blue" points="387.778,-500.765 379.103,-506.848 389.678,-507.503 387.778,-500.765"/>
</g>
<!-- 12&#45;&gt;1 -->
<g id="edge11" class="edge"><title>12&#45;&gt;1</title>
<path fill="none" stroke="blue" stroke-dasharray="5,2" d="M379.31,-526.374C417.215,-541.75 488.406,-570.63 531.001,-587.909"/>
<polygon fill="blue" stroke="blue" points="529.823,-591.208 540.405,-591.723 532.454,-584.721 529.823,-591.208"/>
</g>
<!-- 12&#45;&gt;35 -->
<g id="edge22" class="edge"><title>12&#45;&gt;35</title>
<path fill="none" stroke="blue" stroke-dasharray="5,2" d="M328.42,-526.034C289.651,-541.399 215.468,-570.798 171.627,-588.173"/>
<polygon fill="blue" stroke="blue" points="170.236,-584.959 162.229,-591.897 172.815,-591.467 170.236,-584.959"/>
</g>
<!-- 12&#45;&gt;0 -->
<g id="edge39" class="edge"><title>12&#45;&gt;0</title>
<path fill="none" stroke="blue" stroke-dasharray="5,2" d="M353.738,-540.875C353.738,-549.147 353.738,-558.514 353.738,-567.386"/>
<polygon fill="blue" stroke="blue" points="350.238,-567.478 353.738,-577.478 357.238,-567.478 350.238,-567.478"/>
</g>
<!-- 15 -->
<g id="node6" class="node"><title>15</title>
<ellipse fill="lightgrey" stroke="lightgrey" cx="417.738" cy="-171" rx="33.2948" ry="18"/>
<text text-anchor="middle" x="417.738" y="-167.3" font-family="Times,serif" font-size="14.00">4.4.26</text>
</g>
<!-- 15&#45;&gt;1 -->
<g id="edge1" class="edge"><title>15&#45;&gt;1</title>
<path fill="none" stroke="blue" stroke-dasharray="5,2" d="M450.647,-172.988C535.974,-177.473 757.738,-202.191 757.738,-338 757.738,-338 757.738,-338 757.738,-428 757.738,-483.285 745.226,-502.308 705.738,-541 676.644,-569.507 632.049,-585.768 601.036,-594.214"/>
<polygon fill="blue" stroke="blue" points="599.888,-590.895 591.081,-596.785 601.639,-597.673 599.888,-590.895"/>
</g>
<!-- 15&#45;&gt;18 -->
<g id="edge3" class="edge"><title>15&#45;&gt;18</title>
<path fill="none" stroke="blue" stroke-dasharray="5,2" d="M415.992,-189.06C411.766,-230.336 400.925,-336.244 395.278,-391.415"/>
<polygon fill="blue" stroke="blue" points="391.791,-391.115 394.254,-401.419 398.754,-391.828 391.791,-391.115"/>
</g>
<!-- 15&#45;&gt;12 -->
<g id="edge5" class="edge"><title>15&#45;&gt;12</title>
<path fill="none" stroke="blue" stroke-dasharray="5,2" d="M423.174,-188.869C436.768,-234.186 468.216,-361.339 425.738,-453 417.734,-470.272 402.163,-484.432 387.542,-494.746"/>
<polygon fill="blue" stroke="blue" points="385.487,-491.91 379.109,-500.369 389.37,-497.734 385.487,-491.91"/>
</g>
<!-- 15&#45;&gt;37 -->
<g id="edge24" class="edge"><title>15&#45;&gt;37</title>
<path fill="none" stroke="blue" stroke-dasharray="5,2" d="M407.772,-188.219C391.228,-215.144 357.772,-269.591 336.081,-304.893"/>
<polygon fill="blue" stroke="blue" points="333.09,-303.074 330.837,-313.427 339.055,-306.739 333.09,-303.074"/>
</g>
<!-- 20 -->
<g id="node9" class="node"><title>20</title>
<polygon fill="yellowgreen" stroke="yellowgreen" points="536.238,-276.5 485.238,-276.5 485.238,-225.5 536.238,-225.5 536.238,-276.5"/>
<text text-anchor="middle" x="510.738" y="-247.3" font-family="Times,serif" font-size="14.00">4.5.13</text>
</g>
<!-- 15&#45;&gt;20 -->
<g id="edge25" class="edge"><title>15&#45;&gt;20</title>
<path fill="none" stroke="blue" stroke-dasharray="5,2" d="M435.23,-186.671C447.128,-196.65 463.245,-210.167 477.533,-222.151"/>
<polygon fill="blue" stroke="blue" points="475.333,-224.874 485.244,-228.618 479.832,-219.511 475.333,-224.874"/>
</g>
<!-- 16 -->
<g id="node7" class="node"><title>16</title>
<ellipse fill="lightgrey" stroke="lightgrey" cx="48.7378" cy="-427" rx="33.2948" ry="18"/>
<text text-anchor="middle" x="48.7378" y="-423.3" font-family="Times,serif" font-size="14.00">4.4.30</text>
</g>
<!-- 16&#45;&gt;0 -->
<g id="edge4" class="edge"><title>16&#45;&gt;0</title>
<path fill="none" stroke="blue" stroke-dasharray="5,2" d="M65.2366,-442.834C91.8012,-466.142 146.389,-511.699 198.738,-541 237.789,-562.858 286.267,-580.58 318.505,-591.18"/>
<polygon fill="blue" stroke="blue" points="317.777,-594.622 328.369,-594.367 319.93,-587.962 317.777,-594.622"/>
</g>
<!-- 16&#45;&gt;12 -->
<g id="edge6" class="edge"><title>16&#45;&gt;12</title>
<path fill="none" stroke="blue" stroke-dasharray="5,2" d="M77.4315,-436.091C133.504,-451.901 257.458,-486.852 318.445,-504.049"/>
<polygon fill="blue" stroke="blue" points="317.798,-507.503 328.372,-506.848 319.698,-500.765 317.798,-507.503"/>
</g>
<!-- 16&#45;&gt;35 -->
<g id="edge40" class="edge"><title>16&#45;&gt;35</title>
<path fill="none" stroke="blue" stroke-dasharray="5,2" d="M51.931,-444.928C56.7217,-467.792 67.1371,-509.324 84.7378,-541 90.275,-550.965 97.5933,-560.799 104.986,-569.566"/>
<polygon fill="blue" stroke="blue" points="102.527,-572.07 111.747,-577.289 107.794,-567.459 102.527,-572.07"/>
</g>
<!-- 18&#45;&gt;0 -->
<g id="edge12" class="edge"><title>18&#45;&gt;0</title>
<path fill="none" stroke="blue" stroke-dasharray="5,2" d="M394.149,-452.754C395.649,-475.994 395.963,-511.502 387.738,-541 385.103,-550.448 380.739,-560.016 376,-568.685"/>
<polygon fill="blue" stroke="blue" points="372.965,-566.943 370.984,-577.351 379.023,-570.45 372.965,-566.943"/>
</g>
<!-- 18&#45;&gt;12 -->
<g id="edge14" class="edge"><title>18&#45;&gt;12</title>
<path fill="none" stroke="blue" stroke-dasharray="5,2" d="M380.747,-452.875C376.972,-461.417 372.682,-471.126 368.65,-480.252"/>
<polygon fill="blue" stroke="blue" points="365.413,-478.917 364.573,-489.478 371.816,-481.746 365.413,-478.917"/>
</g>
<!-- 18&#45;&gt;1 -->
<g id="edge15" class="edge"><title>18&#45;&gt;1</title>
<path fill="none" stroke="blue" stroke-dasharray="5,2" d="M416.299,-452.561C447.042,-483.304 499.771,-536.033 533.67,-569.932"/>
<polygon fill="blue" stroke="blue" points="531.475,-572.687 541.021,-577.283 536.425,-567.737 531.475,-572.687"/>
</g>
<!-- 18&#45;&gt;35 -->
<g id="edge44" class="edge"><title>18&#45;&gt;35</title>
<path fill="none" stroke="blue" stroke-dasharray="5,2" d="M366.355,-445.32C320.15,-476.848 222.308,-543.611 170.524,-578.946"/>
<polygon fill="blue" stroke="blue" points="168.305,-576.223 162.018,-584.75 172.251,-582.005 168.305,-576.223"/>
</g>
<!-- 20&#45;&gt;0 -->
<g id="edge7" class="edge"><title>20&#45;&gt;0</title>
<path fill="none" stroke="blue" stroke-dasharray="5,2" d="M536.212,-268.791C550.139,-279.569 566.076,-294.917 573.738,-313 598.012,-370.292 594.252,-394.257 573.738,-453 557.261,-500.182 543.747,-511.053 503.738,-541 468.807,-567.145 421.098,-584.01 388.943,-593.237"/>
<polygon fill="blue" stroke="blue" points="387.789,-589.924 379.086,-595.966 389.657,-596.67 387.789,-589.924"/>
</g>
<!-- 20&#45;&gt;37 -->
<g id="edge16" class="edge"><title>20&#45;&gt;37</title>
<path fill="none" stroke="blue" stroke-dasharray="5,2" d="M485.245,-263.243C450.793,-278.437 389.24,-305.584 350.55,-322.647"/>
<polygon fill="blue" stroke="blue" points="348.974,-319.517 341.237,-326.754 351.799,-325.921 348.974,-319.517"/>
</g>
<!-- 20&#45;&gt;18 -->
<g id="edge17" class="edge"><title>20&#45;&gt;18</title>
<path fill="none" stroke="blue" stroke-dasharray="5,2" d="M493.94,-276.561C473.18,-306.917 437.76,-358.707 414.552,-392.642"/>
<polygon fill="blue" stroke="blue" points="411.398,-391.053 408.642,-401.283 417.176,-395.004 411.398,-391.053"/>
</g>
<!-- 20&#45;&gt;1 -->
<g id="edge18" class="edge"><title>20&#45;&gt;1</title>
<path fill="none" stroke="blue" stroke-dasharray="5,2" d="M535.993,-261.949C580.255,-281.027 670.051,-327.502 700.738,-401 725.091,-459.327 715.02,-491.482 675.738,-541 656.653,-565.058 625.343,-581.092 600.998,-590.657"/>
<polygon fill="blue" stroke="blue" points="599.526,-587.471 591.382,-594.247 601.974,-594.029 599.526,-587.471"/>
</g>
<!-- 20&#45;&gt;12 -->
<g id="edge20" class="edge"><title>20&#45;&gt;12</title>
<path fill="none" stroke="blue" stroke-dasharray="5,2" d="M510.47,-276.568C508.826,-317.268 500.294,-399.49 459.738,-453 441.895,-476.542 412.139,-492.512 388.689,-502.187"/>
<polygon fill="blue" stroke="blue" points="387.112,-499.046 379.077,-505.952 389.665,-505.563 387.112,-499.046"/>
</g>
<!-- 20&#45;&gt;35 -->
<g id="edge36" class="edge"><title>20&#45;&gt;35</title>
<path fill="none" stroke="blue" stroke-dasharray="5,2" d="M514.206,-276.58C515.606,-287.68 517.05,-300.974 517.738,-313 521.371,-376.531 523.081,-400.083 487.738,-453 454.856,-502.232 440.25,-513.66 387.738,-541 316.624,-578.025 222.42,-593.087 172.06,-598.804"/>
<polygon fill="blue" stroke="blue" points="171.571,-595.337 162.003,-599.887 172.321,-602.296 171.571,-595.337"/>
</g>
<!-- 37&#45;&gt;1 -->
<g id="edge2" class="edge"><title>37&#45;&gt;1</title>
<path fill="none" stroke="blue" stroke-dasharray="5,2" d="M341.185,-350.449C364.763,-360.936 399.975,-378.712 425.738,-401 481.769,-449.472 526.375,-525.059 549.158,-568.407"/>
<polygon fill="blue" stroke="blue" points="546.11,-570.133 553.816,-577.404 552.327,-566.915 546.11,-570.133"/>
</g>
<!-- 37&#45;&gt;0 -->
<g id="edge10" class="edge"><title>37&#45;&gt;0</title>
<path fill="none" stroke="blue" stroke-dasharray="5,2" d="M312.206,-364.687C307.563,-403.164 301.831,-479.412 318.738,-541 321.353,-550.525 325.81,-560.122 330.684,-568.793"/>
<polygon fill="blue" stroke="blue" points="327.723,-570.662 335.855,-577.454 333.734,-567.073 327.723,-570.662"/>
</g>
<!-- 37&#45;&gt;12 -->
<g id="edge23" class="edge"><title>37&#45;&gt;12</title>
<path fill="none" stroke="blue" stroke-dasharray="5,2" d="M321.102,-364.561C327.647,-394.529 338.754,-445.388 346.167,-479.333"/>
<polygon fill="blue" stroke="blue" points="342.787,-480.26 348.34,-489.283 349.626,-478.766 342.787,-480.26"/>
</g>
<!-- 37&#45;&gt;35 -->
<g id="edge27" class="edge"><title>37&#45;&gt;35</title>
<path fill="none" stroke="blue" stroke-dasharray="5,2" d="M298.898,-364.648C266.581,-411.95 195.846,-515.485 159.416,-568.806"/>
<polygon fill="blue" stroke="blue" points="156.415,-566.995 153.663,-577.226 162.195,-570.944 156.415,-566.995"/>
</g>
<!-- 37&#45;&gt;18 -->
<g id="edge33" class="edge"><title>37&#45;&gt;18</title>
<path fill="none" stroke="blue" stroke-dasharray="5,2" d="M337.72,-364.875C345.746,-373.956 354.938,-384.358 363.436,-393.974"/>
<polygon fill="blue" stroke="blue" points="360.823,-396.303 370.067,-401.478 366.068,-391.667 360.823,-396.303"/>
</g>
<!-- 39 -->
<g id="node12" class="node"><title>39</title>
<polygon fill="salmon" stroke="salmon" points="353.884,-75.6079 312.738,-88.1475 271.592,-75.6079 287.308,-55.3184 338.167,-55.3184 353.884,-75.6079"/>
<polygon fill="none" stroke="salmon" points="360.641,-77.7628 312.738,-92.362 264.834,-77.7628 285.344,-51.2856 340.132,-51.2856 360.641,-77.7628"/>
<text text-anchor="middle" x="312.738" y="-66.3" font-family="Times,serif" font-size="14.00">4.4.23</text>
</g>
<!-- 39&#45;&gt;37 -->
<g id="edge8" class="edge"><title>39&#45;&gt;37</title>
<path fill="none" stroke="red" stroke-width="2" d="M312.978,-92.3984C313.496,-138.435 314.718,-247.238 315.348,-303.289"/>
<polygon fill="red" stroke="red" points="311.85,-303.478 315.462,-313.438 318.849,-303.399 311.85,-303.478"/>
</g>
<!-- 39&#45;&gt;2 -->
<g id="edge21" class="edge"><title>39&#45;&gt;2</title>
<path fill="none" stroke="blue" d="M288.931,-85.4528C266.247,-100.175 232.3,-124.802 209.738,-153 192.658,-174.347 179.766,-202.919 171.844,-223.519"/>
<polygon fill="blue" stroke="blue" points="168.552,-222.331 168.358,-232.924 175.115,-224.764 168.552,-222.331"/>
</g>
<!-- 39&#45;&gt;18 -->
<g id="edge26" class="edge"><title>39&#45;&gt;18</title>
<path fill="none" stroke="red" stroke-width="2" d="M317.212,-91.1035C330.122,-149.121 367.565,-317.374 383.929,-390.91"/>
<polygon fill="red" stroke="red" points="380.596,-392.047 386.185,-401.048 387.429,-390.527 380.596,-392.047"/>
</g>
<!-- 39&#45;&gt;6 -->
<g id="edge31" class="edge"><title>39&#45;&gt;6</title>
<path fill="none" stroke="blue" d="M329.464,-87.3874C340.217,-97.1522 354.908,-109.136 369.738,-117 418.18,-142.687 442.442,-122.102 487.738,-153 578.885,-215.175 631.104,-343.653 650.262,-399.317"/>
<polygon fill="blue" stroke="blue" points="647.057,-400.767 653.556,-409.135 653.694,-398.541 647.057,-400.767"/>
</g>
<!-- 39&#45;&gt;12 -->
<g id="edge32" class="edge"><title>39&#45;&gt;12</title>
<path fill="none" stroke="red" stroke-width="2" d="M306.165,-90.5306C291.114,-138.091 257.202,-263.466 280.738,-365 290.582,-407.47 314.301,-451.8 332.048,-480.948"/>
<polygon fill="red" stroke="red" points="329.098,-482.833 337.342,-489.488 335.048,-479.144 329.098,-482.833"/>
</g>
<!-- 39&#45;&gt;20 -->
<g id="edge34" class="edge"><title>39&#45;&gt;20</title>
<path fill="none" stroke="red" stroke-width="2" d="M330.203,-87.39C340.997,-96.9147 355.473,-108.646 369.738,-117 406.914,-138.77 427.739,-124.154 459.738,-153 478.525,-169.936 491.554,-195.442 499.738,-216.049"/>
<polygon fill="red" stroke="red" points="496.466,-217.292 503.265,-225.418 503.017,-214.826 496.466,-217.292"/>
</g>
<!-- 39&#45;&gt;15 -->
<g id="edge41" class="edge"><title>39&#45;&gt;15</title>
<path fill="none" stroke="blue" d="M330.076,-87.3478C347.663,-103.929 374.991,-129.696 394.456,-148.049"/>
<polygon fill="blue" stroke="blue" points="392.074,-150.613 401.751,-154.927 396.876,-145.52 392.074,-150.613"/>
</g>
<!-- 39&#45;&gt;16 -->
<g id="edge43" class="edge"><title>39&#45;&gt;16</title>
<path fill="none" stroke="blue" d="M285.868,-84.2398C243.227,-106.774 160.797,-156.849 120.738,-225 86.77,-282.788 64.8637,-359.233 54.9285,-399.14"/>
<polygon fill="blue" stroke="blue" points="51.5114,-398.38 52.5517,-408.924 58.3135,-400.032 51.5114,-398.38"/>
</g>
<!-- Key -->
<g id="node13" class="node"><title>Key</title>
<text text-anchor="start" x="440.738" y="-81.3" font-family="Times,serif" font-weight="bold" font-size="14.00">Key</text>
<text text-anchor="start" x="402.738" y="-65.8" font-family="Times,serif" font-size="14.00">Direct Path</text>
<text text-anchor="start" x="478.238" y="-65.8" font-family="Times,serif" font-size="14.00" fill="red">⟶</text>
<text text-anchor="start" x="402.738" y="-50.8" font-family="Times,serif" font-size="14.00">Indirect Path</text>
<text text-anchor="start" x="474.738" y="-50.8" font-family="Times,serif" font-size="14.00" fill="blue">→ ⤏</text>
<polygon fill="none" stroke="black" stroke-dasharray="1,5" points="400.738,-45.5 400.738,-94.5 504.738,-94.5 504.738,-45.5 400.738,-45.5"/>
</g>
</g>
</svg>
