<?xml version="1.0" encoding="UTF-8" standalone="no"?>
<!DOCTYPE svg PUBLIC "-//W3C//DTD SVG 1.1//EN"
 "http://www.w3.org/Graphics/SVG/1.1/DTD/svg11.dtd">
<!-- Generated by graphviz version 2.30.1 (20180420.1509)
 -->
<!-- Title: stable Pages: 1 -->
<svg width="333pt" height="389pt"
 viewBox="0.00 0.00 333.21 389.00" xmlns="http://www.w3.org/2000/svg" xmlns:xlink="http://www.w3.org/1999/xlink">
<g id="graph0" class="graph" transform="scale(1 1) rotate(0) translate(4 385)">
<title>stable</title>
<polygon fill="white" stroke="white" points="-4,5 -4,-385 330.208,-385 330.208,5 -4,5"/>
<text text-anchor="middle" x="162.604" y="-7.8" font-family="Times,serif" font-size="14.00">stable&#45;4.5_amd64 (2020&#45;11&#45;25)</text>
<!-- 7 -->
<g id="node1" class="node"><title>7</title>
<polygon fill="yellowgreen" stroke="yellowgreen" points="136.708,-292.5 85.7081,-292.5 85.7081,-241.5 136.708,-241.5 136.708,-292.5"/>
<text text-anchor="middle" x="111.208" y="-263.3" font-family="Times,serif" font-size="14.00">4.5.18</text>
</g>
<!-- 15 -->
<g id="node3" class="node"><title>15</title>
<polygon fill="yellowgreen" stroke="yellowgreen" points="136.708,-380.5 85.7081,-380.5 85.7081,-329.5 136.708,-329.5 136.708,-380.5"/>
<text text-anchor="middle" x="111.208" y="-351.3" font-family="Times,serif" font-size="14.00">4.5.19</text>
</g>
<!-- 7&#45;&gt;15 -->
<g id="edge6" class="edge"><title>7&#45;&gt;15</title>
<path fill="none" stroke="blue" stroke-dasharray="5,2" d="M111.208,-292.875C111.208,-301.147 111.208,-310.514 111.208,-319.386"/>
<polygon fill="blue" stroke="blue" points="107.708,-319.478 111.208,-329.478 114.708,-319.478 107.708,-319.478"/>
</g>
<!-- 8 -->
<g id="node2" class="node"><title>8</title>
<polygon fill="yellowgreen" stroke="yellowgreen" points="67.7081,-292.5 16.7081,-292.5 16.7081,-241.5 67.7081,-241.5 67.7081,-292.5"/>
<text text-anchor="middle" x="42.2081" y="-263.3" font-family="Times,serif" font-size="14.00">4.5.17</text>
</g>
<!-- 19 -->
<g id="node4" class="node"><title>19</title>
<polygon fill="yellowgreen" stroke="yellowgreen" points="75.7081,-204.5 24.7081,-204.5 24.7081,-153.5 75.7081,-153.5 75.7081,-204.5"/>
<text text-anchor="middle" x="50.2081" y="-175.3" font-family="Times,serif" font-size="14.00">4.5.16</text>
</g>
<!-- 19&#45;&gt;15 -->
<g id="edge1" class="edge"><title>19&#45;&gt;15</title>
<path fill="none" stroke="blue" stroke-dasharray="5,2" d="M27.7226,-204.508C19.5973,-214.959 11.3979,-227.784 7.2081,-241 0.223704,-263.03 -4.2787,-272.946 7.2081,-293 21.9299,-318.702 52.1521,-334.628 76.2411,-343.733"/>
<polygon fill="blue" stroke="blue" points="75.1972,-347.076 85.792,-347.115 77.5341,-340.477 75.1972,-347.076"/>
</g>
<!-- 19&#45;&gt;7 -->
<g id="edge3" class="edge"><title>19&#45;&gt;7</title>
<path fill="none" stroke="blue" stroke-dasharray="5,2" d="M67.8518,-204.875C74.1019,-213.686 81.2335,-223.741 87.8829,-233.115"/>
<polygon fill="blue" stroke="blue" points="85.1744,-235.347 93.8147,-241.478 90.884,-231.297 85.1744,-235.347"/>
</g>
<!-- 19&#45;&gt;8 -->
<g id="edge4" class="edge"><title>19&#45;&gt;8</title>
<path fill="none" stroke="blue" stroke-dasharray="5,2" d="M47.8942,-204.875C47.1247,-213.147 46.2533,-222.514 45.428,-231.386"/>
<polygon fill="blue" stroke="blue" points="41.9306,-231.197 44.4892,-241.478 48.9005,-231.845 41.9306,-231.197"/>
</g>
<!-- 31 -->
<g id="node5" class="node"><title>31</title>
<polygon fill="salmon" stroke="salmon" points="152.354,-75.6079 111.208,-88.1475 70.0624,-75.6079 85.7787,-55.3184 136.638,-55.3184 152.354,-75.6079"/>
<polygon fill="none" stroke="salmon" points="159.112,-77.7628 111.208,-92.362 63.3046,-77.7628 83.8138,-51.2856 138.602,-51.2856 159.112,-77.7628"/>
<text text-anchor="middle" x="111.208" y="-66.3" font-family="Times,serif" font-size="14.00">4.4.30</text>
</g>
<!-- 31&#45;&gt;19 -->
<g id="edge2" class="edge"><title>31&#45;&gt;19</title>
<path fill="none" stroke="red" stroke-width="2" d="M100.583,-89.638C92.0368,-104.628 79.8037,-126.086 69.5327,-144.103"/>
<polygon fill="red" stroke="red" points="66.2825,-142.737 64.3704,-153.158 72.3637,-146.204 66.2825,-142.737"/>
</g>
<!-- 31&#45;&gt;15 -->
<g id="edge5" class="edge"><title>31&#45;&gt;15</title>
<path fill="none" stroke="red" stroke-width="2" d="M119.22,-89.9748C134.441,-128.66 164.38,-219.223 145.208,-293 142.741,-302.493 138.438,-312.078 133.706,-320.748"/>
<polygon fill="red" stroke="red" points="130.671,-319.005 128.678,-329.411 136.725,-322.519 130.671,-319.005"/>
</g>
<!-- 31&#45;&gt;7 -->
<g id="edge7" class="edge"><title>31&#45;&gt;7</title>
<path fill="none" stroke="red" stroke-width="2" d="M111.208,-92.2396C111.208,-125.676 111.208,-190.924 111.208,-231.257"/>
<polygon fill="red" stroke="red" points="107.708,-231.432 111.208,-241.432 114.708,-231.432 107.708,-231.432"/>
</g>
<!-- Key -->
<g id="node6" class="node"><title>Key</title>
<text text-anchor="start" x="239.208" y="-81.3" font-family="Times,serif" font-weight="bold" font-size="14.00">Key</text>
<text text-anchor="start" x="201.208" y="-65.8" font-family="Times,serif" font-size="14.00">Direct Path</text>
<text text-anchor="start" x="276.708" y="-65.8" font-family="Times,serif" font-size="14.00" fill="red">⟶</text>
<text text-anchor="start" x="201.208" y="-50.8" font-family="Times,serif" font-size="14.00">Indirect Path</text>
<text text-anchor="start" x="273.208" y="-50.8" font-family="Times,serif" font-size="14.00" fill="blue">→ ⤏</text>
<polygon fill="none" stroke="black" stroke-dasharray="1,5" points="199.208,-45.5 199.208,-94.5 303.208,-94.5 303.208,-45.5 199.208,-45.5"/>
</g>
</g>
</svg>
